<svg width="25" height="25" fill="none" xmlns="http://www.w3.org/2000/svg"><path d="M15.393 3.806a.417.417 0 0 0-.337-.275l-1.511-.205-.698-1.426a.416.416 0 1 0-.754.011l-.657 1.448-1.505.253a.417.417 0 0 0-.224.708l1.118 1.106-.238 1.596a.416.416 0 0 0 .619.423l1.334-.76 1.355.717a.417.417 0 0 0 .605-.441l-.284-1.588 1.086-1.142a.416.416 0 0 0 .091-.425zm-1.927 1.146a.417.417 0 0 0-.108.36l.17.953-.801-.424a.415.415 0 0 0-.401.006l-.788.45.143-.957a.417.417 0 0 0-.12-.358l-.69-.683.922-.155a.417.417 0 0 0 .31-.239l.383-.845.408.832c.061.125.18.211.318.23l.924.125-.67.705z" fill="#fff"/><path d="M22.24 16.857a2.912 2.912 0 0 0-1.407-5.157V8.333H20V11.7a2.912 2.912 0 0 0-1.408 5.155 4.181 4.181 0 0 0-2.137 1.081 4.2 4.2 0 0 0-2.132-1.08 2.917 2.917 0 1 0-3.646 0 4.2 4.2 0 0 0-2.132 1.08 4.182 4.182 0 0 0-2.137-1.081A2.911 2.911 0 0 0 5 11.7V5h-.833v6.7a2.911 2.911 0 0 0-1.406 5.157C1.058 17.24 0 18.182 0 19.437v5.146c0 .23.186.417.416.417h24.167c.23 0 .417-.186.417-.416v-5.148c0-1.254-1.058-2.195-2.76-2.58zM2.5 14.583a2.083 2.083 0 1 1 4.167 0 2.083 2.083 0 0 1-4.167 0zm5.417 4.853v4.73H.833v-4.73c0-1.33 1.944-1.936 3.75-1.936 1.655 0 2.955.446 3.483 1.17a2.068 2.068 0 0 0-.15.766zm2.5-4.853a2.083 2.083 0 1 1 4.166 0 2.083 2.083 0 0 1-4.166 0zm5.833 9.584h-7.5v-4.73c0-1.331 1.944-1.937 3.75-1.937s3.75.606 3.75 1.936v4.73zm2.083-9.584a2.083 2.083 0 1 1 4.167 0 2.083 2.083 0 0 1-4.167 0zm5.834 9.584h-7.084v-4.73c0-.263-.05-.524-.149-.768.528-.723 1.828-1.169 3.483-1.169 1.806 0 3.75.606 3.75 1.936v4.73zM20.417 0H4.583a.416.416 0 0 0-.416.416V2.5H5V.833h15v5h.833V.417A.416.416 0 0 0 20.417 0z" fill="#fff"/><path d="M17.083 1.667h-.833V2.5h.833v-.833zm0 1.666h-.833v.834h.833v-.834zm0 1.667h-.833v.833h.833V5zm0 1.667h-.833V7.5h.833v-.833zm-8.333-5h-.833V2.5h.833v-.833zm0 1.666h-.833v.834h.833v-.834zM8.75 5h-.833v.833h.833V5zm0 1.667h-.833V7.5h.833v-.833zm8.333 1.666h-.833v.834h.833v-.834zm1.667-6.666h-.833V2.5h.833v-.833zm0 1.666h-.833v.834h.833v-.834zm0 1.667h-.833v.833h.833V5zm0 1.667h-.833V7.5h.833v-.833zm0 1.666h-.833v.834h.833v-.834zm-3.333 0h-.834v.834h.834v-.834zm-1.667 0h-.833v.834h.833v-.834zm-1.667 0h-.833v.834h.833v-.834zm-1.666 0h-.834v.834h.834v-.834zm-1.667 0h-.833v.834h.833v-.834zM7.083 1.667H6.25V2.5h.833v-.833zm0 1.666H6.25v.834h.833v-.834zm0 1.667H6.25v.833h.833V5zm0 1.667H6.25V7.5h.833v-.833zm0 1.666H6.25v.834h.833v-.834zm10 1.667h-.833v.833h.833V10zm1.667 0h-.833v.833h.833V10zm-3.333 0h-.834v.833h.834V10zm-1.667 0h-.833v.833h.833V10zm-1.667 0h-.833v.833h.833V10zm-1.666 0h-.834v.833h.834V10zM8.75 10h-.833v.833h.833V10zm-1.667 0H6.25v.833h.833V10zm-2.5-6.667c-.69 0-1.249-.56-1.25-1.25a.417.417 0 0 0-.833 0c0 .69-.56 1.25-1.25 1.25a.417.417 0 0 0 0 .834c.69 0 1.25.56 1.25 1.25a.417.417 0 0 0 .833 0c.001-.69.56-1.25 1.25-1.25a.417.417 0 0 0 0-.834zm-1.666.835a2.097 2.097 0 0 0-.418-.418c.158-.119.299-.26.418-.418.119.158.26.3.418.418-.159.119-.3.26-.418.418zm21.25 2.499a1.251 1.251 0 0 1-1.25-1.25.417.417 0 0 0-.834 0c0 .69-.56 1.249-1.25 1.25a.417.417 0 1 0 0 .833c.69 0 1.25.56 1.25 1.25a.417.417 0 1 0 .834 0c0-.69.56-1.25 1.25-1.25a.417.417 0 0 0 0-.833zM22.5 7.5a2.095 2.095 0 0 0-.418-.418c.159-.119.3-.26.418-.418.119.159.26.3.418.418-.158.12-.3.26-.418.418z" fill="#fff"/></svg>