<svg width="20" height="20" fill="none" xmlns="http://www.w3.org/2000/svg"><path d="M9.928 10.777h.132c1.214-.021 2.195-.448 2.92-1.264 1.595-1.797 1.33-4.878 1.3-5.173-.103-2.207-1.147-3.263-2.008-3.756C11.63.215 10.88.017 10.043 0h-.07c-.46 0-1.362.075-2.228.567-.87.493-1.93 1.55-2.034 3.773-.029.295-.294 3.376 1.3 5.173.722.816 1.703 1.243 2.917 1.264zm-3.11-6.333c0-.012.003-.025.003-.033.137-2.97 2.245-3.289 3.148-3.289h.05c1.118.025 3.019.48 3.147 3.289 0 .012 0 .025.005.033.004.029.293 2.845-1.023 4.328-.522.588-1.218.878-2.133.886h-.041c-.912-.008-1.612-.298-2.13-.886-1.313-1.474-1.03-4.303-1.027-4.328z" fill="#FEF3F3"/><path d="M18.505 15.887v-.012c0-.033-.004-.066-.004-.104-.025-.82-.079-2.737-1.876-3.35-.013-.004-.03-.008-.042-.013-1.868-.476-3.42-1.553-3.437-1.565a.558.558 0 1 0-.642.915c.07.05 1.718 1.197 3.781 1.727.965.344 1.073 1.375 1.102 2.32 0 .037 0 .07.004.103.004.373-.02.949-.087 1.28-.671.38-3.301 1.698-7.302 1.698-3.984 0-6.63-1.321-7.306-1.702-.066-.332-.095-.907-.087-1.28 0-.033.004-.066.004-.104.03-.944.137-1.975 1.102-2.319 2.063-.53 3.711-1.681 3.781-1.727a.559.559 0 1 0-.642-.915c-.016.012-1.561 1.089-3.437 1.565a.264.264 0 0 0-.042.013c-1.797.617-1.85 2.534-1.876 3.35 0 .038 0 .07-.004.104v.012c-.004.216-.008 1.321.211 1.876a.532.532 0 0 0 .216.261c.124.083 3.102 1.98 8.084 1.98 4.983 0 7.96-1.901 8.085-1.98a.554.554 0 0 0 .215-.26c.207-.552.203-1.657.199-1.873z" fill="#FEF3F3"/></svg>