<svg width="26" height="27" fill="none" xmlns="http://www.w3.org/2000/svg"><path d="M16.963 14.236H9.099a.787.787 0 0 0 0 1.573h7.864a.787.787 0 0 0 0-1.573zm1.572-4.718H7.525a.787.787 0 0 0 0 1.573h11.01a.787.787 0 0 0 0-1.573zM13.031.868C6.082.867.448 5.796.448 11.877c0 3.474 1.844 6.568 4.719 8.586v5.568l5.511-3.344c.763.126 1.548.199 2.353.199 6.95 0 12.582-4.93 12.582-11.01S19.98.867 13.031.867zm0 20.446c-.919 0-1.806-.107-2.658-.289L6.67 23.251l.05-3.648c-2.838-1.707-4.699-4.528-4.699-7.726 0-5.211 4.93-9.437 11.01-9.437s11.01 4.226 11.01 9.437c0 5.211-4.93 9.437-11.01 9.437z" fill="#323E57"/></svg>