<svg width="18" height="10" fill="none" xmlns="http://www.w3.org/2000/svg"><path d="M17.312 4.695C17.164 4.503 13.659 0 9.182 0c-4.478 0-7.984 4.503-8.13 4.695a.498.498 0 0 0 0 .61C1.197 5.497 4.703 10 9.181 10c4.477 0 7.982-4.503 8.13-4.695a.498.498 0 0 0 0-.61zm-8.13 4.27c-3.299 0-6.155-2.988-7-3.965.844-.978 3.694-3.966 7-3.966 3.297 0 6.154 2.989 7 3.966-.845.978-3.695 3.966-7 3.966z" fill="#fff" fill-opacity=".5"/><path d="M9.181 1.896C7.385 1.896 5.924 3.29 5.924 5S7.385 8.103 9.18 8.103 12.44 6.711 12.44 5c0-1.711-1.462-3.104-3.258-3.104zm0 5.173C7.984 7.069 7.01 6.14 7.01 5s.974-2.069 2.171-2.069c1.198 0 2.172.928 2.172 2.069 0 1.14-.974 2.069-2.172 2.069z" fill="#fff" fill-opacity=".5"/></svg>