<svg width="53" height="53" fill="none" xmlns="http://www.w3.org/2000/svg"><g filter="url(#filter0_b)"><circle cx="26.13" cy="26.87" r="26.13" fill="#fff" fill-opacity=".1"/></g><g clip-path="url(#clip0)"><path d="M27.777 39.016h-3.913c-.654 0-1.186-.53-1.186-1.183v-8.809h-2.283c-.653 0-1.185-.53-1.185-1.183v-3.775c0-.652.532-1.183 1.185-1.183h2.283v-1.89c0-1.874.59-3.469 1.705-4.611 1.12-1.148 2.687-1.754 4.529-1.754l2.984.005a1.186 1.186 0 0 1 1.183 1.183v3.504c0 .653-.531 1.184-1.185 1.184h-2.009c-.613 0-.769.123-.802.16-.055.063-.12.24-.12.726v1.493h2.78a1.187 1.187 0 0 1 1.196 1.183v3.775c0 .652-.532 1.183-1.186 1.183h-2.79v8.81c0 .651-.533 1.182-1.186 1.182zm-3.666-1.43h3.419v-9.202c0-.436.355-.79.791-.79h3.185l.001-3.281h-3.186a.791.791 0 0 1-.791-.79V21.39c0-.559.056-1.194.479-1.672.51-.577 1.315-.643 1.876-.643l1.762-.001v-3.012l-2.736-.004c-2.96 0-4.8 1.89-4.8 4.935v2.53c0 .436-.355.79-.791.79h-2.678v3.281h2.678a.79.79 0 0 1 .79.79v9.202zm7.782-21.523z" fill="#fff"/></g><defs><filter id="filter0_b" x="-2" y="-1.26" width="56.261" height="56.261" filterUnits="userSpaceOnUse" color-interpolation-filters="sRGB"><feFlood flood-opacity="0" result="BackgroundImageFix"/><feGaussianBlur in="BackgroundImage" stdDeviation="1"/><feComposite in2="SourceAlpha" operator="in" result="effect1_backgroundBlur"/><feBlend in="SourceGraphic" in2="effect1_backgroundBlur" result="shape"/></filter><clipPath id="clip0"><path fill="#fff" transform="translate(13.936 14.675)" d="M0 0h24.388v24.388H0z"/></clipPath></defs></svg>