<svg width="57" height="54" fill="none" xmlns="http://www.w3.org/2000/svg"><path d="M4.952 15.447C2.302 20.4 1.32 26.213 2.559 32.091M40.384 4.16a27.584 27.584 0 0 0-16.982-2.096c-6.794 1.311-12.458 4.989-16.245 9.955m47.614 9.995C53.366 15.344 49.36 9.81 43.967 6.188m11.345 21.377a24.535 24.535 0 0 0-.526-5.554M2.573 32.088c.077.366.162.729.255 1.088M21.79 51.682c5.966-6.5 8.807-15.496 6.882-24.631m-4.549 14.924a25.553 25.553 0 0 1-5.776 8.578" stroke="#F2994A" stroke-miterlimit="10" stroke-linecap="round"/><path d="M25.518 52.368c5.782-7.082 8.42-16.446 6.418-25.947l.01-.003c-.365-1.735-2.13-2.857-3.942-2.507-1.812.35-2.984 2.039-2.619 3.773l.024-.004a24.36 24.36 0 0 1-.057 10.376m-2.954-8.31c1.044 7.372-1.834 14.494-7.197 19.296" stroke="#F2994A" stroke-miterlimit="10" stroke-linecap="round"/><path d="M35.93 32.659a33.773 33.773 0 0 0-.73-6.868l.007-.002c-.728-3.458-4.248-5.697-7.86-5-2.7.522-4.687 2.533-5.216 4.96m7.385 26.781c3.333-4.66 5.495-10.084 6.18-15.83" stroke="#F2994A" stroke-miterlimit="10" stroke-linecap="round"/><path d="M29.448 17.507a10.438 10.438 0 0 0-2.759.162c-5.414 1.045-8.917 6.092-7.826 11.274l.019-.003c1.476 7.009-1.253 13.895-6.524 18.265m21.404 4.864c4.799-7.83 6.723-17.31 4.7-26.908l.006-.002c-.602-2.855-2.473-5.155-4.938-6.47M14.824 38.48a16.09 16.09 0 0 1-4.994 6.594" stroke="#F2994A" stroke-miterlimit="10" stroke-linecap="round"/><path d="M42.017 39.445a39.589 39.589 0 0 0-.29-14.913l.002-.002c-1.455-6.905-8.483-11.375-15.697-9.982-7.215 1.392-11.884 8.119-10.43 15.025l.016-.003a15.27 15.27 0 0 1 .238 4.852M38.22 50.847a40.368 40.368 0 0 0 2.903-7.434" stroke="#F2994A" stroke-miterlimit="10" stroke-linecap="round"/><path d="M42.133 17.67a15.555 15.555 0 0 1 2.856 6.231h.001a42.632 42.632 0 0 1-2.138 24.73M21.713 12.564a17.227 17.227 0 0 1 3.661-1.137c5.097-.984 10.12.374 13.85 3.299M7.623 42.682c3.762-2.893 5.75-7.642 4.73-12.482l-.012.002c-1.267-6.013 1.183-11.918 5.835-15.534" stroke="#F2994A" stroke-miterlimit="10" stroke-linecap="round"/><path d="M8.7 27.809c.042 1 .167 2.01.38 3.023l.01-.003c.747 3.545-.655 7.026-3.347 9.21m42.963-14.291a47.11 47.11 0 0 0-.452-2.476h-.004C46.069 12.92 35.533 6.22 24.717 8.306 16.404 9.91 10.345 16.238 8.976 23.78M47.57 45.008a45.558 45.558 0 0 0 1.579-15.246" stroke="#F2994A" stroke-miterlimit="10" stroke-linecap="round"/><path d="M31.788 4.94a24.294 24.294 0 0 0-7.728.245C11.442 7.62 3.275 19.384 5.82 31.461l.007-.002c.442 2.095-.243 4.157-1.654 5.614m47.999 1.96a48.802 48.802 0 0 0-.654-16.39h-.007C49.781 14.43 43.543 8.187 35.761 5.8" stroke="#F2994A" stroke-miterlimit="10" stroke-linecap="round"/></svg>