<svg width="28" height="23" fill="none" xmlns="http://www.w3.org/2000/svg"><path d="M24.973 2.41C23.578 1.086 21.73.363 19.759.363c-1.971 0-3.824.728-5.22 2.05l-.728.691-.74-.701C11.676 1.08 9.817.348 7.846.348c-1.966 0-3.819.728-5.208 2.045C1.243 3.716.474 5.472.48 7.34c0 1.869.774 3.62 2.17 4.942l10.608 10.056a.789.789 0 0 0 1.073.005l10.63-10.04c1.396-1.322 2.164-3.078 2.164-4.947.006-1.868-.757-3.624-2.152-4.947zm-1.085 8.871l-10.094 9.53-10.072-9.546c-1.107-1.05-1.717-2.441-1.717-3.925 0-1.483.605-2.875 1.712-3.919a5.973 5.973 0 0 1 4.129-1.622c1.565 0 3.039.578 4.146 1.627l1.277 1.21a.79.79 0 0 0 1.079 0l1.265-1.199a5.991 5.991 0 0 1 4.14-1.628c1.56 0 3.028.579 4.135 1.623 1.107 1.05 1.712 2.441 1.712 3.924.006 1.484-.605 2.876-1.712 3.925z" fill="#323E57"/></svg>