<svg width="52" height="40" fill="none" xmlns="http://www.w3.org/2000/svg"><g filter="url(#filter0_d)"><path d="M26.05 16.87h.217c1.988-.032 3.597-.694 4.784-1.96 2.613-2.791 2.178-7.576 2.13-8.032-.169-3.427-1.879-5.067-3.29-5.832-1.052-.573-2.28-.881-3.65-.907h-.117c-.753 0-2.233.116-3.651.88-1.425.766-3.162 2.406-3.332 5.859-.047.456-.482 5.24 2.13 8.031 1.182 1.267 2.79 1.93 4.778 1.962zm-5.096-9.83c0-.02.007-.039.007-.052.224-4.61 3.678-5.105 5.157-5.105h.081c1.832.038 4.947.745 5.157 5.105 0 .02 0 .039.007.052.007.045.482 4.417-1.676 6.72-.855.912-1.995 1.363-3.494 1.375h-.068c-1.493-.012-2.64-.463-3.488-1.376-2.151-2.289-1.69-6.68-1.683-6.72z" fill="#FEF3F3"/><path d="M40.103 24.806v-.02c0-.051-.007-.103-.007-.16-.04-1.274-.128-4.25-3.073-5.203-.02-.006-.048-.012-.068-.019-3.06-.74-5.605-2.411-5.632-2.43a.948.948 0 0 0-1.276.212.839.839 0 0 0 .224 1.209c.115.077 2.816 1.858 6.195 2.681 1.581.534 1.758 2.135 1.805 3.601 0 .058 0 .11.007.16.007.58-.034 1.473-.143 1.988-1.099.591-5.408 2.636-11.963 2.636-6.528 0-10.864-2.051-11.97-2.643-.108-.514-.156-1.408-.142-1.987 0-.051.006-.103.006-.16.048-1.467.224-3.068 1.805-3.601 3.38-.823 6.08-2.611 6.196-2.682a.839.839 0 0 0 .224-1.209.948.948 0 0 0-1.276-.212c-.027.02-2.558 1.691-5.632 2.43a.842.842 0 0 0-.068.02c-2.945.958-3.033 3.935-3.074 5.202 0 .058 0 .11-.007.16v.02c-.007.335-.013 2.051.346 2.913.068.167.19.309.353.405.204.129 5.083 3.074 13.246 3.074s13.042-2.952 13.246-3.074a.872.872 0 0 0 .353-.405c.339-.855.332-2.572.325-2.906z" fill="#FEF3F3"/><path d="M47.822 9.808a.5.5 0 0 0 0-.707L44.64 5.919a.5.5 0 1 0-.707.707l2.828 2.829-2.828 2.828a.5.5 0 1 0 .707.707l3.182-3.182zm-13.461.147h13.107v-1H34.361v1zM5.119 9.101a.5.5 0 0 0 0 .707L8.3 12.99a.5.5 0 1 0 .707-.707L6.179 9.455l2.829-2.829A.5.5 0 1 0 8.3 5.92L5.119 9.101zm13.087-.146H5.472v1h12.734v-1z" fill="#fff"/></g><defs><filter id="filter0_d" x=".972" y=".139" width="50.996" height="39.052" filterUnits="userSpaceOnUse" color-interpolation-filters="sRGB"><feFlood flood-opacity="0" result="BackgroundImageFix"/><feColorMatrix in="SourceAlpha" values="0 0 0 0 0 0 0 0 0 0 0 0 0 0 0 0 0 0 127 0"/><feOffset dy="4"/><feGaussianBlur stdDeviation="2"/><feColorMatrix values="0 0 0 0 0 0 0 0 0 0 0 0 0 0 0 0 0 0 0.25 0"/><feBlend in2="BackgroundImageFix" result="effect1_dropShadow"/><feBlend in="SourceGraphic" in2="effect1_dropShadow" result="shape"/></filter></defs></svg>