<svg width="46" height="32" fill="none" xmlns="http://www.w3.org/2000/svg"><path d="M45.048.278H1.063C.63.278.278.577.278.946V30.36c0 .37.352.669.785.669h43.985c.433 0 .785-.299.785-.669V.946c0-.37-.352-.668-.785-.668zm-.785 29.413H1.849V1.615h42.414V29.69z" fill="#fff"/><path d="M12.845 15.172c2.412 0 4.374-1.854 4.374-4.132 0-2.28-1.962-4.135-4.374-4.135S8.47 8.76 8.47 11.04s1.962 4.133 4.374 4.133zm0-6.782c1.546 0 2.803 1.189 2.803 2.649s-1.257 2.649-2.803 2.649-2.803-1.189-2.803-2.648c0-1.46 1.257-2.65 2.803-2.65zM5.776 28.43a.81.81 0 0 0 .518-.184l12.813-10.66L27.2 25.23c.307.29.803.29 1.11 0a.713.713 0 0 0 0-1.05l-3.775-3.567 7.211-7.463 8.845 7.663a.818.818 0 0 0 1.11-.047.714.714 0 0 0-.049-1.048l-9.425-8.165a.838.838 0 0 0-.566-.194.807.807 0 0 0-.545.24l-7.692 7.963-3.726-3.52a.82.82 0 0 0-1.074-.033L5.257 27.13a.714.714 0 0 0-.07 1.049.804.804 0 0 0 .59.251z" fill="#fff"/></svg>