<svg width="45" height="32" fill="none" xmlns="http://www.w3.org/2000/svg"><g clip-path="url(#clip0)" fill="#FEF3F3"><path d="M22.252 17.01h.211c1.932-.032 3.494-.695 4.648-1.961 2.538-2.791 2.116-7.575 2.07-8.032-.165-3.427-1.826-5.067-3.197-5.832-1.022-.572-2.215-.881-3.547-.907h-.112c-.732 0-2.169.116-3.547.881-1.384.765-3.072 2.405-3.237 5.858-.046.457-.468 5.241 2.07 8.032 1.147 1.267 2.71 1.929 4.641 1.961zm-4.95-9.832c0-.02.006-.039.006-.051.218-4.61 3.573-5.106 5.01-5.106h.079c1.78.039 4.806.746 5.01 5.106 0 .019 0 .038.007.051.007.045.468 4.418-1.628 6.72-.83.913-1.938 1.363-3.395 1.376h-.066c-1.45-.013-2.564-.463-3.389-1.376-2.09-2.29-1.641-6.681-1.634-6.72z"/><path d="M35.905 24.945v-.02c0-.05-.006-.102-.006-.16-.04-1.273-.126-4.25-2.987-5.202l-.066-.02c-2.973-.739-5.445-2.41-5.471-2.43a.903.903 0 0 0-1.24.212.854.854 0 0 0 .218 1.209c.112.077 2.736 1.858 6.019 2.681 1.536.534 1.707 2.135 1.753 3.601 0 .058 0 .11.007.161.006.579-.033 1.473-.139 1.987-1.068.592-5.254 2.637-11.622 2.637-6.342 0-10.554-2.052-11.629-2.643-.105-.515-.151-1.409-.138-1.987 0-.052.006-.103.006-.161.046-1.466.218-3.067 1.754-3.601 3.283-.823 5.907-2.61 6.019-2.681a.854.854 0 0 0 .217-1.21.903.903 0 0 0-1.24-.212c-.026.02-2.484 1.692-5.47 2.431a.805.805 0 0 0-.067.02c-2.86.958-2.946 3.935-2.986 5.202 0 .057 0 .109-.007.16v.02c-.006.334-.013 2.05.337 2.913a.83.83 0 0 0 .342.405c.198.128 4.938 3.073 12.869 3.073 7.93 0 12.67-2.951 12.868-3.073a.866.866 0 0 0 .343-.405c.33-.856.323-2.573.316-2.907z"/></g><path d="M30.826 9.24a.5.5 0 0 0 0 .708l3.182 3.181a.5.5 0 1 0 .707-.707l-2.829-2.828 2.829-2.828a.5.5 0 1 0-.707-.708L30.826 9.24zm13.46-.146H31.18v1h13.108v-1zm-31.116.854a.5.5 0 0 0 0-.708L9.99 6.058a.5.5 0 0 0-.707.708l2.828 2.828-2.828 2.828a.5.5 0 1 0 .707.707l3.182-3.181zm-13.087.146h12.734v-1H.083v1z" fill="#fff"/><defs><clipPath id="clip0"><path fill="#fff" transform="translate(6.45 .278)" d="M0 0h31.834v31.052H0z"/></clipPath></defs></svg>