<svg width="53" height="53" fill="none" xmlns="http://www.w3.org/2000/svg"><g filter="url(#filter0_b)"><circle cx="26.13" cy="26.87" r="26.13" fill="#fff" fill-opacity=".1"/></g><g clip-path="url(#clip0)" fill="#fff"><path d="M30.688 15.547h-9.986c-3.25 0-5.895 2.75-5.895 6.13v10.386c0 3.38 2.644 6.13 5.894 6.13h9.987c3.25 0 5.894-2.75 5.894-6.13V21.677c0-3.38-2.644-6.13-5.894-6.13zm4.618 16.516c0 2.648-2.072 4.802-4.618 4.802h-9.986c-2.547 0-4.618-2.154-4.618-4.802V21.677c0-2.648 2.071-4.803 4.617-4.803h9.987c2.546 0 4.618 2.155 4.618 4.803v10.386z"/><path d="M25.695 20.678c-3.283 0-5.954 2.777-5.954 6.192 0 3.414 2.67 6.192 5.954 6.192 3.283 0 5.954-2.778 5.954-6.192 0-3.415-2.671-6.192-5.954-6.192zm0 11.056c-2.58 0-4.678-2.182-4.678-4.864s2.099-4.865 4.678-4.865c2.579 0 4.677 2.183 4.677 4.865 0 2.682-2.098 4.864-4.677 4.864zm6.096-13.255c-.97 0-1.76.82-1.76 1.83 0 1.008.79 1.83 1.76 1.83s1.76-.822 1.76-1.83c0-1.01-.79-1.83-1.76-1.83z"/></g><defs><filter id="filter0_b" x="-2" y="-1.26" width="56.261" height="56.261" filterUnits="userSpaceOnUse" color-interpolation-filters="sRGB"><feFlood flood-opacity="0" result="BackgroundImageFix"/><feGaussianBlur in="BackgroundImage" stdDeviation="1"/><feComposite in2="SourceAlpha" operator="in" result="effect1_backgroundBlur"/><feBlend in="SourceGraphic" in2="effect1_backgroundBlur" result="shape"/></filter><clipPath id="clip0"><path fill="#fff" transform="translate(14.807 15.547)" d="M0 0h21.775v22.646H0z"/></clipPath></defs></svg>