<svg width="30" height="20" fill="none" xmlns="http://www.w3.org/2000/svg"><path d="M28.08 0H1.206C.54 0 0 .574 0 1.281v17.438C0 19.426.54 20 1.207 20h26.872c.666 0 1.207-.573 1.207-1.281V1.281c0-.707-.54-1.281-1.207-1.281zM1.206 1.006h26.872c.114 0 .213.08.247.195l-13.683 9.074L.96 1.201a.261.261 0 0 1 .247-.195zm-.26 1.341l9.843 6.526-9.842 8.29V2.347zm27.391 16.365c0 .152-.116.275-.259.275H1.207a.268.268 0 0 1-.26-.275v-.268L11.643 9.47l2.748 1.824a.45.45 0 0 0 .505 0l2.748-1.824 10.695 8.974v.268zm0-1.549L18.471 8.9l9.867-6.492v14.755z" fill="#fff"/></svg>