<svg width="27" height="27" fill="none" xmlns="http://www.w3.org/2000/svg"><path d="M25.813 21.858l-5.78-5.764a.694.694 0 0 0-.3-.174l-4.256-1.18a.69.69 0 0 0-.675.18.686.686 0 0 0-.163.679l1.26 4.15c.032.106.09.206.174.285l5.79 5.774a2.776 2.776 0 0 0 1.978.818c.749 0 1.45-.29 1.978-.818a2.806 2.806 0 0 0-.006-3.95zm-4.419 1.55l-4.234-4.223-.85-2.795 2.885.801L23.41 21.4l-2.015 2.009zm3.45 1.435a1.416 1.416 0 0 1-1.008.417c-.38 0-.738-.148-1.007-.417l-.464-.464 2.014-2.014.464.464c.269.269.417.627.417 1.007 0 .38-.148.738-.417 1.007z" fill="#fff"/><path d="M14.818 22.881a.695.695 0 0 0-.221-.474.707.707 0 0 0-.49-.18c-.201.011-.407.011-.602.011-1.745 0-3.422-.327-4.994-.965a.678.678 0 0 0-.527.005L2.34 23.657l1.973-4.673a.695.695 0 0 0-.122-.722c-1.603-1.804-2.452-3.96-2.452-6.25C1.74 6.35 7.014 1.74 13.5 1.74s11.76 4.61 11.76 10.273c0 1.355-.333 2.71-.986 4.029a.686.686 0 0 0 .833.954.677.677 0 0 0 .395-.348c.75-1.513 1.123-3.069 1.123-4.635C26.631 5.595 20.74.369 13.5.369S.37 5.595.37 12.013c0 2.405.822 4.71 2.377 6.66l.138.174-2.463 5.827a.671.671 0 0 0 .147.75.698.698 0 0 0 .754.148l6.935-2.928.137.053a14.583 14.583 0 0 0 5.77.896.673.673 0 0 0 .474-.221.698.698 0 0 0 .18-.49z" fill="#fff"/><path d="M18.193 12.393a.686.686 0 1 0 0-1.372.686.686 0 0 0 0 1.372zm-4.746 0a.686.686 0 1 0 0-1.372.686.686 0 0 0 0 1.372zm-4.746 0a.686.686 0 1 0 0-1.372.686.686 0 0 0 0 1.372z" fill="#fff"/></svg>