<svg width="26" height="30" fill="none" xmlns="http://www.w3.org/2000/svg"><path fill-rule="evenodd" clip-rule="evenodd" d="M23.055 1.95a.982.982 0 0 0-.982-.982h-.497a.484.484 0 0 1-.485-.484.484.484 0 0 0-.484-.484H17.65a.484.484 0 0 0-.484.484.484.484 0 0 1-.485.484h-.497a.982.982 0 0 0-.982.982v.47c0 .802.66 1.453 1.473 1.453h.112c.403 0 .76.233 1.066.494.134.114.284.21.446.285.19.087.334.265.334.473a.457.457 0 0 1-.314.435l-4.29 1.411c-.392.13-.79-.27-.79-.683V4.836c0-1.598-1.32-2.905-2.945-2.905-1.621 0-2.946 1.301-2.946 2.905v1.452c0 .413-.398.812-.79.683L1.76 5.391a1.333 1.333 0 0 0-.424-.066A1.322 1.322 0 0 0 0 6.636v.152c0 .454.245.882.634 1.12L2.531 9.06a8 8 0 0 1 3.845 6.836v10.22a.98.98 0 0 1-.98.98.98.98 0 0 0-.978.979v.473c0 .802.65 1.452 1.452 1.452h11.827a2.418 2.418 0 0 0 2.418-2.418V26.39c0-.678-.55-1.227-1.227-1.227-.678 0-1.227-.55-1.227-1.227v-2.999c0-.5-.154-.978-.445-1.387l-2.17-3.062a4.462 4.462 0 0 1-.821-2.58V12.64c0-.772.403-1.489 1.064-1.889l2.83-1.715a.345.345 0 1 1 .178.64h-.152a.484.484 0 1 0 0 .969h1.977a.484.484 0 1 0-.004-.969.494.494 0 0 1-.494-.49V8.53c0-.253.132-.487.348-.619.393-.237.634-.665.634-1.12v-.156c0-.5-.287-.932-.705-1.154-.156-.084-.277-.234-.277-.41 0-.18.124-.334.29-.405.178-.077.342-.179.488-.302.309-.26.667-.497 1.072-.497h.108c.813 0 1.473-.65 1.473-1.452V1.95zM4.903 1.452h.498a.484.484 0 0 1 0 .969h-.013a.484.484 0 0 0-.485.484.484.484 0 0 1-.484.484h-.013a.484.484 0 0 1-.484-.484.488.488 0 0 0-.489-.484.484.484 0 0 1-.004-.968h.498V.974a.49.49 0 0 1 .982 0v.477h-.982v.478a.49.49 0 0 0 .982 0v-.478h-.006zM2.945 13.066h.498a.484.484 0 1 1 0 .968h-.498v.478a.49.49 0 1 1-.982 0v-.478h.982v-.968h-.982v.968h-.497a.484.484 0 0 1 0-.968h.497v-.477a.49.49 0 1 1 .982 0v.477zm22.073-6.293h.498a.484.484 0 1 1 0 .968h-.498v.477a.49.49 0 0 1-.981 0v-.477h.981v-.968h-.981v.968h-.498a.484.484 0 1 1 0-.968h.498v-.478a.49.49 0 1 1 .981 0v.478zm-8.34-3.868a.484.484 0 1 1-.007-.968h.015a.484.484 0 1 1 0 .968h-.007zM8.34 4.836c0-1.069.88-1.936 1.964-1.936s1.963.867 1.963 1.936v1.452c0 1.07-.88 1.937-1.963 1.937-1.084 0-1.964-.867-1.964-1.937V4.836zm2.412 8.318a.451.451 0 1 1-.897 0l.398-3.915a.05.05 0 0 1 .101 0l.398 3.915zm8.382 15.878H5.878a.484.484 0 0 1 0-.968h6.397a.968.968 0 0 0 .968-.969c0-.534.433-.968.968-.968h3.465c.802 0 1.452.65 1.452 1.452v1.448c0 .002.002.005.005.005zm-5.4-4.61a.736.736 0 0 1-.736.737.736.736 0 0 0-.736.736v.232c0 .535-.44.968-.975.968a.988.988 0 0 1-.988-.981v-8.045c0-.142.214-.217.301-.101l2.621 3.323c.333.421.514.942.514 1.48v1.652zm5.896-17.63a.005.005 0 0 0-.005.006.358.358 0 0 1-.169.292l-3.601 2.186a5.415 5.415 0 0 0-1.606 7.765l2.17 3.055c.174.247.266.534.266.832v3.244a.982.982 0 0 1-1.964 0v-1.658c0-.593-.199-1.169-.566-1.634l-2.772-3.517a1.156 1.156 0 0 0-.91-.44c-.634 0-1.15.51-1.15 1.136v8.044a.982.982 0 1 1-1.964 0V15.357A8 8 0 0 0 3.5 8.512L1.15 7.09a.35.35 0 0 1-.168-.297v-.157c0-.232.245-.403.465-.332L8.501 8.62c.076.025.146.06.213.103.32.2.55.544.512.92l-.342 3.396a1.432 1.432 0 1 0 2.848 0l-.342-3.395c-.038-.375.192-.717.51-.92a.96.96 0 0 1 .215-.104l7.054-2.317c.22-.071.465.1.465.332v.152a.005.005 0 0 1-.005.005zm.486-3.887c0 .534-.44.968-.982.968a.975.975 0 0 1-.982-.968V1.95a.982.982 0 0 1 1.964 0v.955zm1.963-.484c0 .267-.22.484-.49.484h-.007a.484.484 0 1 1 0-.969h.013c.267 0 .484.217.484.485z" fill="#F2994A"/></svg>