<svg width="30" height="29" fill="none" xmlns="http://www.w3.org/2000/svg"><path fill-rule="evenodd" clip-rule="evenodd" d="M18.325 17.828c2.713-1.084 4.478-3.7 4.43-6.583 0-3.962-3.481-7.19-7.758-7.19-4.276 0-7.758 3.222-7.758 7.19-.042 2.882 1.717 5.5 4.436 6.583.038.021.07.051.093.088l.372.604.001.004a.006.006 0 0 1-.003.005 1.494 1.494 0 0 0-.359 2.316c.001.001.002 0 .002.003 0 .001 0 .005-.002.006-.57.62-.527 1.578.103 2.146a1.58 1.58 0 0 0 1.049.396h4.138a1.533 1.533 0 0 0 1.553-1.512c0-.38-.142-.744-.401-1.025-.001-.001-.002 0-.002-.002s0-.006.002-.007a1.491 1.491 0 0 0-.097-2.13 1.63 1.63 0 0 0-.262-.191c-.002-.001-.003-.001-.003-.003v-.006l.373-.604a.245.245 0 0 1 .093-.088zm2.39 9.608l8.797-.459a.511.511 0 0 0 .487-.537.514.514 0 0 0-.546-.48l-8.796.46a.511.511 0 0 0-.488.536c.016.282.26.496.546.48zm-10.884-.48a.511.511 0 0 0-.488-.536l-8.796-.454a.517.517 0 0 0-.546.48.515.515 0 0 0 .487.537l8.797.453a.513.513 0 0 0 .546-.48zm20.168-3.05a.518.518 0 0 1-.514.512c-6.025.067-10.519 1.319-11.939 2.684a.509.509 0 0 0 .36.876H29.48c.286 0 .52.23.52.511a.516.516 0 0 1-.52.511H.52a.516.516 0 0 1-.52-.51c0-.282.234-.512.52-.512h11.573a.508.508 0 0 0 .36-.876c-1.42-1.365-5.913-2.617-11.938-2.684A.518.518 0 0 1 0 23.907c0-.282.233-.511.524-.511 6.29.078 12.771 1.533 13.391 4.186a.52.52 0 0 0 .509.391h1.15a.52.52 0 0 0 .509-.39c.62-2.65 7.106-4.109 13.39-4.187a.514.514 0 0 1 .525.51zM15.003 3.045c.286 0 .519-.27.519-.61V.61c0-.334-.233-.61-.52-.61-.286 0-.519.271-.519.61v1.824c0 .334.233.61.52.61zm10.858 15.77a.524.524 0 0 1-.695.23l-2.178-1.07a.508.508 0 0 1-.233-.682.524.524 0 0 1 .695-.23l2.177 1.069c.26.13.36.433.234.683zm-21.027.23a.52.52 0 0 1-.695-.23.503.503 0 0 1 .234-.683l2.178-1.069a.52.52 0 0 1 .694.23.503.503 0 0 1-.233.682l-2.178 1.07zm20.512-7.351h2.067c.286 0 .52-.23.52-.511a.516.516 0 0 0-.52-.511h-2.067a.516.516 0 0 0-.519.51c0 .282.233.512.52.512zm-22.76 0h2.067c.287 0 .52-.23.52-.511a.516.516 0 0 0-.52-.511H2.587c-.286 0-.52.23-.52.51a.52.52 0 0 0 .52.512zm20.636-5.5a.518.518 0 0 1-.652-.323.506.506 0 0 1 .328-.641l2.31-.756a.518.518 0 0 1 .653.323.506.506 0 0 1-.329.641l-2.31.756zm-15.983-.1a.524.524 0 0 1-.694.23l-2.178-1.07a.508.508 0 0 1-.233-.682.524.524 0 0 1 .694-.23l2.178 1.07c.26.124.366.432.233.682zm9.83 16.28h-4.117c-.276 0-.52-.203-.535-.48a.515.515 0 0 1 .514-.541h4.117c.276 0 .52.203.535.48a.51.51 0 0 1-.514.541zm0-2.033h-4.117c-.276 0-.52-.203-.535-.48a.515.515 0 0 1 .514-.542h4.117c.276 0 .52.204.535.48a.51.51 0 0 1-.514.542zm.79-3.42l-.207.11a.503.503 0 0 0-.196.182l-.556.9a.4.4 0 0 1-.34.19s-.005 0-.005-.005v-2.152a4.07 4.07 0 0 1 1.216-2.902l1.215-1.195a.006.006 0 0 0 .002-.004l-.002-.005-.723-.71a.006.006 0 0 0-.004-.002c-.002 0-.003 0-.005.002l-2.584 2.542a.51.51 0 0 0-.153.36v4.067c0 .001-.002.004-.006.004h-1.027c-.002 0-.006 0-.006-.005v-4.066a.489.489 0 0 0-.154-.36L11.74 11.33a.007.007 0 0 0-.004-.002c-.002 0-.004 0-.005.002l-.722.71a.006.006 0 0 0-.002.005c0 .001 0 .003.002.004l1.214 1.195a4.071 4.071 0 0 1 1.216 2.902v2.151c0 .002 0 .006-.005.006a.4.4 0 0 1-.34-.19l-.555-.9a.503.503 0 0 0-.197-.182l-.206-.11c-.016-.01-.032-.015-.053-.026-2.337-.928-3.858-3.174-3.816-5.65 0-3.405 3.016-6.168 6.725-6.168 3.71 0 6.725 2.769 6.725 6.168.037 2.464-1.459 4.698-3.77 5.632a.52.52 0 0 0-.088.044z" fill="#fff"/></svg>