<svg width="27" height="27" fill="none" xmlns="http://www.w3.org/2000/svg"><path d="M10.446 20.525h-6.17a.61.61 0 1 0 0 1.222h6.17a.61.61 0 1 0 0-1.222zm9.224 0H13.5a.61.61 0 1 0 0 1.222h6.17a.61.61 0 0 0 0-1.222zm0-15.272H4.276a.61.61 0 1 0 0 1.222H19.67a.61.61 0 0 0 0-1.222zm0 3.055H13.5a.61.61 0 1 0 0 1.221h6.17a.61.61 0 0 0 0-1.221zm0 3.054H13.5a.61.61 0 1 0 0 1.222h6.17a.61.61 0 0 0 0-1.222zm0 3.054H13.5a.61.61 0 1 0 0 1.222h6.17a.61.61 0 0 0 0-1.222zm0 3.054H13.5a.61.61 0 1 0 0 1.222h6.17a.61.61 0 0 0 0-1.221zm-9.224 0h-6.17a.61.61 0 1 0 0 1.222h6.17a.61.61 0 1 0 0-1.221zm0-9.162h-6.17a.61.61 0 0 0-.61.61v6.17a.61.61 0 0 0 .61.611h6.17a.61.61 0 0 0 .61-.61v-6.17a.61.61 0 0 0-.61-.611zm-.611 6.17H4.887v-4.95h4.948v4.948z" fill="#fff"/><path d="M25.778 4.643h-1.832V2.81c0-.674-.548-1.222-1.222-1.222H1.222C.548 1.588 0 2.136 0 2.81v19.547a3.058 3.058 0 0 0 3.054 3.055h20.892A3.058 3.058 0 0 0 27 22.358V5.864c0-.673-.548-1.221-1.222-1.221zm0 17.715c0 1.01-.822 1.832-1.832 1.832H3.054a1.835 1.835 0 0 1-1.832-1.832V2.81h21.502v18.63c0 .842.685 1.527 1.527 1.527a.61.61 0 0 0 0-1.221.306.306 0 0 1-.305-.306V5.864h1.832v16.494z" fill="#fff"/></svg>