<svg width="36" height="36" fill="none" xmlns="http://www.w3.org/2000/svg"><path d="M33.664 13.947l-2.478-.42a13.992 13.992 0 0 0-.995-2.405l1.46-2.043c.62-.87.524-2.058-.236-2.81l-2.198-2.198a2.165 2.165 0 0 0-2.802-.236l-2.05 1.46c-.797-.42-1.63-.767-2.494-1.025l-.413-2.448A2.179 2.179 0 0 0 19.305 0H16.2c-1.07 0-1.977.767-2.154 1.822l-.428 2.507c-.825.258-1.63.598-2.396 1.01L9.193 3.88a2.165 2.165 0 0 0-1.268-.405c-.583 0-1.136.228-1.542.641L4.178 6.313a2.183 2.183 0 0 0-.236 2.81l1.475 2.073c-.405.774-.73 1.578-.98 2.411l-2.45.413a2.179 2.179 0 0 0-1.821 2.154v3.105c0 1.07.767 1.977 1.822 2.154l2.507.427c.258.826.598 1.63 1.01 2.397l-1.452 2.021c-.62.87-.524 2.058.236 2.81l2.198 2.198a2.165 2.165 0 0 0 2.802.236l2.073-1.475c.745.39 1.526.708 2.33.959l.413 2.478a2.179 2.179 0 0 0 2.154 1.821h3.112c1.07 0 1.977-.767 2.154-1.821l.42-2.478a14.01 14.01 0 0 0 2.404-.996l2.043 1.46c.37.266.812.406 1.269.406.583 0 1.128-.229 1.541-.642l2.198-2.198c.753-.752.856-1.94.236-2.81l-1.46-2.05a13.87 13.87 0 0 0 .996-2.404l2.478-.413a2.179 2.179 0 0 0 1.821-2.154V16.1a2.153 2.153 0 0 0-1.807-2.153zm-.17 5.258a.191.191 0 0 1-.161.192l-3.098.516a.99.99 0 0 0-.797.73 11.807 11.807 0 0 1-1.283 3.09 1 1 0 0 0 .044 1.085l1.822 2.566a.2.2 0 0 1-.022.251L27.8 29.833a.187.187 0 0 1-.14.059.18.18 0 0 1-.11-.037l-2.56-1.822a.996.996 0 0 0-1.084-.044 11.807 11.807 0 0 1-3.09 1.283.979.979 0 0 0-.73.797l-.524 3.098a.19.19 0 0 1-.192.162h-3.105a.191.191 0 0 1-.192-.163l-.516-3.097a.99.99 0 0 0-.73-.797 12.263 12.263 0 0 1-3.024-1.239 1.021 1.021 0 0 0-.501-.132c-.2 0-.406.059-.576.184l-2.581 1.836a.22.22 0 0 1-.11.037.198.198 0 0 1-.14-.059l-2.199-2.198a.2.2 0 0 1-.022-.25l1.815-2.545a1.01 1.01 0 0 0 .044-1.091 11.695 11.695 0 0 1-1.298-3.083 1.01 1.01 0 0 0-.797-.73l-3.12-.531a.191.191 0 0 1-.162-.192v-3.105c0-.096.067-.177.163-.192l3.075-.516a.997.997 0 0 0 .804-.738 11.794 11.794 0 0 1 1.261-3.097c.2-.34.177-.76-.051-1.077L5.572 7.973a.2.2 0 0 1 .022-.251l2.198-2.198a.187.187 0 0 1 .14-.059.18.18 0 0 1 .11.037l2.545 1.814a1.01 1.01 0 0 0 1.092.045 11.696 11.696 0 0 1 3.083-1.299 1.01 1.01 0 0 0 .73-.796l.53-3.12a.191.191 0 0 1 .193-.162h3.105a.19.19 0 0 1 .191.162l.517 3.076c.066.39.354.708.737.804a11.97 11.97 0 0 1 3.164 1.298c.34.199.76.184 1.084-.045l2.545-1.829a.22.22 0 0 1 .11-.037c.03 0 .089.008.14.06l2.198 2.197a.2.2 0 0 1 .022.251l-1.821 2.56a.997.997 0 0 0-.044 1.083 11.808 11.808 0 0 1 1.283 3.09.979.979 0 0 0 .796.73l3.098.524a.191.191 0 0 1 .162.192v3.105h-.007z" fill="#fff"/><path d="M17.823 10.03a7.623 7.623 0 0 0-7.62 7.618 7.623 7.623 0 0 0 7.62 7.618 7.623 7.623 0 0 0 7.618-7.618 7.623 7.623 0 0 0-7.618-7.619zm0 13.245a5.631 5.631 0 0 1-5.628-5.627 5.631 5.631 0 0 1 5.628-5.628 5.631 5.631 0 0 1 5.627 5.628 5.631 5.631 0 0 1-5.627 5.627z" fill="#fff"/></svg>