<svg width="56" height="35" fill="none" xmlns="http://www.w3.org/2000/svg"><path fill-rule="evenodd" clip-rule="evenodd" d="M13.399 10.37l1.143-1.503a.416.416 0 0 1 .218-.208c.109-.052.163-.103.272-.103h.327c.108 0 .163.051.272.103l1.034.726v-.26c0-.103 0-.258.055-.362L13.29 6.43c-.925 1.244-1.796 2.489-2.722 3.733l6.696 4.407-.109-.881-3.484-2.333a.416.416 0 0 1-.218-.208c-.054-.104-.108-.155-.108-.26v-.258c-.055-.052 0-.156.054-.26zm22.917-6.74c.218.207.381.414.545.622.163.207.326.467.49.674.163.207.272.467.435.726.109.26.272.518.327.726.109.259.218.518.272.778.054.259.163.518.218.777 0 .104.054.208.054.311v.052l2.994-2.074v-.207c0-.052.054-.156.054-.208l.164-.155.98-.674c.054-.052.109-.052.217-.104h.218c.055 0 .163.052.218.052l.054.052c.381-.26.708-.519 1.035-.778.326-.311.653-.622.98-.985.326-.363.598-.726.87-1.14.273-.416.49-.779.708-1.194l.109-.207C49.98.414 52.702.207 55.368 0c-1.142 2.333-2.285 4.719-3.483 7.052h-.218c-.49.052-.98.104-1.415.207a14.5 14.5 0 0 0-1.416.363c-.435.156-.87.311-1.306.519l-1.143.622v.311c0 .052-.054.104-.054.156l-.164.155-.98.674c-.054.052-.108.052-.217.104h-.218c-.055 0-.109 0-.163-.052l-6.37 4.045-.163 1.555c-.054.57-.109 1.089-.109 1.66-.054.725-.054 1.451-.054 2.229s0 1.556.054 2.385l8.601 5.808-.326.466 2.34 1.867c.055.052.218.155.218.207.163.156.272.311.381.519.109.207.164.415.164.622 0 .207 0 .415-.055.622a1.874 1.874 0 0 1-.272.57 3.408 3.408 0 0 1-.436.467 2.063 2.063 0 0 1-.598.26c-.218.051-.436.103-.654.051-.217 0-.435-.051-.653-.155-.054 0-.109-.052-.163-.052l-.055-.052-.054-.052-2.613-1.452-.544.726-5.226-3.422a4.288 4.288 0 0 1-.49 1.14 5.87 5.87 0 0 1-.817 1.194c-.544.674-1.252 1.296-2.014 1.814-.816.519-1.687.934-2.667 1.245-.327.103-.653.207-1.034.259-.327.104-.708.156-1.089.207-.381.052-.708.104-1.089.104-.38.052-.762.052-1.088.052-.382 0-.763 0-1.09-.052-.38-.052-.707-.052-1.088-.104a8.043 8.043 0 0 1-1.089-.207c-.326-.104-.707-.156-1.034-.26-.98-.31-1.85-.725-2.667-1.244-.762-.518-1.47-1.089-2.014-1.815a8.085 8.085 0 0 1-1.089-1.866 9.082 9.082 0 0 1-.49-1.919l-8.437 5.393a2.063 2.063 0 0 1-.6.26 1.392 1.392 0 0 1-.653 0c-.217-.053-.435-.105-.598-.208-.164-.104-.327-.26-.49-.415a1.876 1.876 0 0 1-.272-.57 1.206 1.206 0 0 1 0-.623c.054-.207.108-.414.217-.57.11-.156.273-.311.436-.467l10.615-7.414c.054-1.09.109-2.075.109-2.956a43 43 0 0 0-.11-2.696c0-.311-.054-.623-.054-.985 0-.312-.054-.623-.054-.882L9.48 10.318a6.64 6.64 0 0 0-.871-.414c-.273-.104-.6-.26-.871-.363-.327-.104-.6-.208-.926-.311a5.935 5.935 0 0 0-.925-.208h-.055C4.744 7.57 3.601 6.12 2.512 4.667l.109-.156-.218.052-1.47-2.126.272-.363c-.326-.311-.653-.57-.98-.881C.118 1.089.118.933.118.83.117.674.17.57.226.415.334.31.443.207.606.155a.486.486 0 0 1 .382 0c.38.208.816.364 1.197.57l.272-.362 2.559.57.054.208.11-.156c1.796.519 3.646.985 5.443 1.504l.054.052c.164.259.327.518.545.726.163.259.38.466.598.726.218.207.436.466.654.674.217.207.435.414.707.622l3.539 2.385c.054-.26.108-.518.217-.778.11-.259.164-.518.327-.83.109-.259.218-.518.381-.777.163-.26.272-.519.435-.726a3.34 3.34 0 0 1 .545-.674 6.06 6.06 0 0 1 .599-.622l.163-.156c.435-.415.98-.778 1.578-1.037.6-.311 1.307-.57 2.015-.778A16.922 16.922 0 0 1 25.32.83a19.646 19.646 0 0 1 2.504-.156c.817 0 1.688.052 2.504.207.817.104 1.58.312 2.287.519.707.207 1.36.519 1.96.83.163.103.272.155.435.259l-.11-.209.163.26c.381.259.708.518 1.035.83l.217.259zm2.504 5.703v.415h.055l-.055.57c0 .26-.054.519-.108.778l-.273 2.126 5.662-3.578-1.906-2.592-3.375 2.281zm-.87 13.897l.054.466c0 .26.054.519.054.83 0 .104 0 .26.055.363l.109.674c0 .104.054.207.054.311v.83c0 .31 0 .57-.054.881 0 .26-.055.467-.11.726l2.886 1.919 2.395-3.267-5.444-3.733zM17.1 26.86v-.935c0-.207.055-.415.11-.622.054-.26.108-.519.108-.83v-.104l-10.016 7c-.109.052-.163.156-.218.208-.054.104-.108.155-.108.259v.311a.39.39 0 0 0 .108.26c.055.103.164.155.218.207.11.052.164.103.272.103h.327a.427.427 0 0 0 .272-.103l8.928-5.756zm-.326-15.349l-.49.674-2.123-1.4.98-1.296 1.47.985c0 .207.054.415.109.674l.054.363zm11.377-7.415l.109.052c.109 0 .163.052.218.104.108.052.163.104.272.155a.416.416 0 0 1 .218.208c.108.104.163.155.217.26l.164.31c.054.104.054.208.108.311 0 .104.055.208.055.363v2.697c0 .103 0 .207-.055.363 0 .103-.054.207-.108.31l-.164.312c-.054.103-.163.207-.217.259l-.218.207c-.109.052-.163.104-.272.156-.055.052-.164.052-.218.104l-.109.052v7.051c0 .052 0 .104-.054.156 0 .052-.055.104-.11.155-.054.052-.108.052-.163.104-.054 0-.109.052-.163.052-.054 0-.109 0-.163-.052-.055 0-.11-.052-.164-.104-.054-.051-.054-.103-.108-.155 0-.052-.055-.104-.055-.156v-7.052l-.109-.051a.421.421 0 0 1-.217-.104c-.11-.052-.164-.104-.273-.156a.749.749 0 0 0-.217-.155L26.3 9.8a.93.93 0 0 1-.218-.26l-.163-.31c-.054-.104-.054-.208-.109-.311 0-.104-.054-.208-.054-.363V5.859c0-.103 0-.207.054-.363 0-.103.055-.207.11-.31l.162-.312c.055-.104.164-.207.218-.26l.218-.207c.109-.051.163-.103.272-.155.055-.052.163-.052.218-.104.054 0 .054 0 .109-.052V1.97c-.218 0-.49 0-.708.052a4.4 4.4 0 0 0-.816.104l-.817.155a18.49 18.49 0 0 0-.762.156c-.272.104-.599.156-.871.26a5.654 5.654 0 0 0-.817.362l-.816.467a9.356 9.356 0 0 0-.762.622l-.436.415c-.109.156-.272.311-.38.467-.11.155-.218.31-.327.466-.11.156-.164.311-.273.519-.054.155-.163.363-.217.57l-.164.622c-.054.208-.054.467-.108.726 0 .26-.055.519-.055.778v1.245c0 .155 0 .259.055.414 0 .156.054.312.054.415 0 .156.054.311.054.415 0 .104.055.26.055.415l.054.415.164.777c.054.26.108.519.163.726.054.26.109.519.163.726l.163.726c.273 1.14.545 2.23.708 3.422.109.57.163 1.193.163 1.815 0 .622 0 1.245-.054 1.919 0 .207-.054.466-.054.726-.055.57-.11 1.192-.218 1.659-.055.311-.055.57-.109.881 0 .26-.054.519-.054.778v.674c0 .208.054.415.054.622.054.208.109.363.163.57.055.208.11.364.218.571.109.208.163.363.327.519.108.155.272.363.38.57.164.208.327.415.545.57.218.208.436.363.653.519.218.156.49.311.762.467.273.155.545.259.871.363.436.155.98.259 1.579.363a11.98 11.98 0 0 0 1.96.155c.653 0 1.36-.052 1.96-.155.598-.104 1.142-.208 1.578-.363.327-.104.599-.26.871-.363.272-.156.544-.311.762-.467.218-.156.436-.363.653-.518.218-.208.381-.363.545-.57.163-.208.272-.364.38-.571.11-.156.218-.363.327-.519.11-.155.164-.363.218-.57.054-.208.109-.363.163-.57.055-.208.055-.415.055-.623v-.674c0-.26 0-.518-.055-.778 0-.259-.054-.57-.108-.881-.11-.467-.164-1.089-.218-1.66 0-.259-.055-.518-.055-.725-.163-1.348-.109-2.541.055-3.734.163-1.14.435-2.281.707-3.422.11-.466.218-.985.327-1.452.109-.518.218-.985.327-1.503l.054-.415.055-.415c0-.156.054-.26.054-.415 0-.155.054-.26.054-.415 0-.155 0-.31.055-.414V8.71c0-.26 0-.518-.055-.778 0-.259-.054-.466-.108-.726l-.164-.622a2.449 2.449 0 0 0-.218-.57 2.38 2.38 0 0 0-.272-.519l-.326-.466a2.875 2.875 0 0 0-.381-.467c-.11-.156-.273-.26-.436-.415-.272-.207-.49-.415-.762-.622a3.286 3.286 0 0 0-.816-.467c-.273-.155-.545-.259-.817-.363a5.549 5.549 0 0 0-.871-.259c-.272-.052-.544-.156-.817-.207a32.372 32.372 0 0 0-.925-.156c-.272-.052-.599-.052-.925-.104-.273 0-.49-.051-.763-.051v2.177h.436zm.218 1.037c-.055-.052-.11-.103-.163-.103-.055-.052-.11-.052-.164-.104-.054 0-.109-.052-.163-.052h-.327c-.054 0-.109.052-.163.052-.055 0-.109.052-.163.104-.055.051-.11.051-.164.103-.054.052-.109.104-.109.156-.054.052-.054.104-.108.155 0 .052-.055.104-.055.156v3.007c0 .052.055.104.055.156 0 .052.054.104.108.156.055.051.055.103.11.155.054.052.108.104.163.104.054.052.108.052.163.103.054 0 .109.052.163.052h.327c.054 0 .109-.052.163-.052.055 0 .109-.051.163-.103.055-.052.11-.052.164-.104.054-.052.109-.104.109-.155.054-.052.054-.104.108-.156 0-.052.055-.104.055-.156V5.6c0-.052-.054-.104-.054-.156 0-.051-.055-.103-.11-.155-.054-.052-.054-.052-.108-.156zm-4.41 27.43c-.326-.104-.653-.26-.98-.415a4.74 4.74 0 0 1-.87-.518c-.273-.208-.545-.415-.762-.623-.218-.207-.436-.466-.654-.674-.163-.207-.326-.414-.435-.622-.109-.207-.272-.415-.327-.622-.109-.207-.163-.415-.272-.622-.054-.208-.109-.467-.163-.674-.055-.208-.055-.467-.11-.726v-.778c0-.26 0-.57.055-.83 0-.31.055-.622.11-.933l.271-2.385c.055-.622.11-1.245.055-1.815 0-.57-.055-1.14-.163-1.711-.164-1.09-.436-2.178-.708-3.319v-.052a64.743 64.743 0 0 1-.327-1.451 2151.37 2151.37 0 0 0-.326-1.556c0-.155-.055-.311-.055-.415 0-.155-.054-.259-.054-.415 0-.155-.055-.31-.055-.466 0-.156-.054-.311-.054-.415 0-.156 0-.311-.055-.467v-1.4c0-.31 0-.57.055-.881 0-.26.054-.519.109-.778.054-.26.109-.467.163-.726l.163-.467-.054.104c-.109.208-.218.467-.327.674-.109.26-.217.467-.272.726-.054.26-.163.519-.218.726-.054.26-.109.519-.109.778 0 .26-.054.518-.054.778 0 .622.109 1.14.163 1.71.273 2.178.545 4.045.654 6.12a59.93 59.93 0 0 1 .108 3.214c0 1.14-.054 2.385-.163 3.733 0 .363-.054.623-.109.882 0 .052-.054.26-.054.311 0 .104-.055.207-.055.311v.83c0 .881.164 1.659.382 2.385.272.726.598 1.348 1.088 1.918.49.623 1.089 1.141 1.797 1.608.707.466 1.524.83 2.395 1.14.326.104.653.208.925.26.327.052.653.155.98.207.327.052.653.104 1.034.104.327 0 .708.052 1.034.052.327 0 .708 0 1.035-.052a6.98 6.98 0 0 0 1.034-.104 6.71 6.71 0 0 0 .98-.207c.326-.052.653-.156.925-.26a9.155 9.155 0 0 0 2.395-1.14c.708-.467 1.307-.985 1.797-1.608a7.452 7.452 0 0 0 1.089-1.918c.272-.726.38-1.504.38-2.385v-.83c0-.207-.054-.415-.108-.57-.055-.26-.055-.467-.11-.778a48.896 48.896 0 0 1-.162-3.785c0-1.141 0-2.23.054-3.267.109-2.074.381-3.992.653-6.17.11-.57.164-1.141.164-1.711 0-.26 0-.519-.055-.726 0-.26-.054-.467-.109-.726-.054-.26-.109-.467-.163-.726l-.055-.208c.055.208.055.363.055.57 0 .26.054.571.054.882v1.401c0 .156 0 .311-.054.467 0 .155-.055.26-.055.415 0 .155-.054.31-.054.466 0 .156-.054.312-.054.415 0 .156-.055.26-.055.415l-.163.778-.163.778c-.11.466-.218.933-.327 1.4v.051c-.272 1.141-.544 2.178-.708 3.319l-.163 1.711c0 .57 0 1.193.054 1.815l.273 2.385c.054.311.054.622.109.933 0 .311.054.57.054.83v.778c0 .26-.054.466-.109.726-.054.259-.109.466-.163.674-.055.207-.164.415-.272.622-.11.207-.218.415-.327.622-.109.208-.272.415-.435.623-.164.259-.382.466-.654.674-.218.207-.49.414-.762.622-.272.207-.599.363-.87.518a7.956 7.956 0 0 1-.98.415 9.002 9.002 0 0 1-1.797.467 13.44 13.44 0 0 1-2.069.155c-1.36.052-2.776-.155-3.865-.57zm20.196-5.133l-2.395 3.266 1.143.778 2.395-3.267-1.143-.777zM3.328 3.785l1.09-1.504-.055-.518-1.47-.363-.925 1.244.87 1.193.49-.052zM45.68 29.193l-1.524 2.074c.871.466 1.85 1.088 2.776 1.503.11.052.218.052.327.104.109 0 .218 0 .381-.052l.327-.155c.108-.052.163-.156.272-.26l.163-.31c.054-.104.054-.208.054-.364 0-.103-.054-.207-.108-.31-.055-.104-.11-.208-.218-.26-.762-.726-1.688-1.348-2.45-1.97zM5.615 2.126L3.6 4.874l2.45 3.163 3.483-4.718-3.92-1.193zM10.35 3.68l.326.467c.164.208.327.415.545.622.217.208.435.467.653.674.217.208.38.363.599.57L9.697 9.8c-.217-.104-.49-.26-.762-.363-.272-.104-.599-.26-.87-.363a7.07 7.07 0 0 0-.763-.26c-.163-.051-.38-.103-.544-.155l3.593-4.978zm35.056 5.393L43.12 5.962l-.49.311 2.286 3.111.49-.31zm8.22-7.363l-2.394 1.61c.054.155.109.259.109.414.054.208.054.363 0 .57-.055.208-.11.416-.273.623-.108.155-.272.363-.49.467-.217.155-.435.207-.653.259a1.63 1.63 0 0 1-.707 0c-.218-.052-.436-.104-.654-.26-.163-.103-.38-.259-.49-.466-.163-.207-.217-.415-.272-.622a1.41 1.41 0 0 1 0-.674c.055-.208.11-.415.273-.623.108-.207.272-.363.49-.466.217-.156.435-.208.653-.26.217-.051.49-.051.707 0 .218.052.381.104.545.208.108.052.272.155.38.26l2.396-1.608-5.444.466a8.179 8.179 0 0 1-.707 1.141 9.197 9.197 0 0 1-.871 1.14c-.327.364-.654.675-.98.986-.327.311-.653.57-1.035.83l1.797 2.489c.38-.26.762-.467 1.143-.623.435-.207.871-.414 1.306-.518.49-.156.926-.311 1.416-.415.435-.104.925-.156 1.36-.207l2.396-4.719zm-3.211 1.92l-.218-.26c-.054-.051-.108-.103-.217-.155-.055-.052-.164-.052-.272-.104h-.327c-.109 0-.218.052-.327.156-.109.052-.163.155-.218.259-.054.104-.108.207-.108.311v.311c0 .104.054.208.163.311.054.104.163.156.272.208.109.052.218.103.327.103h.326c.11 0 .218-.051.327-.155.109-.052.163-.156.218-.26.054-.103.109-.207.109-.31v-.26s0-.052-.055-.155z" fill="#F2994A"/></svg>