<svg width="40" height="46" fill="none" xmlns="http://www.w3.org/2000/svg"><path d="M37.468 16.156h-1.084v-5.233c0-.033-.005-.066-.01-.099a.869.869 0 0 0-.21-.573L27.456.303l-.007-.006a.88.88 0 0 0-.234-.183.91.91 0 0 0-.175-.073l-.048-.016A.884.884 0 0 0 26.79 0H5.387C4.41 0 3.616.795 3.616 1.771v14.385H2.532A2.531 2.531 0 0 0 0 18.686v13.165a2.532 2.532 0 0 0 2.532 2.531h1.084v9.012c0 .977.794 1.772 1.771 1.772h29.226c.976 0 1.771-.795 1.771-1.772v-9.012h1.084A2.532 2.532 0 0 0 40 31.853V18.687a2.532 2.532 0 0 0-2.532-2.532zM5.388 1.772h20.516v9.062c0 .49.396.886.885.886h7.824v4.437H5.387V1.772zM27.13 25.34c0 2.532-.922 4.278-2.2 5.358-1.391 1.157-3.51 1.707-6.1 1.707-1.55 0-2.649-.099-3.395-.196v-12.99c1.099-.177 2.532-.275 4.043-.275 2.51 0 4.14.452 5.415 1.413 1.373 1.02 2.237 2.648 2.237 4.983zM4.034 32.268v-13.05c.922-.156 2.218-.274 4.043-.274 1.844 0 3.159.353 4.041 1.06.844.667 1.412 1.766 1.412 3.061 0 1.296-.43 2.394-1.216 3.14-1.02.961-2.53 1.393-4.297 1.393-.392 0-.747-.02-1.02-.06v4.73H4.034zm30.579 10.648H5.387v-8.532h29.226v8.532zm2.566-21.421h-5.083v3.022h4.749v2.433h-4.75v5.318h-3V19.042h8.084v2.453z" fill="#323E57"/></svg>