<svg width="27" height="26" fill="none" xmlns="http://www.w3.org/2000/svg"><g clip-path="url(#clip0)" fill="#323E57"><path d="M25.21 7.197L18.8.535a.484.484 0 0 0-.35-.148H8.896c-1.069 0-1.939.87-1.939 1.939v6.772H3.084c-.8 0-1.451.65-1.451 1.45v7.262c0 .8.65 1.45 1.45 1.45h3.873v4.357a1.94 1.94 0 0 0 1.94 1.935h14.51a1.94 1.94 0 0 0 1.94-1.934V7.533a.484.484 0 0 0-.136-.336zm-6.64-5.504l5.264 5.47H18.57v-5.47zm-15.486 16.6a.483.483 0 0 1-.483-.483v-7.26c0-.267.216-.483.483-.483h13.068c.266 0 .483.216.483.482v7.262a.483.483 0 0 1-.483.483H3.084zm21.294 5.325a.97.97 0 0 1-.972.966H8.896a.97.97 0 0 1-.972-.967V19.26h8.228c.8 0 1.45-.651 1.45-1.45v-7.262c0-.8-.65-1.451-1.45-1.451H7.924V2.326c0-.536.436-.971.971-.971h8.708v6.291c0 .267.216.484.484.484h6.29v15.488z"/><path d="M7.418 12.67a1.09 1.09 0 0 0-.598-.408c-.155-.041-.488-.062-.998-.062H4.475v4.157h.84v-1.568h.546c.38 0 .67-.02.871-.06.147-.032.293-.097.435-.197.143-.099.26-.236.353-.41.093-.173.14-.388.14-.643 0-.331-.081-.6-.242-.81zM6.7 13.812a.551.551 0 0 1-.262.205c-.112.043-.333.065-.663.065h-.46v-1.18h.406c.302 0 .503.01.604.029a.58.58 0 0 1 .337.184.537.537 0 0 1 .133.374c0 .123-.031.23-.095.323zm4.994-.476a1.816 1.816 0 0 0-.397-.674 1.39 1.39 0 0 0-.626-.383c-.182-.053-.445-.079-.791-.079H8.345v4.157h1.58c.31 0 .558-.03.743-.088.248-.08.444-.19.59-.332.192-.187.34-.432.445-.734.085-.248.127-.543.127-.885 0-.39-.045-.717-.136-.982zm-.816 1.707c-.057.186-.13.32-.22.4a.775.775 0 0 1-.339.174c-.104.026-.273.04-.508.04h-.626v-2.754h.377c.342 0 .572.013.689.04a.8.8 0 0 1 .388.196.94.94 0 0 1 .239.402c.056.172.085.419.085.74 0 .322-.029.575-.085.762zm4.52-2.14V12.2h-2.85v4.157h.84V14.59h1.735v-.703h-1.736v-.984h2.01z"/></g><defs><clipPath id="clip0"><path fill="#fff" transform="translate(.907 .387)" d="M0 0h25.165v25.165H0z"/></clipPath></defs></svg>