<svg width="53" height="53" fill="none" xmlns="http://www.w3.org/2000/svg"><g filter="url(#filter0_b)"><circle cx="26.768" cy="26.13" r="26.13" fill="#fff" fill-opacity=".1"/></g><g clip-path="url(#clip0)"><path d="M26.768 13.633c-6.89 0-12.497 5.606-12.497 12.497 0 3.188 1.2 6.224 3.38 8.548a1.003 1.003 0 1 0 1.464-1.372 10.452 10.452 0 0 1-2.837-7.176c0-5.784 4.706-10.49 10.49-10.49s10.49 4.706 10.49 10.49c0 5.785-4.706 10.49-10.49 10.49a10.47 10.47 0 0 1-3-.434l1.027-4.01c.635.154 1.29.233 1.959.233 4.214 0 7.643-3.164 7.643-7.053 0-3.89-3.429-7.054-7.643-7.054-4.215 0-7.644 3.164-7.644 7.053a6.65 6.65 0 0 0 1.284 3.917 1.003 1.003 0 1 0 1.625-1.177 4.652 4.652 0 0 1-.903-2.74c0-2.782 2.53-5.047 5.638-5.047s5.637 2.265 5.637 5.047c0 2.783-2.529 5.047-5.637 5.047-.5 0-.989-.057-1.462-.17l1.405-5.49a1.003 1.003 0 0 0-1.944-.498l-3.157 12.34c-.125.49.134.997.605 1.182a12.44 12.44 0 0 0 4.567.861c6.891 0 12.497-5.606 12.497-12.497 0-6.89-5.606-12.497-12.497-12.497z" fill="#fff"/></g><defs><filter id="filter0_b" x="-1.362" y="-2" width="56.261" height="56.261" filterUnits="userSpaceOnUse" color-interpolation-filters="sRGB"><feFlood flood-opacity="0" result="BackgroundImageFix"/><feGaussianBlur in="BackgroundImage" stdDeviation="1"/><feComposite in2="SourceAlpha" operator="in" result="effect1_backgroundBlur"/><feBlend in="SourceGraphic" in2="effect1_backgroundBlur" result="shape"/></filter><clipPath id="clip0"><path fill="#fff" transform="translate(14.271 13.633)" d="M0 0h24.994v24.994H0z"/></clipPath></defs></svg>