<svg width="26" height="38" fill="none" xmlns="http://www.w3.org/2000/svg"><g opacity=".5" filter="url(#filter0_b)"><path d="M0 13c0-1.858 0-2.787.112-3.565A11 11 0 0 1 9.435.112C10.213 0 11.142 0 13 0c1.858 0 2.787 0 3.566.112a11 11 0 0 1 9.322 9.323C26 10.213 26 11.142 26 13v12c0 1.858 0 2.787-.112 3.566a11 11 0 0 1-9.323 9.322C15.787 38 14.858 38 13 38c-1.858 0-2.787 0-3.565-.112a11 11 0 0 1-9.323-9.322C0 27.785 0 26.858 0 25V13z" fill="#fff" fill-opacity=".5"/></g><circle cx="13.5" cy="13.5" r="4.5" fill="#EF811F"/><circle cx="13.5" cy="13.5" r="4.5" stroke="#000"/><defs><filter id="filter0_b" x="-30" y="-30" width="86" height="98" filterUnits="userSpaceOnUse" color-interpolation-filters="sRGB"><feFlood flood-opacity="0" result="BackgroundImageFix"/><feGaussianBlur in="BackgroundImage" stdDeviation="15"/><feComposite in2="SourceAlpha" operator="in" result="effect1_backgroundBlur"/><feBlend in="SourceGraphic" in2="effect1_backgroundBlur" result="shape"/></filter></defs></svg>