<svg width="30" height="28" fill="none" xmlns="http://www.w3.org/2000/svg"><path fill-rule="evenodd" clip-rule="evenodd" d="M11.039 22.83a2.524 2.524 0 0 0-1.81.758 2.585 2.585 0 0 0-.75 1.828c0 .348.071.685.193.987.132.318.32.604.558.84a2.51 2.51 0 0 0 1.81.757 2.523 2.523 0 0 0 1.81-.757 2.578 2.578 0 0 0 .75-1.827v-.031a2.572 2.572 0 0 0-.752-1.792 2.579 2.579 0 0 0-.83-.563 2.477 2.477 0 0 0-.979-.2zM29.681 5.359a1.775 1.775 0 0 0-.218-.22 1.264 1.264 0 0 0-.264-.163 1.384 1.384 0 0 0-.598-.139H7.856a2.944 2.944 0 0 1-2.884-2.354c-.02-.112-.06-.22-.106-.317a1.284 1.284 0 0 0-.178-.287 1.343 1.343 0 0 0-.527-.404 47.213 47.213 0 0 0-1.064-.45C2.347.717 1.57.389.907.05A.67.67 0 0 0 .41.046a.59.59 0 0 0-.212.138.61.61 0 0 0-.143.218A.598.598 0 0 0 0 .645a.67.67 0 0 0 .182.466c.112.123.284.163.44.22.539.192 1.425.61 2.155.957.355.169.67.317.893.41.009.002.016.01.018.02l3.59 17.6a1.4 1.4 0 0 0 1.369 1.126H26.39a.584.584 0 0 0 .249-.051.603.603 0 0 0 .212-.143.689.689 0 0 0 .193-.466.6.6 0 0 0-.05-.251.611.611 0 0 0-.143-.215.673.673 0 0 0-.461-.194H8.976a.505.505 0 0 1-.486-.4 1.597 1.597 0 0 1 1.568-1.919h16.47a1.392 1.392 0 0 0 .882-.317c.122-.102.228-.225.314-.363.081-.134.142-.282.173-.446L29.97 6.525c.02-.102.03-.21.03-.312a1.428 1.428 0 0 0-.147-.599 2.054 2.054 0 0 0-.172-.256zM26.305 16.5c-4.437.073-8.806.04-13.209.014a6.485 6.485 0 0 1-6.32-5.178 4.313 4.313 0 0 1 4.227-5.174h17.319c.249.015.35.256.3.46l-.28 1.372c-.582 2.82-1.104 5.415-1.682 8.24-.025.153-.086.281-.355.266zm-4.359-3.89a.68.68 0 0 1 .461.194.688.688 0 0 1 .193.467.688.688 0 0 1-.193.466.673.673 0 0 1-.461.194h-9.463a.583.583 0 0 1-.248-.051.603.603 0 0 1-.213-.144.688.688 0 0 1-.192-.465.6.6 0 0 1 .05-.251.61.61 0 0 1 .142-.215.673.673 0 0 1 .461-.194h9.463zm.578-3.884a.58.58 0 0 1 .248.051c.082.03.152.082.213.143a.689.689 0 0 1 .193.466.6.6 0 0 1-.05.251.61.61 0 0 1-.143.215.672.672 0 0 1-.461.194H11.906a.584.584 0 0 1-.249-.05.603.603 0 0 1-.213-.144.689.689 0 0 1-.192-.466.6.6 0 0 1 .05-.25.61.61 0 0 1 .143-.216.673.673 0 0 1 .461-.194h10.618zm.38 14.105a2.523 2.523 0 0 0-1.81.758 2.585 2.585 0 0 0-.75 1.827c0 .348.072.685.193.987.132.318.32.604.558.84a2.535 2.535 0 0 0 2.787.563 2.607 2.607 0 0 0 1.389-1.402c.127-.308.193-.64.193-.988v-.036a2.62 2.62 0 0 0-.193-.957 2.552 2.552 0 0 0-.557-.84 2.576 2.576 0 0 0-.832-.563 2.707 2.707 0 0 0-.978-.19zm0 3.864a1.246 1.246 0 0 1-.892-.374 1.28 1.28 0 0 1 .41-2.078 1.246 1.246 0 0 1 1.374.277 1.278 1.278 0 0 1 .274 1.387 1.265 1.265 0 0 1-1.166.788zm-11.865 0a1.246 1.246 0 0 1-.892-.374 1.28 1.28 0 0 1 .41-2.078 1.246 1.246 0 0 1 1.374.277 1.281 1.281 0 0 1-.41 2.078 1.26 1.26 0 0 1-.482.097z" fill="#fff"/></svg>