<svg width="29" height="30" fill="none" xmlns="http://www.w3.org/2000/svg"><g clip-path="url(#clip0)" fill="#323E57"><path d="M27.302 11.236a.628.628 0 0 0-.62-.014l-4.06 2.185v-1.872a.628.628 0 0 0-.627-.628h-1.021a5.62 5.62 0 0 0 2.089-4.372A5.634 5.634 0 0 0 17.435.907a5.638 5.638 0 0 0-5.471 4.308 4.237 4.237 0 0 0-3.269-1.54 4.249 4.249 0 0 0-4.244 4.244 4.23 4.23 0 0 0 1.234 2.988h-.573a.628.628 0 0 0-.628.628v2.85h-1.59a.628.628 0 0 0-.627.628v2.468c0 .347.28.628.628.628h1.589v2.85c0 .347.281.628.628.628h7.406l-3.403 6.527a.628.628 0 0 0 1.114.58l3.324-6.377 3.325 6.378a.628.628 0 1 0 1.113-.58l-3.403-6.528h7.407a.628.628 0 0 0 .628-.628v-1.872l4.06 2.185a.627.627 0 0 0 .925-.553v-8.944a.628.628 0 0 0-.306-.539zM4.484 16.853h-.962V15.64h.962v1.213zm12.95-14.69a4.377 4.377 0 0 1 4.373 4.372 4.377 4.377 0 0 1-4.372 4.372 4.377 4.377 0 0 1-4.373-4.372 4.377 4.377 0 0 1 4.373-4.373zm-4.793 7.316a5.67 5.67 0 0 0 1.255 1.428h-2.19c.4-.404.72-.89.935-1.428zM8.695 4.93a2.992 2.992 0 0 1 2.989 2.989 2.992 2.992 0 0 1-2.989 2.988 2.992 2.992 0 0 1-2.988-2.988A2.992 2.992 0 0 1 8.695 4.93zm12.672 9.528v5.873H5.74v-8.169h15.627v2.296zm4.985 5.21l-3.73-2.008v-2.827l3.73-2.007v6.842z"/><path d="M15.41 13.988H8.582a.596.596 0 0 0-.596.597v3.324c0 .33.267.596.596.596h6.826c.33 0 .597-.267.597-.596v-3.324a.596.596 0 0 0-.597-.597zm-.597 3.325H9.18V15.18h5.633v2.132zm3.889-1.473a.628.628 0 1 0 0-1.255.628.628 0 0 0 0 1.255zm0 2.069a.628.628 0 1 0 0-1.256.628.628 0 0 0 0 1.256z"/></g><defs><clipPath id="clip0"><path fill="#fff" transform="translate(.875 .907)" d="M0 0h28.125v28.125H0z"/></clipPath></defs></svg>