<svg width="53" height="53" fill="none" xmlns="http://www.w3.org/2000/svg"><g filter="url(#filter0_b)"><circle cx="26.13" cy="26.87" r="26.13" fill="#fff" fill-opacity=".1"/></g><g clip-path="url(#clip0)" fill="#fff"><path d="M28.378 26.307l-3.822-1.968a.734.734 0 0 0-.695.01.649.649 0 0 0-.344.57v3.902c0 .235.128.447.342.567a.735.735 0 0 0 .693.015l3.822-1.934a.656.656 0 0 0 .37-.58.656.656 0 0 0-.366-.582z"/><path d="M39.003 21.96l-.001-.012c-.022-.21-.243-2.081-1.152-3.033-1.051-1.12-2.243-1.255-2.816-1.32a6.867 6.867 0 0 1-.13-.016l-.046-.005c-3.454-.25-8.671-.285-8.723-.285h-.01c-.052 0-5.269.034-8.754.285l-.046.005-.123.015c-.566.065-1.745.201-2.8 1.361-.866.942-1.116 2.772-1.142 2.978l-.003.027a54.25 54.25 0 0 0-.192 4.262v1.956c0 2.091.184 4.175.192 4.263l.002.013c.022.207.242 2.043 1.147 2.995.988 1.082 2.238 1.225 2.91 1.302.107.012.198.022.26.033l.061.009c1.995.19 8.248.283 8.513.287h.016c.052 0 5.27-.035 8.724-.286l.045-.005a5.41 5.41 0 0 1 .147-.016c.563-.06 1.736-.184 2.776-1.328.866-.942 1.116-2.772 1.142-2.978l.003-.027c.008-.087.192-2.17.192-4.262v-1.956a54.17 54.17 0 0 0-.192-4.262zm-1.34 6.218c0 1.936-.168 3.93-.184 4.112-.065.505-.33 1.663-.751 2.122-.651.715-1.32.787-1.808.838a4.404 4.404 0 0 0-.163.019c-3.34.241-8.36.278-8.592.28-.26-.004-6.422-.099-8.355-.278a6.7 6.7 0 0 0-.32-.041c-.572-.066-1.355-.156-1.958-.818l-.014-.015c-.414-.432-.671-1.516-.736-2.1a53.484 53.484 0 0 1-.186-4.12v-1.955c0-1.933.169-3.925.185-4.112.078-.594.347-1.682.751-2.122.671-.737 1.378-.819 1.846-.873l.125-.015c3.39-.243 8.446-.279 8.627-.28.181.001 5.236.037 8.595.28l.135.016c.481.055 1.208.138 1.876.85l.006.006c.414.432.671 1.534.736 2.13.012.131.186 2.153.186 4.12v1.956z"/></g><defs><filter id="filter0_b" x="-2" y="-1.26" width="56.261" height="56.261" filterUnits="userSpaceOnUse" color-interpolation-filters="sRGB"><feFlood flood-opacity="0" result="BackgroundImageFix"/><feGaussianBlur in="BackgroundImage" stdDeviation="1"/><feComposite in2="SourceAlpha" operator="in" result="effect1_backgroundBlur"/><feBlend in="SourceGraphic" in2="effect1_backgroundBlur" result="shape"/></filter><clipPath id="clip0"><path fill="#fff" transform="translate(13.065 13.805)" d="M0 0h26.13v26.13H0z"/></clipPath></defs></svg>