<svg width="26" height="30" viewBox="0 0 26 30" fill="none" xmlns="http://www.w3.org/2000/svg">
<path fill-rule="evenodd" clip-rule="evenodd" d="M23.0549 1.94994C23.0549 1.40776 22.6153 0.96823 22.0732 0.96823H21.5756C21.3082 0.96823 21.0914 0.751484 21.0914 0.484115C21.0914 0.216746 20.8747 0 20.6073 0H17.6487C17.3813 0 17.1646 0.216746 17.1646 0.484115C17.1646 0.751484 16.9479 0.96823 16.6805 0.96823H16.1829C15.6407 0.96823 15.2012 1.40776 15.2012 1.94994V2.42057C15.2012 3.22239 15.8608 3.87292 16.6737 3.87292H16.7863C17.1889 3.87292 17.5457 4.10614 17.8524 4.36693C17.9863 4.48081 18.136 4.57697 18.2981 4.65184C18.4877 4.73936 18.6321 4.91658 18.6321 5.12541C18.6321 5.32291 18.5053 5.4981 18.3177 5.55983L14.0281 6.97134C13.6362 7.10029 13.2378 6.70098 13.2378 6.28845V4.83611C13.2378 3.23752 11.9186 1.93142 10.2926 1.93142C8.67178 1.93142 7.34749 3.23248 7.34749 4.83611V6.28845C7.34749 6.70091 6.94899 7.10012 6.55723 6.9711L1.7589 5.39082C1.62085 5.34544 1.48279 5.32526 1.33451 5.32526C0.59823 5.32022 0 5.91528 0 6.63641V6.7877C0 7.24155 0.245428 7.6702 0.634022 7.90721L2.53084 9.05999C4.91841 10.511 6.37601 13.1025 6.37601 15.8965V26.1162C6.37601 26.6569 5.93763 27.0953 5.39685 27.0953C4.85608 27.0953 4.4177 27.5337 4.4177 28.0745V28.5477C4.4177 29.3498 5.06794 30 5.87005 30H17.6968C19.0322 30 20.1148 28.9174 20.1148 27.5819V26.391C20.1148 25.7133 19.5654 25.1639 18.8877 25.1639C18.21 25.1639 17.6606 24.6145 17.6606 23.9368V20.938C17.6606 20.4387 17.5072 19.9597 17.2157 19.5512L15.046 16.4894C14.5116 15.7353 14.2246 14.8339 14.2246 13.9097V12.6409C14.2246 11.8686 14.628 11.1524 15.2885 10.752L18.1181 9.03683C18.3482 8.89737 18.6423 9.06301 18.6423 9.33204C18.6423 9.5227 18.4877 9.67726 18.2971 9.67726H18.1447C17.8773 9.67726 17.6606 9.894 17.6606 10.1614C17.6606 10.4287 17.8773 10.6455 18.1447 10.6455H20.1216C20.389 10.6455 20.6057 10.4287 20.6057 10.1614C20.6057 9.894 20.3856 9.67726 20.1182 9.67726C19.8471 9.67726 19.624 9.45749 19.624 9.1864V8.53118C19.624 8.27834 19.7558 8.04379 19.9717 7.91225C20.3654 7.67524 20.6057 7.2466 20.6057 6.79274V6.63641C20.6057 6.1359 20.3189 5.70438 19.9015 5.48167C19.7453 5.39837 19.624 5.24819 19.624 5.07122C19.624 4.89131 19.7478 4.73805 19.9131 4.667C20.0917 4.59025 20.2562 4.48817 20.4018 4.36528C20.7109 4.10438 21.0692 3.86788 21.4738 3.86788H21.5823C22.3953 3.86788 23.0549 3.21735 23.0549 2.41553V1.94994ZM4.90344 1.45234H5.40104C5.66841 1.45234 5.88515 1.66909 5.88515 1.93646C5.88515 2.20383 5.66841 2.42057 5.40104 2.42057H5.38756C5.12019 2.42057 4.90344 2.63732 4.90344 2.90469C4.90344 3.17206 4.6867 3.3888 4.41933 3.3888H4.40585C4.13848 3.3888 3.92173 3.17206 3.92173 2.90469C3.92173 2.63732 3.7008 2.42057 3.43343 2.42057C3.16606 2.42057 2.94513 2.20383 2.94513 1.93646C2.94513 1.66909 3.16188 1.45234 3.42925 1.45234H3.92684V0.974971C3.92684 0.703879 4.14661 0.484115 4.4177 0.484115C4.68879 0.484115 4.90855 0.703878 4.90855 0.97497V1.45234H3.92684V1.92972C3.92684 2.20081 4.14661 2.42057 4.4177 2.42057C4.68879 2.42057 4.90855 2.20081 4.90855 1.92972V1.45234H4.90344ZM2.94513 13.0661H3.44273C3.7101 13.0661 3.92684 13.2828 3.92684 13.5502C3.92684 13.8175 3.7101 14.0343 3.44273 14.0343H2.94513V14.5117C2.94513 14.7828 2.72537 15.0025 2.45428 15.0025C2.18319 15.0025 1.96342 14.7828 1.96342 14.5117V14.0343H2.94513V13.0661H1.96342V14.0343H1.46583C1.19846 14.0343 0.981711 13.8175 0.981711 13.5502C0.981711 13.2828 1.19846 13.0661 1.46583 13.0661H1.96342V12.5887C1.96342 12.3176 2.18319 12.0978 2.45428 12.0978C2.72537 12.0978 2.94513 12.3176 2.94513 12.5887V13.0661ZM25.0183 6.77257H25.5159C25.7833 6.77257 26 6.98931 26 7.25668C26 7.52405 25.7833 7.7408 25.5159 7.7408H25.0183V8.21817C25.0183 8.48926 24.7985 8.70903 24.5274 8.70903C24.2563 8.70903 24.0366 8.48926 24.0366 8.21817V7.7408H25.0183V6.77257H24.0366V7.7408H23.539C23.2716 7.7408 23.0549 7.52405 23.0549 7.25668C23.0549 6.98931 23.2716 6.77257 23.539 6.77257H24.0366V6.29519C24.0366 6.0241 24.2563 5.80434 24.5274 5.80434C24.7985 5.80434 25.0183 6.0241 25.0183 6.29519V6.77257ZM16.6789 2.90469C16.4079 2.90469 16.188 2.68785 16.188 2.42057C16.188 2.15321 16.4047 1.93646 16.6721 1.93646H16.6856C16.953 1.93646 17.1697 2.15321 17.1697 2.42057C17.1697 2.68794 16.953 2.90469 16.6856 2.90469H16.6789ZM8.33943 4.83611C8.33943 3.76702 9.21888 2.89965 10.3029 2.89965C11.3868 2.89965 12.2663 3.76702 12.2663 4.83611V6.28845C12.2663 7.35754 11.3868 8.22491 10.3029 8.22491C9.21888 8.22491 8.33943 7.35754 8.33943 6.28845V4.83611ZM10.7514 13.1537C10.7652 13.2896 10.7167 13.4244 10.6195 13.5203C10.4439 13.6935 10.1618 13.6935 9.98625 13.5203C9.88901 13.4244 9.84048 13.2896 9.85429 13.1537L10.2522 9.23892C10.2548 9.21292 10.2767 9.19314 10.3029 9.19314C10.329 9.19314 10.3509 9.21292 10.3535 9.23892L10.7514 13.1537ZM19.1331 29.0318H5.87841C5.61104 29.0318 5.3943 28.815 5.3943 28.5477C5.3943 28.2803 5.61104 28.0635 5.87841 28.0635H12.2746C12.8094 28.0635 13.2429 27.63 13.2429 27.0953C13.2429 26.5606 13.6764 26.1271 14.2111 26.1271H17.6757C18.4778 26.1271 19.128 26.7773 19.128 27.5794V29.0267C19.128 29.0295 19.1303 29.0318 19.1331 29.0318ZM13.7337 24.4226C13.7337 24.8292 13.4041 25.1588 12.9974 25.1588C12.5908 25.1588 12.2612 25.4885 12.2612 25.8951V26.1271C12.2612 26.6618 11.821 27.0953 11.2862 27.0953C10.7441 27.0953 10.2977 26.6558 10.2977 26.1136V18.0686C10.2977 17.9274 10.5125 17.8517 10.5994 17.9677L13.2205 21.2909C13.5529 21.7123 13.7337 22.2334 13.7337 22.7702V24.4226ZM19.6291 6.79274C19.6263 6.79274 19.624 6.79503 19.624 6.79786C19.6221 6.91689 19.5561 7.02564 19.4553 7.09027L15.8537 9.27593C14.2359 10.2577 13.248 12.0129 13.248 13.9053C13.248 15.0291 13.5976 16.1251 14.2484 17.0413L16.4181 20.0958C16.5919 20.3429 16.684 20.6304 16.684 20.9279V24.1721C16.684 24.7143 16.2444 25.1538 15.7023 25.1538C15.1601 25.1538 14.7205 24.7143 14.7205 24.1721V22.5139C14.7205 21.921 14.521 21.3454 14.1539 20.8797L11.3817 17.3626C11.1618 17.0852 10.8295 16.9239 10.4716 16.9239C9.83756 16.9239 9.32114 17.4332 9.32114 18.0585V26.1035C9.32114 26.6457 8.88161 27.0852 8.33943 27.0852C7.79725 27.0852 7.35772 26.6457 7.35772 26.1035V15.3564C7.35772 12.5573 5.89473 9.96173 3.50006 8.51236L1.15044 7.09027C1.04818 7.02975 0.981711 6.91377 0.981711 6.79274V6.63641C0.981711 6.40444 1.22714 6.23298 1.447 6.30358L8.50111 8.62101C8.577 8.64594 8.64682 8.68126 8.71448 8.72373C9.03451 8.92462 9.26408 9.26813 9.22617 9.64408L8.8837 13.0399C8.84022 13.471 8.99431 13.8985 9.30277 14.2028C9.86016 14.7525 10.7558 14.7525 11.3132 14.2028C11.6216 13.8985 11.7757 13.471 11.7322 13.0399L11.3898 9.64462C11.352 9.26986 11.5823 8.92806 11.8999 8.72563C11.9672 8.68276 12.0389 8.64595 12.1147 8.62105L19.1689 6.30358C19.3888 6.23298 19.6342 6.40444 19.6342 6.63641V6.78762C19.6342 6.79045 19.6319 6.79274 19.6291 6.79274ZM20.1148 2.90469C20.1148 3.43923 19.6751 3.87292 19.1331 3.87292C18.5912 3.87292 18.1514 3.43923 18.1514 2.90469V1.94994C18.1514 1.40776 18.591 0.96823 19.1331 0.96823C19.6753 0.96823 20.1148 1.40776 20.1148 1.94994V2.90469ZM22.0783 2.42057C22.0783 2.68785 21.8584 2.90469 21.5874 2.90469H21.5807C21.3133 2.90469 21.0966 2.68794 21.0966 2.42057C21.0966 2.15321 21.3133 1.93646 21.5807 1.93646H21.5942C21.8615 1.93646 22.0783 2.15321 22.0783 2.42057Z" fill="#F2994A"/>
</svg>
