<svg width="18" height="10" viewBox="0 0 18 10" fill="none" xmlns="http://www.w3.org/2000/svg">
<path d="M17.3116 4.69483C17.1644 4.50309 13.6588 0 9.18143 0C4.70407 0 1.19826 4.50309 1.05129 4.69465C0.91194 4.87655 0.91194 5.12327 1.05129 5.30517C1.19826 5.49691 4.70407 10 9.18143 10C13.6588 10 17.1644 5.49688 17.3116 5.30532C17.4511 5.12345 17.4511 4.87655 17.3116 4.69483ZM9.18143 8.96552C5.88338 8.96552 3.02692 5.97673 2.18135 4.99965C3.02583 4.02171 5.8763 1.03448 9.18143 1.03448C12.4793 1.03448 15.3356 4.02275 16.1815 5.00035C15.337 5.97826 12.4866 8.96552 9.18143 8.96552Z" fill="white" fill-opacity="0.5"/>
<path d="M9.18126 1.89648C7.38501 1.89648 5.92358 3.28873 5.92358 4.99995C5.92358 6.71118 7.38501 8.10342 9.18126 8.10342C10.9775 8.10342 12.4389 6.71118 12.4389 4.99995C12.4389 3.28873 10.9775 1.89648 9.18126 1.89648ZM9.18126 7.06891C7.9837 7.06891 7.0095 6.1408 7.0095 4.99995C7.0095 3.85911 7.98373 2.93099 9.18126 2.93099C10.3788 2.93099 11.353 3.85911 11.353 4.99995C11.353 6.1408 10.3788 7.06891 9.18126 7.06891Z" fill="white" fill-opacity="0.5"/>
</svg>
