<svg width="53" height="53" viewBox="0 0 53 53" fill="none" xmlns="http://www.w3.org/2000/svg">
<g filter="url(#filter0_b)">
<circle cx="26.1302" cy="26.8697" r="26.1302" fill="white" fill-opacity="0.1"/>
</g>
<g clip-path="url(#clip0)">
<path d="M27.7769 39.0161H23.8637C23.21 39.0161 22.6783 38.4855 22.6783 37.8331V29.024H20.3953C19.7417 29.024 19.21 28.4931 19.21 27.8409V24.0662C19.21 23.4138 19.7417 22.8832 20.3953 22.8832H22.6783V20.9929C22.6783 19.1187 23.268 17.5241 24.3834 16.3818C25.5039 15.2343 27.0697 14.6279 28.9117 14.6279L31.8961 14.6328C32.5486 14.6339 33.0793 15.1645 33.0793 15.8158V19.3205C33.0793 19.9729 32.5478 20.5036 31.8944 20.5036L29.885 20.5043C29.2722 20.5043 29.1162 20.6269 29.0828 20.6645C29.0278 20.7268 28.9624 20.9031 28.9624 21.3896V22.883H31.7434C31.9527 22.883 32.1556 22.9345 32.3299 23.0317C32.7059 23.2414 32.9397 23.6379 32.9397 24.0664L32.9382 27.8411C32.9382 28.4931 32.4065 29.0238 31.7529 29.0238H28.9624V37.8331C28.9624 38.4855 28.4305 39.0161 27.7769 39.0161V39.0161ZM24.1109 37.5864H27.5297V28.3839C27.5297 27.9483 27.8848 27.594 28.3211 27.594H31.5057L31.507 24.3129H28.3209C27.8846 24.3129 27.5297 23.9586 27.5297 23.5231V21.3896C27.5297 20.831 27.5865 20.1958 28.009 19.7184C28.5194 19.1412 29.3239 19.0746 29.8847 19.0746L31.6468 19.0738V16.0621L28.9105 16.0577C25.9504 16.0577 24.1109 17.9489 24.1109 20.9929V23.5231C24.1109 23.9585 23.7559 24.3129 23.3197 24.3129H20.6425V27.594H23.3197C23.7559 27.594 24.1109 27.9483 24.1109 28.3839V37.5864ZM31.8933 16.0625H31.8935H31.8933Z" fill="white"/>
</g>
<defs>
<filter id="filter0_b" x="-2" y="-1.2605" width="56.2605" height="56.2605" filterUnits="userSpaceOnUse" color-interpolation-filters="sRGB">
<feFlood flood-opacity="0" result="BackgroundImageFix"/>
<feGaussianBlur in="BackgroundImage" stdDeviation="1"/>
<feComposite in2="SourceAlpha" operator="in" result="effect1_backgroundBlur"/>
<feBlend mode="normal" in="SourceGraphic" in2="effect1_backgroundBlur" result="shape"/>
</filter>
<clipPath id="clip0">
<rect width="24.3882" height="24.3882" fill="white" transform="translate(13.936 14.6755)"/>
</clipPath>
</defs>
</svg>
