<svg width="53" height="53" viewBox="0 0 53 53" fill="none" xmlns="http://www.w3.org/2000/svg">
<g filter="url(#filter0_b)">
<circle cx="26.1302" cy="26.8697" r="26.1302" fill="white" fill-opacity="0.1"/>
</g>
<g clip-path="url(#clip0)">
<path d="M27.7768 39.0161H23.8636C23.2099 39.0161 22.6782 38.4855 22.6782 37.8331V29.024H20.3952C19.7416 29.024 19.2099 28.4931 19.2099 27.8409V24.0662C19.2099 23.4138 19.7416 22.8832 20.3952 22.8832H22.6782V20.9929C22.6782 19.1187 23.2679 17.5241 24.3833 16.3818C25.5038 15.2343 27.0696 14.6279 28.9116 14.6279L31.896 14.6328C32.5485 14.6339 33.0793 15.1645 33.0793 15.8158V19.3205C33.0793 19.9729 32.5477 20.5036 31.8943 20.5036L29.8849 20.5043C29.2721 20.5043 29.1161 20.6269 29.0827 20.6645C29.0277 20.7268 28.9623 20.9031 28.9623 21.3896V22.883H31.7433C31.9526 22.883 32.1555 22.9345 32.3298 23.0317C32.7058 23.2414 32.9396 23.6379 32.9396 24.0664L32.9381 27.8411C32.9381 28.4931 32.4064 29.0238 31.7528 29.0238H28.9623V37.8331C28.9623 38.4855 28.4304 39.0161 27.7768 39.0161ZM24.1108 37.5864H27.5296V28.3839C27.5296 27.9483 27.8847 27.594 28.321 27.594H31.5056L31.5069 24.3129H28.3208C27.8845 24.3129 27.5296 23.9586 27.5296 23.5231V21.3896C27.5296 20.831 27.5864 20.1958 28.0089 19.7184C28.5193 19.1412 29.3238 19.0746 29.8846 19.0746L31.6467 19.0738V16.0621L28.9105 16.0577C25.9503 16.0577 24.1108 17.9489 24.1108 20.9929V23.5231C24.1108 23.9585 23.7558 24.3129 23.3196 24.3129H20.6424V27.594H23.3196C23.7558 27.594 24.1108 27.9483 24.1108 28.3839V37.5864ZM31.8932 16.0625H31.8934H31.8932Z" fill="white"/>
</g>
<defs>
<filter id="filter0_b" x="-2" y="-1.2605" width="56.2605" height="56.2605" filterUnits="userSpaceOnUse" color-interpolation-filters="sRGB">
<feFlood flood-opacity="0" result="BackgroundImageFix"/>
<feGaussianBlur in="BackgroundImage" stdDeviation="1"/>
<feComposite in2="SourceAlpha" operator="in" result="effect1_backgroundBlur"/>
<feBlend mode="normal" in="SourceGraphic" in2="effect1_backgroundBlur" result="shape"/>
</filter>
<clipPath id="clip0">
<rect width="24.3882" height="24.3882" fill="white" transform="translate(13.9361 14.6755)"/>
</clipPath>
</defs>
</svg>
