<svg width="46" height="32" viewBox="0 0 46 32" fill="none" xmlns="http://www.w3.org/2000/svg">
<path d="M45.0479 0.277832H1.06327C0.629709 0.277832 0.277832 0.576642 0.277832 0.94631V30.3594C0.277832 30.729 0.629709 31.0278 1.06327 31.0278H45.0479C45.4815 31.0278 45.8334 30.729 45.8334 30.3594V0.94631C45.8334 0.576642 45.4815 0.277832 45.0479 0.277832ZM44.2625 29.6909H1.84871V1.61479H44.2625V29.6909Z" fill="white"/>
<path d="M12.8448 15.1724C15.2569 15.1724 17.2189 13.3182 17.2189 11.0396C17.2189 8.75939 15.2569 6.90527 12.8448 6.90527C10.4327 6.90527 8.4707 8.75939 8.4707 11.0388C8.4707 13.3182 10.4327 15.1724 12.8448 15.1724ZM12.8448 8.38976C14.3906 8.38976 15.6481 9.57883 15.6481 11.0388C15.6481 12.4988 14.3906 13.6879 12.8448 13.6879C11.2991 13.6879 10.0416 12.4995 10.0416 11.0396C10.0416 9.57957 11.2991 8.38976 12.8448 8.38976Z" fill="white"/>
<path d="M5.77609 28.4304C5.95988 28.4304 6.14524 28.3695 6.29448 28.2456L19.1073 17.5855L27.1989 25.2313C27.506 25.5215 28.0024 25.5215 28.3095 25.2313C28.6166 24.9411 28.6166 24.472 28.3095 24.1818L24.5339 20.6139L31.7451 13.1514L40.5899 20.8135C40.9096 21.0904 41.4067 21.0696 41.6997 20.7675C41.9927 20.4654 41.9715 19.9956 41.651 19.7187L32.2257 11.5541C32.0718 11.4212 31.8668 11.3551 31.6602 11.3596C31.4521 11.3685 31.2557 11.4553 31.1151 11.6008L23.4225 19.5628L19.6972 16.0424C19.4035 15.7655 18.9338 15.7514 18.6227 16.0097L5.25691 27.1307C4.93096 27.4016 4.89954 27.8707 5.18622 28.1788C5.34174 28.3458 5.55852 28.4304 5.77609 28.4304Z" fill="white"/>
</svg>
