<svg width="479" height="155" viewBox="0 0 479 155" fill="none" xmlns="http://www.w3.org/2000/svg">
<g filter="url(#filter0_d)">
<path fill-rule="evenodd" clip-rule="evenodd" d="M431.682 89.8459V145.66H474.122V130.925H449.965V124.339H470.798V110.721H449.965V104.358H473.679V89.8459H431.682ZM375.168 117.753C375.168 137.623 390.238 147 406.195 147C412.511 147 419.049 145.66 425.033 143.205V114.516H407.968V130.367C407.303 130.479 406.638 130.479 405.752 130.479C401.762 130.479 393.895 128.246 393.895 117.753C393.895 108.265 400.987 104.581 409.076 104.581C414.063 104.581 419.825 105.92 423.703 108.376V91.9669C418.606 89.8459 412.29 88.618 405.752 88.618C390.238 88.5064 375.168 97.2134 375.168 117.753ZM335.94 145.66V128.916C335.94 126.014 335.829 122.888 335.497 119.539L354.224 145.772H369.627V89.8459H351.343V106.479C351.343 109.493 351.454 112.73 351.786 116.079L333.17 89.8459H317.767V145.66H335.94ZM269.121 89.8459V145.66H311.562V130.925H287.405V124.339H308.237V110.721H287.405V104.358H311.118V89.8459H269.121ZM222.691 89.8459V145.66H264.688V129.586H240.975V89.8459H222.691ZM176.261 89.8459V145.66H218.258V129.586H194.545V89.8459H176.261ZM130.496 145.66L132.933 138.181H152.104L154.431 145.66H172.936L152.325 89.8459H132.712L111.879 145.66H130.496ZM141.023 113.065C141.577 110.944 142.131 108.711 142.574 105.92C143.017 108.823 143.571 111.055 144.125 113.065L148.004 125.009H137.144L141.023 113.065ZM90.4925 89.8459V109.716H75.4221V89.8459H57.1382V145.66H75.4221V125.79H90.4925V145.66H108.666V89.8459H90.4925ZM4.05942 118.311C4.05942 138.628 19.2406 147 34.8651 147C40.7381 147 46.1679 145.884 51.1544 143.651V126.795C48.2733 129.363 42.9543 130.814 37.3029 130.814C29.9893 130.814 22.8974 127.13 22.8974 118.311C22.8974 108.376 30.1002 104.469 37.7462 104.469C42.6219 104.469 47.7192 106.144 50.8219 108.265V91.8552C45.9462 89.6226 40.184 88.5063 34.5326 88.5063C19.2406 88.5063 3.94861 97.1018 4.05942 118.311Z" fill="white"/>
<path fill-rule="evenodd" clip-rule="evenodd" d="M6.86528 11.6228V71.4557H32.1102C53.0369 71.4557 62.4484 59.1272 62.4484 41.5958C62.4484 24.0644 53.0369 11.7359 32.1102 11.7359H6.86528V11.6228ZM275.812 71.4557V53.4719C275.812 50.3049 275.701 47.0249 275.258 43.4055L295.078 71.4557H311.354V11.7359H292.088V29.6066C292.088 32.8866 292.199 36.2798 292.642 39.8992L272.823 11.849H256.546V71.4557H275.812ZM196.866 41.4827C196.866 62.7465 212.7 72.6999 229.641 72.6999C236.284 72.6999 243.149 71.2295 249.571 68.7412V37.9764H231.523V54.9422C230.858 55.0554 230.083 55.1685 229.198 55.1685C224.99 55.1685 216.797 52.7932 216.797 41.4827C216.797 31.3032 224.326 27.3445 232.852 27.3445C238.166 27.3445 244.256 28.8148 248.242 31.3032V13.6587C242.927 11.3966 236.173 10.0393 229.308 10.0393C212.811 10.2655 196.866 19.5402 196.866 41.4827ZM171.843 11.6228V71.4557H191.109V11.7359H171.843V11.6228ZM117.921 28.8148C117.921 49.6263 146.377 47.2511 146.377 53.3588C146.377 55.2816 144.826 56.2995 139.733 56.2995C133.422 56.2995 125.671 54.1505 118.474 49.287V67.1577C124.896 70.7771 132.868 72.813 141.726 72.813C155.234 72.813 166.307 68.7412 166.307 53.4719C166.307 32.7735 137.851 35.4881 137.851 29.2673C137.851 27.6838 139.069 26.6658 143.055 26.6658C149.588 26.5527 156.785 28.7017 162.431 32.4342V15.3553C156.674 12.1883 148.591 10.3786 140.951 10.3786C128.218 10.2655 117.921 16.2601 117.921 28.8148ZM68.3167 11.6228V71.4557H113.16V55.734H87.6933V48.6083H109.727V34.1308H87.6933V27.2313H112.717V11.7359H68.3167V11.6228ZM42.6289 41.4827C42.6289 51.2098 38.4214 54.8291 31.5566 54.8291H26.1311V28.1362H31.5566C38.4214 28.2493 42.6289 31.7556 42.6289 41.4827Z" fill="#F2994A"/>
<path fill-rule="evenodd" clip-rule="evenodd" d="M366.74 22.4567L369.092 19.2081C369.204 18.984 369.316 18.872 369.54 18.76C369.764 18.648 369.876 18.536 370.1 18.536H370.436C370.548 18.536 370.66 18.536 370.771 18.536C370.995 18.536 371.107 18.648 371.331 18.76L373.459 20.3283V19.7682C373.459 19.5441 373.459 19.2081 373.571 18.984L366.516 13.9431C364.613 16.6316 362.821 19.3201 360.917 22.0086L374.691 31.5303L374.467 29.626L367.3 24.5851C367.076 24.473 366.964 24.361 366.852 24.137C366.74 23.9129 366.628 23.8009 366.628 23.5769C366.628 23.3528 366.628 23.1288 366.628 23.0168C366.516 22.9048 366.628 22.6807 366.74 22.4567ZM413.883 7.89405C414.331 8.34213 414.667 8.79019 415.003 9.23827C415.339 9.68635 415.674 10.2465 416.01 10.6946C416.346 11.1426 416.57 11.7027 416.906 12.2628C417.13 12.8229 417.466 13.383 417.578 13.8311C417.802 14.3912 418.026 14.9513 418.138 15.5114C418.25 16.0715 418.474 16.6316 418.586 17.1917C418.586 17.4158 418.698 17.6398 418.698 17.8638V17.9759L424.857 13.4951V13.383C424.857 13.271 424.857 13.271 424.857 13.159V13.0469C424.857 12.9349 424.969 12.7109 424.969 12.5989C425.081 12.4869 425.193 12.3748 425.305 12.2628L427.32 10.8065C427.432 10.6945 427.544 10.6945 427.768 10.5825C427.88 10.5825 428.104 10.5825 428.216 10.5825C428.328 10.5825 428.552 10.6946 428.664 10.6946L428.776 10.8065C429.56 10.2464 430.232 9.68634 430.903 9.12624C431.575 8.45412 432.247 7.782 432.919 6.99786C433.591 6.21372 434.151 5.4296 434.711 4.53344C435.271 3.63728 435.718 2.85311 436.166 1.95695L436.39 1.50888C441.989 0.948778 447.588 0.500693 453.075 0.0526123C450.723 5.09352 448.372 10.2464 445.908 15.2874H445.461C444.453 15.3994 443.445 15.5114 442.549 15.7355C441.541 15.9595 440.645 16.1835 439.638 16.5196C438.742 16.8556 437.846 17.1917 436.95 17.6398C436.166 18.0879 435.383 18.536 434.599 18.984V19.0961C434.599 19.2081 434.599 19.4321 434.599 19.5441V19.6562C434.599 19.7682 434.487 19.8802 434.487 19.9922C434.375 20.1042 434.263 20.2162 434.151 20.3283L432.135 21.7845C432.023 21.8966 431.911 21.8965 431.687 22.0086C431.575 22.0086 431.351 22.0086 431.239 22.0086C431.127 22.0086 431.015 22.0086 430.903 21.8966L417.802 30.6341C417.69 31.7543 417.578 32.8745 417.466 33.9947C417.354 35.227 417.242 36.3472 417.242 37.5794C417.13 39.1477 417.13 40.716 417.13 42.3963C417.13 44.0766 417.13 45.7569 417.242 47.5492L434.935 60.0954L434.263 61.1037L439.078 65.1364C439.19 65.2484 439.526 65.4724 439.526 65.5845C439.862 65.9205 440.086 66.2566 440.31 66.7047C440.534 67.1527 440.645 67.6008 440.645 68.0489C440.645 68.497 440.645 68.9451 440.533 69.3931C440.422 69.8412 440.198 70.2893 439.974 70.6254C439.75 70.9614 439.414 71.2975 439.078 71.6336C438.742 71.8576 438.294 72.0816 437.846 72.1936C437.398 72.3057 436.95 72.4177 436.502 72.3057C436.054 72.3057 435.606 72.1936 435.159 71.9696C435.047 71.9696 434.935 71.8576 434.823 71.8576L434.711 71.7456L434.599 71.6336L429.224 68.497L428.104 70.0653L417.354 62.6719C417.13 63.5681 416.794 64.3522 416.346 65.1364C415.898 66.0325 415.339 66.9287 414.667 67.7128C413.547 69.1691 412.091 70.5133 410.524 71.6336C408.844 72.7538 407.052 73.6499 405.037 74.322C404.365 74.5461 403.693 74.7701 402.909 74.8821C402.237 75.1062 401.453 75.2182 400.67 75.3302C399.886 75.4422 399.214 75.5543 398.43 75.5543C397.646 75.6663 396.862 75.6663 396.19 75.6663C395.407 75.6663 394.623 75.6663 393.951 75.5543C393.167 75.4422 392.495 75.4422 391.711 75.3302C390.927 75.2182 390.256 75.1062 389.472 74.8821C388.8 74.6581 388.016 74.5461 387.344 74.322C385.329 73.6499 383.537 72.7538 381.857 71.6336C380.29 70.5133 378.834 69.2811 377.714 67.7128C376.818 66.4806 376.034 65.1364 375.475 63.6801C375.027 62.4479 374.691 61.1036 374.467 59.5353L357.11 71.1855C356.774 71.4095 356.326 71.6336 355.878 71.7456C355.431 71.8576 354.983 71.8576 354.535 71.7456C354.087 71.6336 353.639 71.5215 353.303 71.2975C352.967 71.0734 352.631 70.7374 352.295 70.4013C352.071 70.0653 351.847 69.6172 351.735 69.1691C351.623 68.721 351.623 68.2729 351.735 67.8249C351.847 67.3768 351.959 66.9287 352.183 66.5926C352.407 66.2566 352.743 65.9205 353.079 65.5845L374.915 49.5656C375.027 47.2131 375.139 45.0848 375.139 43.1804C375.139 41.1641 375.027 39.2597 374.915 37.3554C374.915 36.6832 374.803 36.0111 374.803 35.227C374.803 34.5549 374.691 33.8827 374.691 33.3226L358.678 22.3446C358.118 22.0086 357.446 21.6725 356.886 21.4485C356.326 21.2244 355.655 20.8884 355.095 20.6643C354.423 20.4403 353.863 20.2163 353.191 19.9922C352.519 19.7682 351.959 19.6562 351.287 19.5441H351.175C348.936 16.4076 346.584 13.271 344.345 10.1344L344.569 9.79837L344.121 9.9104L341.097 5.31756L341.657 4.53344C340.985 3.86132 340.314 3.3012 339.642 2.62908C339.418 2.40504 339.418 2.06897 339.418 1.84493C339.418 1.50886 339.53 1.28484 339.642 0.948778C339.866 0.724737 340.09 0.500697 340.426 0.388676C340.65 0.276656 340.985 0.276656 341.209 0.388676C341.993 0.836757 342.889 1.17282 343.673 1.62091L344.233 0.836751L349.496 2.06898L349.608 2.51705L349.832 2.18101C353.527 3.30121 357.334 4.30938 361.029 5.42959L361.141 5.54161C361.477 6.10172 361.813 6.66181 362.261 7.10989C362.597 7.66999 363.045 8.11807 363.493 8.67817C363.941 9.12625 364.389 9.68637 364.837 10.1344C365.285 10.5825 365.732 11.0306 366.292 11.4787L373.571 16.6316C373.683 16.0715 373.795 15.5114 374.019 14.9513C374.243 14.3912 374.355 13.8311 374.691 13.159C374.915 12.5989 375.139 12.0388 375.475 11.4787C375.81 10.9186 376.034 10.3585 376.37 9.9104C376.706 9.3503 377.042 8.90223 377.49 8.45415C377.826 8.00607 378.274 7.55797 378.722 7.10989C378.834 6.99787 378.946 6.88586 379.058 6.77384C379.954 5.87768 381.073 5.09354 382.305 4.53344C383.537 3.86132 384.993 3.30122 386.448 2.85314C388.016 2.40505 389.584 2.06897 391.263 1.84493C392.943 1.62089 394.623 1.50888 396.414 1.50888C398.094 1.50888 399.886 1.62089 401.565 1.95695C403.245 2.18099 404.813 2.62907 406.268 3.07716C407.724 3.52524 409.068 4.19736 410.3 4.86949C410.635 5.09353 410.859 5.20555 411.195 5.42959L410.971 4.98151L411.307 5.54161C412.091 6.10172 412.763 6.66182 413.435 7.33394L413.883 7.89405ZM419.034 20.2163C419.034 20.5523 419.034 20.7764 419.034 21.1124H419.146L419.034 22.3446C419.034 22.9047 418.922 23.4649 418.81 24.025L418.25 28.6178L429.896 20.8884L425.976 15.2874L419.034 20.2163ZM417.242 50.2377L417.354 51.2459C417.354 51.806 417.466 52.3661 417.466 53.0382C417.466 53.2622 417.466 53.5983 417.578 53.8223L417.802 55.2786C417.802 55.5026 417.914 55.7267 417.914 55.9507V56.3988V56.8469V57.2949V57.743C417.914 58.4152 417.914 58.9753 417.802 59.6474C417.802 60.2075 417.69 60.6555 417.578 61.2156L423.513 65.3604L428.44 58.3032L417.242 50.2377ZM374.355 58.0791V57.855V57.407V56.9589V56.5108V56.0627C374.355 55.6147 374.467 55.1666 374.579 54.7185C374.691 54.1584 374.803 53.5983 374.803 52.9262V52.7021L354.199 67.8249C353.975 67.9369 353.863 68.1609 353.751 68.2729C353.639 68.497 353.527 68.609 353.527 68.833C353.527 69.0571 353.527 69.2811 353.527 69.5052C353.527 69.7292 353.639 69.9533 353.751 70.0653C353.863 70.2893 354.087 70.4013 354.199 70.5133C354.423 70.6254 354.535 70.7374 354.759 70.7374C354.983 70.7374 355.207 70.7374 355.431 70.7374C355.655 70.7374 355.878 70.6254 355.99 70.5133L374.355 58.0791ZM373.683 24.9211L372.675 26.3774L368.308 23.3528L370.324 20.5523L373.347 22.6807C373.347 23.1288 373.459 23.5769 373.571 24.137L373.683 24.9211ZM397.086 8.90222L397.31 9.01425C397.534 9.01425 397.646 9.12625 397.758 9.23827C397.982 9.35029 398.094 9.46233 398.318 9.57435C398.542 9.68637 398.654 9.79838 398.766 10.0224C398.99 10.2465 399.102 10.3585 399.214 10.5825C399.326 10.8066 399.438 11.0306 399.55 11.2547C399.662 11.4787 399.662 11.7027 399.774 11.9267C399.774 12.1508 399.886 12.3748 399.886 12.7109V18.536C399.886 18.76 399.886 18.984 399.774 19.3201C399.774 19.5441 399.662 19.7682 399.55 19.9922C399.438 20.2163 399.326 20.4403 399.214 20.6643C399.102 20.8884 398.878 21.1124 398.766 21.2244C398.654 21.3365 398.43 21.5605 398.318 21.6725C398.094 21.7845 397.982 21.8965 397.758 22.0086C397.646 22.1206 397.422 22.1206 397.31 22.2326L397.086 22.3446V37.5794C397.086 37.6914 397.086 37.8034 396.974 37.9155C396.974 38.0275 396.862 38.1395 396.75 38.2515C396.638 38.3635 396.526 38.3635 396.414 38.4756C396.302 38.4756 396.19 38.5876 396.078 38.5876C395.966 38.5876 395.854 38.5876 395.742 38.4756C395.63 38.4756 395.519 38.3635 395.407 38.2515C395.295 38.1395 395.295 38.0275 395.183 37.9155C395.183 37.8034 395.071 37.6914 395.071 37.5794V22.3446L394.847 22.2326C394.735 22.2326 394.511 22.1206 394.399 22.0086C394.175 21.8965 394.063 21.7845 393.839 21.6725C393.727 21.5605 393.615 21.4485 393.391 21.3365L393.279 21.2244C393.055 21.0004 392.943 20.8884 392.831 20.6643C392.719 20.4403 392.607 20.2163 392.495 19.9922C392.383 19.7682 392.383 19.5441 392.271 19.3201C392.271 19.096 392.159 18.872 392.159 18.536V12.7109C392.159 12.4869 392.159 12.2628 392.271 11.9267C392.271 11.7027 392.383 11.4787 392.495 11.2547C392.607 11.0306 392.719 10.8066 392.831 10.5825C392.943 10.3585 393.167 10.1344 393.279 10.0224C393.391 9.9104 393.615 9.68637 393.727 9.57435C393.951 9.46233 394.063 9.35029 394.287 9.23827C394.399 9.12625 394.623 9.12627 394.735 9.01425C394.847 9.01425 394.847 9.01424 394.959 8.90222V4.30938C394.511 4.30938 393.951 4.30939 393.503 4.42141C392.943 4.42141 392.383 4.53341 391.823 4.64543C391.263 4.75745 390.703 4.86949 390.144 4.98151C389.584 5.09353 389.024 5.20554 388.576 5.31756C388.016 5.5416 387.344 5.65362 386.784 5.87766C386.224 6.1017 385.664 6.32576 385.105 6.66182C384.545 6.99788 383.985 7.33393 383.425 7.66999C382.865 8.11807 382.305 8.56617 381.857 9.01425C381.521 9.35031 381.297 9.57434 380.961 9.9104C380.737 10.2465 380.402 10.5825 380.178 10.9186C379.954 11.2546 379.73 11.5907 379.506 11.9267C379.282 12.2628 379.17 12.5989 378.946 13.0469C378.834 13.383 378.61 13.8311 378.498 14.2792C378.386 14.7273 378.274 15.1754 378.162 15.6234C378.05 16.0715 378.05 16.6316 377.938 17.1917C377.938 17.7518 377.826 18.3119 377.826 18.872C377.826 19.2081 377.826 19.5441 377.826 19.7682C377.826 20.1042 377.826 20.4403 377.826 20.6643C377.826 21.0004 377.826 21.2244 377.826 21.5605C377.826 21.8966 377.826 22.1206 377.938 22.4567C377.938 22.7927 378.05 23.1288 378.05 23.3528C378.05 23.6889 378.162 24.0249 378.162 24.249C378.162 24.473 378.274 24.8091 378.274 25.1452L378.386 26.0413C378.498 26.6014 378.61 27.1615 378.722 27.7216C378.834 28.2817 378.946 28.8418 379.058 29.2899C379.17 29.85 379.282 30.4101 379.394 30.8582L379.73 32.4265C380.29 34.8909 380.849 37.2433 381.185 39.8198C381.409 41.052 381.521 42.3963 381.521 43.7405C381.521 45.0848 381.521 46.429 381.409 47.8852C381.409 48.3333 381.297 48.8934 381.297 49.4535C381.185 50.6857 381.073 52.03 380.849 53.0382C380.737 53.7103 380.737 54.2704 380.625 54.9425C380.625 55.5026 380.514 56.0627 380.514 56.6228C380.514 57.1829 380.514 57.631 380.514 58.0791C380.514 58.5272 380.625 58.9753 380.625 59.4234C380.737 59.8714 380.849 60.2075 380.961 60.6555C381.073 61.1036 381.185 61.4397 381.409 61.8878C381.633 62.3359 381.745 62.6719 382.081 63.008C382.305 63.344 382.641 63.7921 382.865 64.2402C383.201 64.6883 383.537 65.1364 383.985 65.4724C384.433 65.9205 384.881 66.2566 385.329 66.5926C385.776 66.9287 386.336 67.2648 386.896 67.6008C387.456 67.9369 388.016 68.1609 388.688 68.385C389.584 68.721 390.703 68.9451 391.935 69.1691C393.167 69.3931 394.623 69.5052 395.966 69.5052C397.31 69.5052 398.766 69.3931 399.998 69.1691C401.229 68.9451 402.349 68.721 403.245 68.385C403.917 68.1609 404.477 67.8249 405.037 67.6008C405.597 67.2648 406.156 66.9287 406.604 66.5926C407.052 66.2566 407.5 65.8085 407.948 65.4724C408.396 65.0244 408.732 64.6883 409.068 64.2402C409.404 63.7921 409.628 63.4561 409.852 63.008C410.076 62.6719 410.3 62.2238 410.524 61.8878C410.747 61.5517 410.859 61.1036 410.971 60.6555C411.083 60.2075 411.195 59.8714 411.307 59.4234C411.419 58.9753 411.419 58.5272 411.419 58.0791C411.419 57.631 411.419 57.0709 411.419 56.6228C411.419 56.0627 411.419 55.5026 411.307 54.9425C411.307 54.3824 411.195 53.7103 411.083 53.0382C410.859 52.03 410.747 50.6857 410.635 49.4535C410.635 48.8934 410.524 48.3333 410.524 47.8852C410.188 44.9727 410.3 42.3963 410.635 39.8198C410.971 37.3554 411.531 34.8909 412.091 32.4265C412.315 31.4183 412.539 30.2981 412.763 29.2899C412.987 28.1697 413.211 27.1615 413.435 26.0413L413.547 25.1452L413.659 24.249C413.659 23.9129 413.771 23.6889 413.771 23.3528C413.771 23.0168 413.883 22.7927 413.883 22.4567C413.883 22.1206 413.883 21.7845 413.995 21.5605C413.995 21.2244 413.995 20.8884 413.995 20.6643C413.995 20.3283 413.995 19.9922 413.995 19.7682C413.995 19.4321 413.995 19.0961 413.995 18.872C413.995 18.3119 413.995 17.7518 413.883 17.1917C413.883 16.6316 413.771 16.1835 413.659 15.6234C413.547 15.1754 413.435 14.7273 413.323 14.2792C413.211 13.8311 413.099 13.495 412.875 13.0469C412.763 12.7109 412.539 12.2628 412.315 11.9267C412.091 11.5907 411.867 11.2546 411.643 10.9186C411.419 10.5825 411.195 10.2465 410.859 9.9104C410.635 9.57434 410.3 9.35031 409.964 9.01425C409.404 8.56617 408.956 8.11807 408.396 7.66999C407.836 7.22191 407.276 6.88586 406.716 6.66182C406.156 6.32576 405.597 6.1017 405.037 5.87766C404.477 5.65362 403.805 5.42958 403.245 5.31756C402.685 5.20554 402.125 4.98151 401.565 4.86949C401.005 4.75747 400.334 4.64546 399.662 4.53344C399.102 4.42142 398.43 4.4214 397.758 4.30938C397.198 4.30938 396.75 4.19736 396.19 4.19736V8.90222H397.086ZM397.534 11.1426C397.422 11.0306 397.31 10.9186 397.198 10.9186C397.086 10.8066 396.974 10.8066 396.862 10.6946C396.75 10.6946 396.638 10.5825 396.526 10.5825C396.414 10.5825 396.302 10.5825 396.19 10.5825C396.078 10.5825 395.966 10.5825 395.854 10.5825C395.742 10.5825 395.631 10.6946 395.519 10.6946C395.407 10.6946 395.295 10.8066 395.183 10.9186C395.071 11.0306 394.959 11.0306 394.847 11.1426C394.735 11.2546 394.623 11.3667 394.623 11.4787C394.511 11.5907 394.511 11.7027 394.399 11.8148C394.399 11.9268 394.287 12.0388 394.287 12.1508C394.287 12.2628 394.287 12.3748 394.287 12.4868V18.3119C394.287 18.4239 394.287 18.5359 394.287 18.648C394.287 18.76 394.399 18.872 394.399 18.984C394.399 19.0961 394.511 19.2081 394.623 19.3201C394.735 19.4321 394.735 19.5441 394.847 19.6562C394.959 19.7682 395.071 19.8802 395.183 19.8802C395.295 19.9922 395.407 19.9922 395.519 20.1042C395.631 20.1042 395.742 20.2163 395.854 20.2163C395.966 20.2163 396.078 20.2163 396.19 20.2163C396.302 20.2163 396.414 20.2163 396.526 20.2163C396.638 20.2163 396.75 20.1042 396.862 20.1042C396.974 20.1042 397.086 19.9922 397.198 19.8802C397.31 19.7682 397.422 19.7682 397.534 19.6562C397.646 19.5441 397.758 19.4321 397.758 19.3201C397.87 19.2081 397.87 19.0961 397.982 18.984C397.982 18.872 398.094 18.76 398.094 18.648C398.094 18.5359 398.094 18.4239 398.094 18.3119V12.4868C398.094 12.3748 398.094 12.2628 398.094 12.1508C398.094 12.0388 397.982 11.9268 397.982 11.8148C397.982 11.7027 397.87 11.5907 397.758 11.4787C397.646 11.3667 397.646 11.3667 397.534 11.1426ZM388.464 70.4013C387.792 70.1773 387.12 69.8412 386.448 69.5052C385.776 69.1691 385.217 68.8331 384.657 68.385C384.097 67.9369 383.537 67.4888 383.089 67.0407C382.641 66.5926 382.193 66.0325 381.745 65.5845C381.409 65.1364 381.073 64.6883 380.849 64.2402C380.626 63.7921 380.29 63.344 380.178 62.896C379.954 62.4479 379.842 61.9998 379.618 61.5517C379.506 61.1036 379.394 60.5435 379.282 60.0954C379.17 59.6474 379.17 59.0873 379.058 58.5272C379.058 57.9671 379.058 57.407 379.058 56.8469C379.058 56.2868 379.058 55.6146 379.17 55.0545C379.17 54.3824 379.282 53.7103 379.394 53.0382L379.954 47.8852C380.066 46.541 380.178 45.1968 380.066 43.9645C380.066 42.7323 379.954 41.5001 379.73 40.2679C379.394 37.9155 378.834 35.563 378.274 33.0986V32.9866C378.05 31.9784 377.826 30.9702 377.602 29.85C377.49 29.2899 377.378 28.7298 377.266 28.1697C377.154 27.6096 377.042 27.0495 376.93 26.4894C376.93 26.1533 376.818 25.8173 376.818 25.5932C376.818 25.2572 376.706 25.0331 376.706 24.6971C376.706 24.361 376.594 24.0249 376.594 23.6889C376.594 23.3528 376.482 23.0168 376.482 22.7927C376.482 22.4567 376.482 22.1206 376.37 21.7845C376.37 21.4485 376.37 21.1124 376.37 20.7764C376.37 20.4403 376.37 20.1042 376.37 19.7682C376.37 19.4321 376.37 19.096 376.37 18.76C376.37 18.0879 376.37 17.5278 376.482 16.8557C376.482 16.2956 376.594 15.7355 376.706 15.1754C376.818 14.6153 376.93 14.1672 377.042 13.607C377.154 13.271 377.266 12.9349 377.378 12.5989L377.266 12.8229C377.042 13.271 376.818 13.8311 376.594 14.2792C376.37 14.8393 376.146 15.2874 376.034 15.8475C375.922 16.4076 375.698 16.9677 375.587 17.4158C375.475 17.9759 375.363 18.536 375.363 19.0961C375.363 19.6562 375.251 20.2163 375.251 20.7764C375.251 22.1206 375.475 23.2408 375.587 24.473C376.146 29.1779 376.706 33.2106 376.93 37.6914C377.042 39.9318 377.154 42.1722 377.154 44.6367C377.154 47.1011 377.042 49.7896 376.818 52.7021C376.818 53.4863 376.706 54.0464 376.594 54.6065C376.594 54.7185 376.482 55.1666 376.482 55.2786C376.482 55.5026 376.37 55.7267 376.37 55.9507V56.3988V56.8469V57.2949V57.743C376.37 59.6474 376.706 61.3277 377.154 62.896C377.714 64.4642 378.386 65.8085 379.394 67.0407C380.402 68.385 381.633 69.5052 383.089 70.5133C384.545 71.5215 386.224 72.3056 388.016 72.9778C388.688 73.2018 389.36 73.4258 389.92 73.5379C390.592 73.6499 391.263 73.874 391.935 73.986C392.607 74.098 393.279 74.21 394.063 74.21C394.735 74.21 395.519 74.322 396.19 74.322C396.862 74.322 397.646 74.322 398.318 74.21C398.99 74.21 399.774 74.098 400.446 73.986C401.117 73.874 401.789 73.7619 402.461 73.5379C403.133 73.4258 403.805 73.2018 404.365 72.9778C406.156 72.4177 407.836 71.5215 409.292 70.5133C410.747 69.5052 411.979 68.385 412.987 67.0407C413.883 65.8085 414.667 64.4642 415.227 62.896C415.786 61.3277 416.01 59.6474 416.01 57.743V57.2949V56.8469V56.3988V55.9507C416.01 55.5026 415.898 55.0546 415.786 54.7185C415.674 54.1584 415.674 53.7103 415.563 53.0382C415.339 50.0136 415.227 47.3252 415.227 44.8607C415.227 42.3963 415.227 40.0438 415.339 37.8034C415.562 33.3226 416.122 29.1779 416.682 24.473C416.906 23.2408 417.018 22.0086 417.018 20.7764C417.018 20.2163 417.018 19.6561 416.906 19.2081C416.906 18.648 416.794 18.1999 416.682 17.6398C416.57 17.0797 416.458 16.6316 416.346 16.0715L416.234 15.6234C416.346 16.0715 416.346 16.4076 416.346 16.8557C416.346 17.4158 416.458 18.0879 416.458 18.76C416.458 19.096 416.458 19.4321 416.458 19.7682C416.458 20.1042 416.458 20.4403 416.458 20.7764C416.458 21.1124 416.458 21.4485 416.458 21.7845C416.458 22.1206 416.458 22.4567 416.346 22.7927C416.346 23.1288 416.234 23.3528 416.234 23.6889C416.234 24.0249 416.122 24.361 416.122 24.6971C416.122 25.0331 416.01 25.3692 416.01 25.5932C416.01 25.9293 415.898 26.1533 415.898 26.4894C415.786 27.0495 415.674 27.6096 415.563 28.1697C415.451 28.7298 415.339 29.2899 415.227 29.85C415.003 30.8582 414.779 31.8664 414.555 32.8745V32.9866C413.995 35.451 413.435 37.6914 413.099 40.1559C412.987 41.3881 412.875 42.6203 412.763 43.8525C412.763 45.0847 412.763 46.429 412.875 47.7732L413.435 52.9262C413.547 53.5983 413.547 54.2704 413.659 54.9425C413.659 55.6147 413.771 56.1747 413.771 56.7348C413.771 57.2949 413.771 57.855 413.771 58.4151C413.771 58.9752 413.659 59.4234 413.547 59.9835C413.435 60.5436 413.323 60.9916 413.211 61.4397C413.099 61.8878 412.875 62.3359 412.651 62.784C412.427 63.232 412.203 63.6801 411.979 64.1282C411.755 64.5763 411.419 65.0244 411.083 65.4724C410.747 66.0325 410.3 66.4806 409.74 66.9287C409.292 67.3768 408.732 67.8249 408.172 68.2729C407.612 68.721 406.94 69.0571 406.38 69.3931C405.708 69.7292 405.037 70.0653 404.365 70.2893C403.245 70.7374 402.013 71.0734 400.67 71.2975C399.326 71.5215 397.87 71.6336 396.414 71.6336C393.615 71.7456 390.703 71.2975 388.464 70.4013ZM430.008 59.3113L425.081 66.3686L427.432 68.0489L432.359 60.9916L430.008 59.3113ZM346.024 8.23009L348.264 4.98151L348.152 3.86131L345.129 3.07716L343.225 5.76563L345.017 8.34212L346.024 8.23009ZM433.143 63.12L430.008 67.6008C431.799 68.609 433.815 69.9532 435.718 70.8494C435.942 70.9614 436.166 70.9614 436.39 71.0734C436.614 71.0734 436.838 71.0734 437.174 70.9614C437.398 70.8494 437.622 70.7374 437.846 70.6254C438.07 70.5134 438.182 70.2893 438.406 70.0653C438.518 69.8412 438.63 69.6172 438.742 69.3931C438.854 69.1691 438.854 68.9451 438.854 68.609C438.854 68.3849 438.742 68.1609 438.63 67.9369C438.518 67.7128 438.406 67.4888 438.182 67.3768C436.614 65.8085 434.711 64.4642 433.143 63.12ZM350.728 4.64543L346.584 10.5825L351.623 17.4158L358.79 7.22192L350.728 4.64543ZM360.47 8.00604C360.693 8.3421 360.917 8.67819 361.141 9.01425C361.477 9.46233 361.813 9.91039 362.261 10.3585C362.709 10.8066 363.157 11.3667 363.605 11.8148C364.053 12.2628 364.389 12.5989 364.837 13.0469L359.126 21.2244C358.678 21.0004 358.118 20.6643 357.558 20.4403C356.998 20.2162 356.326 19.8802 355.767 19.6562C355.207 19.4321 354.647 19.2081 354.199 19.0961C353.863 18.984 353.415 18.872 353.079 18.76L360.47 8.00604ZM432.583 19.6562L427.88 12.935L426.872 13.607L431.575 20.3283L432.583 19.6562ZM449.492 3.74928L444.565 7.22192C444.677 7.55798 444.789 7.782 444.789 8.11807C444.901 8.56615 444.901 8.90221 444.789 9.3503C444.677 9.79838 444.565 10.2465 444.229 10.6946C444.005 11.0306 443.669 11.4787 443.221 11.7027C442.773 12.0388 442.325 12.1508 441.877 12.2628C441.429 12.3748 440.869 12.3748 440.422 12.2628C439.974 12.1508 439.526 12.0388 439.078 11.7027C438.742 11.4787 438.294 11.1426 438.07 10.6946C437.734 10.2465 437.622 9.79838 437.51 9.3503C437.398 8.90221 437.398 8.34213 437.51 7.89405C437.622 7.44596 437.734 6.99787 438.07 6.54979C438.294 6.10171 438.63 5.76565 439.078 5.54161C439.526 5.20555 439.974 5.09353 440.422 4.98151C440.869 4.86949 441.429 4.86949 441.877 4.98151C442.325 5.09353 442.661 5.20555 442.997 5.42959C443.221 5.54161 443.557 5.76565 443.781 5.98969L448.708 2.51705L437.51 3.52523C437.062 4.42139 436.614 5.20555 436.054 5.98969C435.494 6.88585 434.935 7.67 434.263 8.45415C433.591 9.23829 432.919 9.9104 432.247 10.5825C431.575 11.2546 430.903 11.8148 430.12 12.3749L433.815 17.7518C434.599 17.1917 435.383 16.7436 436.166 16.4076C437.062 15.9595 437.958 15.5114 438.854 15.2874C439.862 14.9513 440.757 14.6152 441.765 14.3912C442.661 14.1672 443.669 14.0552 444.565 13.9431L449.492 3.74928ZM442.885 7.89405L442.437 7.33394C442.325 7.22192 442.213 7.10988 441.989 6.99786C441.877 6.88584 441.653 6.88586 441.429 6.77384C441.205 6.77384 440.981 6.77384 440.757 6.77384C440.534 6.77384 440.31 6.88585 440.086 7.10989C439.862 7.22191 439.75 7.44595 439.638 7.66999C439.526 7.89403 439.414 8.11808 439.414 8.34212C439.414 8.56616 439.414 8.79021 439.414 9.01425C439.414 9.23829 439.526 9.4623 439.75 9.68634C439.862 9.91038 440.086 10.0224 440.31 10.1344C440.534 10.2465 440.757 10.3585 440.981 10.3585C441.205 10.3585 441.429 10.3585 441.653 10.3585C441.877 10.3585 442.101 10.2465 442.325 10.0224C442.549 9.9104 442.661 9.68636 442.773 9.46232C442.885 9.23828 442.997 9.01423 442.997 8.79019C442.997 8.56615 442.997 8.45413 442.997 8.23009C442.997 8.23009 442.997 8.11809 442.885 7.89405Z" fill="white"/>
</g>
<defs>
<filter id="filter0_d" x="0.0588226" y="0.0526123" width="478.064" height="154.947" filterUnits="userSpaceOnUse" color-interpolation-filters="sRGB">
<feFlood flood-opacity="0" result="BackgroundImageFix"/>
<feColorMatrix in="SourceAlpha" type="matrix" values="0 0 0 0 0 0 0 0 0 0 0 0 0 0 0 0 0 0 127 0"/>
<feOffset dy="4"/>
<feGaussianBlur stdDeviation="2"/>
<feColorMatrix type="matrix" values="0 0 0 0 0 0 0 0 0 0 0 0 0 0 0 0 0 0 0.25 0"/>
<feBlend mode="normal" in2="BackgroundImageFix" result="effect1_dropShadow"/>
<feBlend mode="normal" in="SourceGraphic" in2="effect1_dropShadow" result="shape"/>
</filter>
</defs>
</svg>
