<svg width="27" height="27" viewBox="0 0 27 27" fill="none" xmlns="http://www.w3.org/2000/svg">
<path d="M25.8134 21.8584L20.0337 16.0945C19.9493 16.0102 19.8439 15.9521 19.7331 15.9205L15.4775 14.7393C15.4195 14.7234 15.3562 14.7129 15.2929 14.7129C15.1083 14.7129 14.9343 14.7867 14.8025 14.9186C14.6284 15.0979 14.5652 15.3562 14.639 15.5988L15.8993 19.749C15.931 19.8545 15.989 19.9547 16.0734 20.0338L21.8636 25.8082C22.3909 26.3355 23.0923 26.6256 23.8411 26.6256C24.59 26.6256 25.2913 26.3355 25.8187 25.8082C26.8997 24.7219 26.8997 22.95 25.8134 21.8584ZM21.3943 23.4088L17.1597 19.1848L16.3107 16.3898L19.1952 17.1914L23.4087 21.3996L21.3943 23.4088ZM24.8431 24.8432C24.5742 25.1121 24.2156 25.2598 23.8359 25.2598C23.4562 25.2598 23.0976 25.1121 22.8286 24.8432L22.3646 24.3791L24.379 22.3646L24.8431 22.8287C25.112 23.0977 25.2597 23.4563 25.2597 23.8359C25.2597 24.2156 25.112 24.5742 24.8431 24.8432Z" fill="white"/>
<path d="M14.8183 22.8814C14.8077 22.6969 14.7286 22.5281 14.5968 22.4068C14.4597 22.2855 14.2857 22.2223 14.1064 22.2275C13.906 22.2381 13.7003 22.2381 13.5052 22.2381C11.7597 22.2381 10.0827 21.9111 8.51126 21.273C8.34251 21.2045 8.15267 21.2045 7.98392 21.2783L2.34134 23.6566L4.3136 18.9844C4.4138 18.7418 4.36634 18.457 4.19232 18.2619C2.58919 16.4584 1.74017 14.3016 1.74017 12.0129C1.74017 6.34922 7.0136 1.74023 13.4999 1.74023C19.9863 1.74023 25.2597 6.34922 25.2597 12.0129C25.2597 13.3682 24.9275 14.7234 24.2736 16.0418C24.1048 16.3793 24.2472 16.7906 24.5847 16.9594C24.7482 17.0385 24.9327 17.0543 25.1068 16.9963C25.2808 16.9383 25.4179 16.817 25.5023 16.6482C26.2511 15.1348 26.6255 13.5791 26.6255 12.0129C26.6308 5.59512 20.7404 0.369141 13.4999 0.369141C6.2595 0.369141 0.369074 5.59512 0.369074 12.0129C0.369074 14.4176 1.19173 16.7221 2.74739 18.6732L2.8845 18.8473L0.421808 24.6744C0.311066 24.9328 0.369074 25.2281 0.569464 25.4232C0.7013 25.5551 0.87005 25.6236 1.05462 25.6236C1.14427 25.6236 1.23392 25.6078 1.32357 25.5709L8.25814 22.6441L8.39524 22.6969C10.0089 23.298 11.7281 23.6092 13.4999 23.6092C13.7161 23.6092 13.9376 23.6039 14.1644 23.5934C14.349 23.5828 14.5177 23.509 14.639 23.3719C14.7603 23.24 14.8236 23.0607 14.8183 22.8814Z" fill="white"/>
<path d="M18.1933 12.3926C18.5719 12.3926 18.8788 12.0856 18.8788 11.707C18.8788 11.3284 18.5719 11.0215 18.1933 11.0215C17.8147 11.0215 17.5078 11.3284 17.5078 11.707C17.5078 12.0856 17.8147 12.3926 18.1933 12.3926Z" fill="white"/>
<path d="M13.4472 12.3926C13.8258 12.3926 14.1328 12.0856 14.1328 11.707C14.1328 11.3284 13.8258 11.0215 13.4472 11.0215C13.0686 11.0215 12.7617 11.3284 12.7617 11.707C12.7617 12.0856 13.0686 12.3926 13.4472 12.3926Z" fill="white"/>
<path d="M8.70111 12.3926C9.07973 12.3926 9.38666 12.0856 9.38666 11.707C9.38666 11.3284 9.07973 11.0215 8.70111 11.0215C8.32249 11.0215 8.01556 11.3284 8.01556 11.707C8.01556 12.0856 8.32249 12.3926 8.70111 12.3926Z" fill="white"/>
</svg>
