<svg width="25" height="25" viewBox="0 0 25 25" fill="none" xmlns="http://www.w3.org/2000/svg">
<path d="M15.3931 3.80614C15.3413 3.65843 15.2112 3.55218 15.0561 3.53108L13.5449 3.32598L12.8467 1.9002C12.774 1.75686 12.6269 1.66655 12.4662 1.66666C12.305 1.66905 12.1596 1.76431 12.0931 1.91119L11.4359 3.35936L9.93082 3.61244C9.70384 3.65077 9.55093 3.86588 9.58926 4.09285C9.60379 4.1789 9.64499 4.25827 9.70702 4.31968L10.8252 5.42603L10.5872 7.02192C10.5531 7.24931 10.7098 7.46134 10.9372 7.49541C11.0298 7.50926 11.1244 7.49155 11.2057 7.44509L12.5395 6.68421L13.8948 7.40239C14.0982 7.51004 14.3503 7.43249 14.458 7.22916C14.5015 7.14692 14.5162 7.05249 14.4999 6.96088L14.2155 5.37317L15.3019 4.2314C15.4098 4.11801 15.445 3.95374 15.3931 3.80614ZM13.4664 4.95155C13.375 5.0477 13.3348 5.1815 13.3582 5.31207L13.5286 6.26546L12.727 5.84067C12.6011 5.77374 12.4495 5.77619 12.3258 5.84718L11.5376 6.2964L11.6805 5.33978C11.6999 5.20837 11.6557 5.07556 11.5612 4.98212L10.8711 4.29936L11.7927 4.14431C11.9294 4.12124 12.0456 4.03171 12.1028 3.90546L12.4865 3.05994L12.8942 3.89207C12.9554 4.01686 13.0747 4.10306 13.2124 4.12197L14.1364 4.24728L13.4664 4.95155Z" fill="white"/>
<path d="M22.2394 16.8566C23.4956 15.8528 23.7001 14.0208 22.6964 12.7646C22.2335 12.1855 21.5672 11.8047 20.8333 11.6999V8.33333H20V11.6999C18.4082 11.9272 17.302 13.4019 17.5292 14.9937C17.6339 15.7266 18.0137 16.3921 18.5916 16.8548C17.7891 16.9992 17.0462 17.3749 16.4546 17.936C15.8635 17.3773 15.1229 17.0024 14.3227 16.8566C15.5802 15.8499 15.7836 14.0144 14.7769 12.7569C13.7702 11.4994 11.9347 11.296 10.6772 12.3028C9.41969 13.3095 9.2163 15.1449 10.223 16.4024C10.3572 16.5701 10.5095 16.7224 10.6772 16.8566C9.87703 17.0024 9.13641 17.3774 8.54531 17.936C7.95365 17.375 7.21083 16.9992 6.40833 16.8548C7.66344 15.8497 7.86615 14.0175 6.86104 12.7623C6.39828 12.1845 5.73281 11.8046 4.9999 11.7V5H4.16667V11.6999C2.5749 11.9271 1.46865 13.4018 1.69589 14.9935C1.80062 15.7274 2.18141 16.3937 2.76057 16.8566C1.05755 17.2405 9.81849e-08 18.1821 9.81849e-08 19.4365V24.5833C-0.000156152 24.8133 0.186198 24.9998 0.416198 25C0.416354 25 0.41651 25 0.416667 25H24.5833C24.8133 25.0002 24.9998 24.8138 25 24.5838C25 24.5836 25 24.5835 25 24.5833V19.4365C25 18.1821 23.9424 17.2405 22.2394 16.8566ZM2.5 14.5833C2.5 13.4328 3.43276 12.5 4.58333 12.5C5.73391 12.5 6.66667 13.4328 6.66667 14.5833C6.66667 15.7339 5.73391 16.6667 4.58333 16.6667C3.43328 16.6653 2.50135 15.7334 2.5 14.5833ZM7.91667 19.4365V24.1667H0.833333V19.4365C0.833333 18.1059 2.77708 17.5 4.58333 17.5C6.2376 17.5 7.53786 17.946 8.06589 18.6693C7.96786 18.9132 7.91719 19.1736 7.91667 19.4365ZM10.4167 14.5833C10.4167 13.4328 11.3494 12.5 12.5 12.5C13.6506 12.5 14.5833 13.4328 14.5833 14.5833C14.5833 15.7339 13.6506 16.6667 12.5 16.6667C11.3499 16.6653 10.418 15.7334 10.4167 14.5833ZM16.25 24.1667H8.75V19.4365C8.75 18.1059 10.6937 17.5 12.5 17.5C14.3062 17.5 16.25 18.1059 16.25 19.4365V24.1667ZM18.3333 14.5833C18.3333 13.4328 19.2661 12.5 20.4167 12.5C21.5672 12.5 22.5 13.4328 22.5 14.5833C22.5 15.7339 21.5672 16.6667 20.4167 16.6667C19.2666 16.6653 18.3347 15.7334 18.3333 14.5833ZM24.1667 24.1667H17.0833V19.4365C17.0828 19.1736 17.0321 18.9132 16.9341 18.6693C17.4621 17.946 18.7624 17.5 20.4167 17.5C22.2229 17.5 24.1667 18.1059 24.1667 19.4365V24.1667Z" fill="white"/>
<path d="M20.4171 9.81849e-08C20.4169 9.81849e-08 20.4168 9.81849e-08 20.4166 9.81849e-08H4.58329C4.35329 -0.000156152 4.16678 0.186198 4.16663 0.416198C4.16663 0.416354 4.16663 0.41651 4.16663 0.416667V2.5H4.99996V0.833333H20V5.83333H20.8333V0.416667C20.8334 0.186667 20.6471 0.000156348 20.4171 9.81849e-08Z" fill="white"/>
<path d="M17.0833 1.66666H16.25V2.49999H17.0833V1.66666Z" fill="white"/>
<path d="M17.0833 3.33334H16.25V4.16668H17.0833V3.33334Z" fill="white"/>
<path d="M17.0833 5H16.25V5.83333H17.0833V5Z" fill="white"/>
<path d="M17.0833 6.66666H16.25V7.49999H17.0833V6.66666Z" fill="white"/>
<path d="M8.74996 1.66666H7.91663V2.49999H8.74996V1.66666Z" fill="white"/>
<path d="M8.74996 3.33334H7.91663V4.16668H8.74996V3.33334Z" fill="white"/>
<path d="M8.74996 5H7.91663V5.83333H8.74996V5Z" fill="white"/>
<path d="M8.74996 6.66666H7.91663V7.49999H8.74996V6.66666Z" fill="white"/>
<path d="M17.0833 8.33334H16.25V9.16668H17.0833V8.33334Z" fill="white"/>
<path d="M18.75 1.66666H17.9166V2.49999H18.75V1.66666Z" fill="white"/>
<path d="M18.75 3.33334H17.9166V4.16668H18.75V3.33334Z" fill="white"/>
<path d="M18.75 5H17.9166V5.83333H18.75V5Z" fill="white"/>
<path d="M18.75 6.66666H17.9166V7.49999H18.75V6.66666Z" fill="white"/>
<path d="M18.75 8.33334H17.9166V9.16668H18.75V8.33334Z" fill="white"/>
<path d="M15.4166 8.33334H14.5833V9.16668H15.4166V8.33334Z" fill="white"/>
<path d="M13.75 8.33334H12.9166V9.16668H13.75V8.33334Z" fill="white"/>
<path d="M12.0833 8.33334H11.25V9.16668H12.0833V8.33334Z" fill="white"/>
<path d="M10.4167 8.33334H9.58337V9.16668H10.4167V8.33334Z" fill="white"/>
<path d="M8.74996 8.33334H7.91663V9.16668H8.74996V8.33334Z" fill="white"/>
<path d="M7.08333 1.66666H6.25V2.49999H7.08333V1.66666Z" fill="white"/>
<path d="M7.08333 3.33334H6.25V4.16668H7.08333V3.33334Z" fill="white"/>
<path d="M7.08333 5H6.25V5.83333H7.08333V5Z" fill="white"/>
<path d="M7.08333 6.66666H6.25V7.49999H7.08333V6.66666Z" fill="white"/>
<path d="M7.08333 8.33334H6.25V9.16668H7.08333V8.33334Z" fill="white"/>
<path d="M17.0833 10H16.25V10.8333H17.0833V10Z" fill="white"/>
<path d="M18.75 10H17.9166V10.8333H18.75V10Z" fill="white"/>
<path d="M15.4166 10H14.5833V10.8333H15.4166V10Z" fill="white"/>
<path d="M13.75 10H12.9166V10.8333H13.75V10Z" fill="white"/>
<path d="M12.0833 10H11.25V10.8333H12.0833V10Z" fill="white"/>
<path d="M10.4167 10H9.58337V10.8333H10.4167V10Z" fill="white"/>
<path d="M8.74996 10H7.91663V10.8333H8.74996V10Z" fill="white"/>
<path d="M7.08333 10H6.25V10.8333H7.08333V10Z" fill="white"/>
<path d="M4.58337 3.33332C3.89332 3.33259 3.3341 2.77338 3.33337 2.08332C3.33337 1.85322 3.14681 1.66666 2.91671 1.66666C2.6866 1.66666 2.50004 1.85322 2.50004 2.08332C2.49931 2.77338 1.94009 3.33259 1.25004 3.33332C1.01994 3.33332 0.833374 3.51989 0.833374 3.74999C0.833374 3.98009 1.01994 4.16666 1.25004 4.16666C1.94009 4.16739 2.49931 4.7266 2.50004 5.41666C2.50004 5.64676 2.6866 5.83332 2.91671 5.83332C3.14681 5.83332 3.33337 5.64676 3.33337 5.41666C3.3341 4.7266 3.89332 4.16739 4.58337 4.16666C4.81348 4.16666 5.00004 3.98009 5.00004 3.74999C5.00004 3.51989 4.81348 3.33332 4.58337 3.33332ZM2.91671 4.16785C2.79785 4.00952 2.65712 3.86884 2.49884 3.74999C2.65718 3.63114 2.79785 3.49041 2.91671 3.33213C3.03556 3.49046 3.17629 3.63114 3.33457 3.74999C3.17629 3.86884 3.03556 4.00957 2.91671 4.16785Z" fill="white"/>
<path d="M24.1667 6.66667C23.4766 6.66594 22.9174 6.10672 22.9167 5.41667C22.9167 5.18656 22.7301 5 22.5 5C22.2699 5 22.0834 5.18656 22.0834 5.41667C22.0826 6.10672 21.5234 6.66594 20.8334 6.66667C20.6032 6.66667 20.4167 6.85323 20.4167 7.08333C20.4167 7.31344 20.6032 7.5 20.8334 7.5C21.5234 7.50073 22.0826 8.05995 22.0834 8.75C22.0834 8.9801 22.2699 9.16667 22.5 9.16667C22.7301 9.16667 22.9167 8.9801 22.9167 8.75C22.9174 8.05995 23.4766 7.50073 24.1667 7.5C24.3968 7.5 24.5834 7.31344 24.5834 7.08333C24.5834 6.85323 24.3968 6.66667 24.1667 6.66667ZM22.5 7.5012C22.3812 7.34286 22.2405 7.20219 22.0822 7.08333C22.2405 6.96448 22.3812 6.82375 22.5 6.66547C22.6189 6.8238 22.7596 6.96448 22.9179 7.08333C22.7596 7.20219 22.6189 7.34286 22.5 7.5012Z" fill="white"/>
</svg>
