<svg width="36" height="36" viewBox="0 0 36 36" fill="none" xmlns="http://www.w3.org/2000/svg">
<path d="M33.6644 13.9466L31.1863 13.5262C30.9282 12.6928 30.5963 11.8889 30.1907 11.1219L31.651 9.07894C32.2705 8.20866 32.1746 7.02125 31.415 6.26897L29.2171 4.07114C28.8041 3.65813 28.2584 3.42949 27.6757 3.42949C27.2185 3.42949 26.7833 3.56962 26.4145 3.83513L24.3642 5.29544C23.5677 4.87505 22.7343 4.52841 21.8714 4.27027L21.4584 1.82169C21.2814 0.767027 20.3742 0 19.3048 0H16.1998C15.1304 0 14.2233 0.767027 14.0462 1.82169L13.6185 4.32928C12.7925 4.58741 11.9885 4.92667 11.2215 5.33969L9.19333 3.87939C8.82457 3.61388 8.38205 3.47375 7.92478 3.47375C7.34214 3.47375 6.789 3.70238 6.38336 4.11539L4.17815 6.31322C3.42588 7.0655 3.32262 8.25291 3.94215 9.12319L5.4172 11.1956C5.01156 11.97 4.68705 12.7739 4.43629 13.6074L1.9877 14.0204C0.933042 14.1974 0.166016 15.1045 0.166016 16.1739V19.2789C0.166016 20.3483 0.933042 21.2555 1.9877 21.4325L4.49529 21.8603C4.75342 22.6863 5.09269 23.4902 5.5057 24.2572L4.05278 26.278C3.43325 27.1483 3.52913 28.3357 4.28878 29.088L6.48661 31.2858C6.89962 31.6989 7.44539 31.9275 8.02804 31.9275C8.4853 31.9275 8.92044 31.7874 9.28921 31.5218L11.3617 30.0468C12.1066 30.4377 12.8883 30.7548 13.6922 31.0056L14.1052 33.4837C14.2823 34.5383 15.1894 35.3054 16.2588 35.3054H19.3712C20.4406 35.3054 21.3477 34.5383 21.5248 33.4837L21.9451 31.0056C22.7785 30.7474 23.5825 30.4156 24.3495 30.0099L26.3924 31.4702C26.7612 31.7357 27.2037 31.8759 27.661 31.8759C28.2436 31.8759 28.7894 31.6472 29.2024 31.2342L31.4002 29.0364C32.1525 28.2841 32.2558 27.0967 31.6362 26.2264L30.1759 24.1761C30.5816 23.4017 30.9208 22.5978 31.1716 21.7718L33.6497 21.3587C34.7043 21.1817 35.4714 20.2746 35.4714 19.2052V16.1002C35.4861 15.0308 34.7191 14.1236 33.6644 13.9466ZM33.4948 19.2052C33.4948 19.301 33.4284 19.3822 33.3325 19.3969L30.2349 19.9132C29.844 19.9796 29.5343 20.2672 29.4384 20.6433C29.1581 21.7275 28.7304 22.7674 28.1551 23.7336C27.956 24.0728 27.9707 24.4932 28.1994 24.8177L30.021 27.3843C30.0727 27.4581 30.0653 27.5687 29.9989 27.6351L27.8011 29.8329C27.7495 29.8845 27.6978 29.8919 27.661 29.8919C27.6167 29.8919 27.5798 29.8772 27.5503 29.855L24.9911 28.0334C24.674 27.8047 24.2462 27.79 23.907 27.9891C22.9408 28.5644 21.9009 28.9921 20.8167 29.2724C20.4332 29.3683 20.1456 29.6854 20.0866 30.0689L19.5629 33.1665C19.5482 33.2624 19.4671 33.3288 19.3712 33.3288H16.2662C16.1703 33.3288 16.0892 33.2624 16.0744 33.1665L15.5582 30.0689C15.4918 29.678 15.2042 29.3683 14.828 29.2724C13.7734 28.9995 12.7556 28.5791 11.8042 28.0334C11.6493 27.9449 11.4723 27.9006 11.3027 27.9006C11.1035 27.9006 10.897 27.9596 10.7274 28.085L8.14604 29.9214C8.10917 29.9435 8.07229 29.9583 8.03541 29.9583C8.00591 29.9583 7.94691 29.9509 7.89528 29.8993L5.69746 27.7015C5.63108 27.6351 5.6237 27.5318 5.67533 27.4507L7.48964 24.9062C7.71828 24.5817 7.73303 24.154 7.5339 23.8147C6.95863 22.8559 6.51611 21.816 6.23585 20.7318C6.1326 20.3557 5.82284 20.0681 5.43932 20.0017L2.31959 19.4707C2.22371 19.4559 2.15733 19.3748 2.15733 19.2789V16.1739C2.15733 16.0781 2.22371 15.9969 2.31959 15.9822L5.39507 15.4659C5.78596 15.3995 6.1031 15.1119 6.19897 14.7284C6.47186 13.6442 6.89225 12.5969 7.46014 11.6308C7.65928 11.2915 7.63715 10.8711 7.40852 10.554L5.57208 7.97265C5.52045 7.8989 5.52783 7.78827 5.5942 7.72189L7.79203 5.52407C7.84366 5.47244 7.89528 5.46507 7.93216 5.46507C7.97641 5.46507 8.01329 5.47982 8.04279 5.50194L10.5873 7.31626C10.9118 7.54489 11.3395 7.55964 11.6788 7.36051C12.6376 6.78524 13.6775 6.34272 14.7616 6.06246C15.1378 5.95921 15.4254 5.64945 15.4918 5.26593L16.0228 2.1462C16.0376 2.05032 16.1187 1.98394 16.2146 1.98394H19.3196C19.4154 1.98394 19.4966 2.05032 19.5113 2.1462L20.0276 5.22168C20.094 5.61257 20.3816 5.92971 20.7651 6.02559C21.8788 6.30584 22.9408 6.74099 23.9291 7.32363C24.2684 7.52276 24.6887 7.50801 25.0133 7.27938L27.5577 5.45032C27.5946 5.42819 27.6315 5.41344 27.6683 5.41344C27.6978 5.41344 27.7568 5.42081 27.8085 5.47244L30.0063 7.67027C30.0727 7.73665 30.0801 7.8399 30.0284 7.92103L28.2067 10.4802C27.9781 10.7974 27.9634 11.2251 28.1625 11.5644C28.7378 12.5306 29.1655 13.5705 29.4458 14.6546C29.5417 15.0381 29.8588 15.3258 30.2423 15.3848L33.3399 15.9084C33.4358 15.9232 33.5022 16.0043 33.5022 16.1002V19.2052H33.4948V19.2052Z" fill="white"/>
<path d="M17.8225 10.0291C13.6186 10.0291 10.2039 13.4438 10.2039 17.6477C10.2039 21.8516 13.6186 25.2663 17.8225 25.2663C22.0264 25.2663 25.4411 21.8516 25.4411 17.6477C25.4411 13.4438 22.0264 10.0291 17.8225 10.0291ZM17.8225 23.275C14.7175 23.275 12.1952 20.7527 12.1952 17.6477C12.1952 14.5427 14.7175 12.0204 17.8225 12.0204C20.9275 12.0204 23.4498 14.5427 23.4498 17.6477C23.4498 20.7527 20.9275 23.275 17.8225 23.275Z" fill="white"/>
</svg>
