<svg width="56" height="35" viewBox="0 0 56 35" fill="none" xmlns="http://www.w3.org/2000/svg">
<path fill-rule="evenodd" clip-rule="evenodd" d="M13.399 10.3704L14.5421 8.86666C14.5966 8.76296 14.651 8.71111 14.7599 8.65926C14.8687 8.6074 14.9232 8.55556 15.032 8.55556H15.1954C15.2498 8.55556 15.3042 8.55556 15.3587 8.55556C15.4675 8.55556 15.522 8.6074 15.6308 8.65926L16.6651 9.38518V9.12592C16.6651 9.02222 16.6651 8.86667 16.7196 8.76297L13.2901 6.42963C12.3647 7.67408 11.4937 8.91851 10.5683 10.163L17.2639 14.5704L17.155 13.6889L13.6712 11.3556C13.5623 11.3037 13.5079 11.2519 13.4534 11.1482C13.399 11.0444 13.3445 10.9926 13.3445 10.8889C13.3445 10.7852 13.3445 10.6815 13.3445 10.6296C13.2901 10.5778 13.3445 10.4741 13.399 10.3704ZM36.3164 3.62964C36.5341 3.83704 36.6974 4.04444 36.8607 4.25185C37.024 4.45926 37.1873 4.71853 37.3506 4.92593C37.5139 5.13334 37.6228 5.3926 37.7861 5.65186C37.895 5.91111 38.0583 6.17037 38.1127 6.37778C38.2216 6.63704 38.3305 6.8963 38.3849 7.15556C38.4393 7.41481 38.5482 7.67407 38.6027 7.93333C38.6027 8.03704 38.6571 8.14074 38.6571 8.24445V8.2963L41.651 6.22223V6.17037C41.651 6.11852 41.651 6.11852 41.651 6.06666V6.01481C41.651 5.96296 41.7055 5.85926 41.7055 5.8074C41.7599 5.75555 41.8144 5.70371 41.8688 5.65186L42.8486 4.97777C42.9031 4.92592 42.9575 4.92593 43.0664 4.87408C43.1208 4.87408 43.2297 4.87408 43.2841 4.87408C43.3385 4.87408 43.4474 4.92593 43.5019 4.92593L43.5563 4.97777C43.9373 4.71851 44.264 4.45925 44.5906 4.19999C44.9172 3.88888 45.2438 3.57778 45.5704 3.21481C45.897 2.85185 46.1692 2.4889 46.4414 2.07408C46.7136 1.65927 46.9313 1.29629 47.149 0.88148L47.2579 0.674075C49.9797 0.414816 52.7015 0.207407 55.3688 0C54.2257 2.33333 53.0825 4.71851 51.8849 7.05185H51.6672C51.1773 7.1037 50.6874 7.15556 50.2519 7.25927C49.762 7.36297 49.3265 7.46666 48.8365 7.62222C48.4011 7.77777 47.9656 7.93333 47.5301 8.14074C47.149 8.34814 46.768 8.55556 46.3869 8.76297V8.81482C46.3869 8.86667 46.3869 8.97037 46.3869 9.02222V9.07408C46.3869 9.12593 46.3325 9.17778 46.3325 9.22963C46.2781 9.28148 46.2236 9.33333 46.1692 9.38518L45.1894 10.0593C45.1349 10.1111 45.0805 10.1111 44.9716 10.163C44.9172 10.163 44.8083 10.163 44.7539 10.163C44.6994 10.163 44.645 10.163 44.5906 10.1111L38.2216 14.1556C38.1672 14.6741 38.1127 15.1926 38.0583 15.7111C38.0039 16.2815 37.9494 16.8 37.9494 17.3704C37.895 18.0963 37.895 18.8222 37.895 19.6C37.895 20.3778 37.895 21.1556 37.9494 21.9852L46.5502 27.7926L46.2236 28.2593L48.5644 30.1259C48.6188 30.1778 48.7821 30.2815 48.7821 30.3333C48.9454 30.4889 49.0543 30.6444 49.1632 30.8519C49.272 31.0593 49.3265 31.2667 49.3265 31.4741C49.3265 31.6815 49.3265 31.8889 49.272 32.0963C49.2176 32.3037 49.1087 32.5111 48.9998 32.6667C48.891 32.8222 48.7277 32.9778 48.5644 33.1333C48.4011 33.237 48.1833 33.3407 47.9656 33.3926C47.7478 33.4444 47.5301 33.4963 47.3124 33.4444C47.0946 33.4444 46.8769 33.3926 46.6591 33.2889C46.6047 33.2889 46.5503 33.237 46.4958 33.237L46.4414 33.1852L46.3869 33.1333L43.774 31.6815L43.2297 32.4074L38.0039 28.9852C37.895 29.4 37.7317 29.763 37.514 30.1259C37.2962 30.5407 37.024 30.9556 36.6974 31.3185C36.1531 31.9926 35.4454 32.6148 34.6833 33.1333C33.8668 33.6518 32.9958 34.0667 32.016 34.3778C31.6893 34.4815 31.3627 34.5852 30.9817 34.637C30.6551 34.7407 30.274 34.7926 29.893 34.8444C29.5119 34.8963 29.1853 34.9481 28.8043 34.9481C28.4232 35 28.0422 35 27.7155 35C27.3345 35 26.9535 35 26.6268 34.9481C26.2458 34.8963 25.9192 34.8963 25.5381 34.8444C25.1571 34.7926 24.8305 34.7407 24.4494 34.637C24.1228 34.5333 23.7417 34.4815 23.4151 34.3778C22.4353 34.0667 21.5643 33.6518 20.7478 33.1333C19.9857 32.6148 19.278 32.0444 18.7337 31.3185C18.2982 30.7481 17.9171 30.1259 17.645 29.4518C17.4272 28.8815 17.2639 28.2592 17.155 27.5333L8.71752 32.9259C8.55421 33.0296 8.33648 33.1333 8.11874 33.1852C7.90099 33.237 7.68325 33.237 7.4655 33.1852C7.24776 33.1333 7.03002 33.0815 6.86671 32.9778C6.7034 32.8741 6.5401 32.7185 6.37679 32.563C6.26792 32.4074 6.15905 32.2 6.10461 31.9926C6.05018 31.7852 6.05018 31.5778 6.10461 31.3704C6.15905 31.163 6.21348 30.9556 6.32235 30.8C6.43122 30.6444 6.59454 30.4889 6.75785 30.3333L17.3728 22.9185C17.4272 21.8296 17.4816 20.8444 17.4816 19.963C17.4816 19.0296 17.4272 18.1481 17.3728 17.2667C17.3728 16.9556 17.3183 16.6444 17.3183 16.2815C17.3183 15.9704 17.2639 15.6593 17.2639 15.4L9.47963 10.3185C9.20745 10.163 8.88083 10.0074 8.60865 9.9037C8.33648 9.79999 8.00986 9.64445 7.73768 9.54074C7.41107 9.43704 7.13888 9.33333 6.81227 9.22963C6.48566 9.12593 6.21349 9.07408 5.88687 9.02222H5.83244C4.74372 7.57037 3.60057 6.11852 2.51186 4.66667L2.62074 4.51111L2.403 4.56296L0.933233 2.43703L1.20541 2.07408C0.878797 1.76297 0.552191 1.5037 0.225577 1.19259C0.116706 1.08889 0.116699 0.933328 0.116699 0.829625C0.116699 0.674069 0.171141 0.570372 0.225577 0.414816C0.334448 0.311113 0.443309 0.207409 0.606616 0.155557C0.715487 0.103705 0.878801 0.103705 0.987672 0.155557C1.36872 0.362964 1.8042 0.518523 2.18524 0.72593L2.45742 0.362961L5.0159 0.933335L5.07034 1.14074L5.1792 0.98519C6.97558 1.50371 8.82639 1.97037 10.6228 2.48889L10.6772 2.54074C10.8405 2.8 11.0038 3.05926 11.2216 3.26667C11.3849 3.52593 11.6026 3.73333 11.8204 3.99259C12.0381 4.2 12.2558 4.45927 12.4736 4.66667C12.6913 4.87408 12.9091 5.08148 13.1812 5.28889L16.7196 7.67407C16.774 7.41481 16.8284 7.15556 16.9373 6.8963C17.0462 6.63704 17.1006 6.37777 17.2639 6.06666C17.3728 5.8074 17.4817 5.54815 17.645 5.28889C17.8083 5.02963 17.9171 4.77037 18.0804 4.56296C18.2437 4.3037 18.4071 4.0963 18.6248 3.8889C18.7881 3.68149 19.0059 3.47407 19.2236 3.26667C19.278 3.21482 19.3325 3.16297 19.3869 3.11112C19.8224 2.6963 20.3667 2.33334 20.9655 2.07408C21.5643 1.76297 22.272 1.50371 22.9796 1.2963C23.7417 1.0889 24.5038 0.933328 25.3204 0.829625C26.1369 0.725921 26.9534 0.674075 27.8244 0.674075C28.6409 0.674075 29.5119 0.725924 30.3284 0.88148C31.145 0.985183 31.9071 1.19259 32.6148 1.4C33.3224 1.60741 33.9756 1.91852 34.5744 2.22963C34.7377 2.33333 34.8466 2.38519 35.0099 2.48889L34.901 2.28149L35.0644 2.54074C35.4454 2.8 35.772 3.05927 36.0986 3.37038L36.3164 3.62964ZM38.8204 9.33334C38.8204 9.48889 38.8204 9.59259 38.8204 9.74815H38.8748L38.8204 10.3185C38.8204 10.5778 38.766 10.837 38.7115 11.0963L38.4393 13.2222L44.1006 9.64444L42.1954 7.05185L38.8204 9.33334ZM37.9494 23.2296L38.0039 23.6963C38.0039 23.9555 38.0583 24.2148 38.0583 24.5259C38.0583 24.6296 38.0583 24.7852 38.1127 24.8889L38.2216 25.563C38.2216 25.6667 38.276 25.7704 38.276 25.8741V26.0815V26.2889V26.4963V26.7037C38.276 27.0148 38.276 27.2741 38.2216 27.5852C38.2216 27.8444 38.1672 28.0518 38.1127 28.3111L40.9978 30.2296L43.393 26.963L37.9494 23.2296ZM17.1006 26.8593V26.7555V26.5481V26.3407V26.1333V25.9259C17.1006 25.7185 17.155 25.5111 17.2095 25.3037C17.2639 25.0444 17.3183 24.7852 17.3183 24.4741V24.3704L7.3022 31.3704C7.19333 31.4222 7.13888 31.5259 7.08445 31.5778C7.03001 31.6815 6.97559 31.7333 6.97559 31.837C6.97559 31.9407 6.97559 32.0444 6.97559 32.1481C6.97559 32.2519 7.03001 32.3556 7.08445 32.4074C7.13888 32.5111 7.24777 32.563 7.3022 32.6148C7.41107 32.6667 7.46551 32.7185 7.57438 32.7185C7.68325 32.7185 7.79211 32.7185 7.90098 32.7185C8.00985 32.7185 8.11872 32.6667 8.17316 32.6148L17.1006 26.8593ZM16.774 11.5111L16.2841 12.1852L14.1611 10.7852L15.1409 9.48889L16.6107 10.4741C16.6107 10.6815 16.6651 10.8889 16.7196 11.1482L16.774 11.5111ZM28.151 4.0963L28.2599 4.14816C28.3688 4.14816 28.4232 4.2 28.4776 4.25185C28.5865 4.3037 28.641 4.35556 28.7498 4.40741C28.8587 4.45927 28.9131 4.51111 28.9676 4.61482C29.0764 4.71852 29.1309 4.77037 29.1853 4.87408C29.2397 4.97778 29.2942 5.08149 29.3486 5.18519C29.4031 5.2889 29.403 5.39259 29.4575 5.49629C29.4575 5.59999 29.5119 5.7037 29.5119 5.85926V8.55556C29.5119 8.65926 29.5119 8.76296 29.4575 8.91851C29.4575 9.02222 29.4031 9.12593 29.3486 9.22963C29.2942 9.33333 29.2397 9.43704 29.1853 9.54074C29.1309 9.64445 29.022 9.74815 28.9676 9.8C28.9131 9.85185 28.8043 9.95555 28.7498 10.0074C28.641 10.0593 28.5865 10.1111 28.4776 10.163C28.4232 10.2148 28.3143 10.2148 28.2599 10.2667L28.151 10.3185V17.3704C28.151 17.4222 28.151 17.4741 28.0966 17.5259C28.0966 17.5778 28.0422 17.6296 27.9877 17.6815C27.9333 17.7333 27.8788 17.7333 27.8244 17.7852C27.77 17.7852 27.7155 17.837 27.6611 17.837C27.6067 17.837 27.5522 17.837 27.4978 17.7852C27.4434 17.7852 27.3889 17.7333 27.3345 17.6815C27.2801 17.6296 27.2801 17.5778 27.2256 17.5259C27.2256 17.4741 27.1712 17.4222 27.1712 17.3704V10.3185L27.0623 10.2667C27.0079 10.2667 26.899 10.2148 26.8446 10.163C26.7357 10.1111 26.6813 10.0593 26.5724 10.0074C26.518 9.95555 26.4635 9.90371 26.3547 9.85186L26.3002 9.8C26.1913 9.6963 26.1369 9.64445 26.0825 9.54074C26.028 9.43704 25.9736 9.33333 25.9192 9.22963C25.8647 9.12593 25.8647 9.02222 25.8103 8.91851C25.8103 8.81481 25.7559 8.71112 25.7559 8.55556V5.85926C25.7559 5.75556 25.7559 5.65185 25.8103 5.49629C25.8103 5.39259 25.8647 5.2889 25.9192 5.18519C25.9736 5.08149 26.028 4.97778 26.0825 4.87408C26.1369 4.77037 26.2458 4.66667 26.3002 4.61482C26.3547 4.56297 26.4635 4.45927 26.518 4.40741C26.6268 4.35556 26.6813 4.3037 26.7901 4.25185C26.8446 4.2 26.9534 4.20001 27.0079 4.14816C27.0623 4.14816 27.0623 4.14815 27.1168 4.0963V1.97037C26.899 1.97037 26.6268 1.97037 26.4091 2.02223C26.1369 2.02223 25.8647 2.07407 25.5925 2.12592C25.3204 2.17777 25.0482 2.22963 24.776 2.28149C24.5038 2.33334 24.2317 2.38518 24.0139 2.43703C23.7417 2.54074 23.4151 2.59259 23.1429 2.69629C22.8708 2.8 22.5986 2.90371 22.3264 3.05926C22.0542 3.21482 21.7821 3.37037 21.5099 3.52593C21.2377 3.73333 20.9655 3.94075 20.7478 4.14816C20.5845 4.30371 20.4756 4.40741 20.3123 4.56296C20.2034 4.71852 20.0401 4.87407 19.9312 5.02963C19.8224 5.18518 19.7135 5.34073 19.6046 5.49629C19.4958 5.65185 19.4413 5.8074 19.3325 6.01481C19.278 6.17036 19.1692 6.37777 19.1147 6.58518C19.0603 6.79259 19.0059 7 18.9514 7.20741C18.897 7.41482 18.897 7.67407 18.8425 7.93333C18.8425 8.19259 18.7881 8.45185 18.7881 8.71111C18.7881 8.86667 18.7881 9.02222 18.7881 9.12592C18.7881 9.28147 18.7881 9.43704 18.7881 9.54074C18.7881 9.6963 18.7881 9.8 18.7881 9.95555C18.7881 10.1111 18.7881 10.2148 18.8425 10.3704C18.8425 10.5259 18.897 10.6815 18.897 10.7852C18.897 10.9407 18.9514 11.0963 18.9514 11.2C18.9514 11.3037 19.0059 11.4593 19.0059 11.6148L19.0603 12.0296C19.1147 12.2889 19.1692 12.5481 19.2236 12.8074C19.278 13.0667 19.3325 13.3259 19.3869 13.5333C19.4413 13.7926 19.4958 14.0519 19.5502 14.2593L19.7135 14.9852C19.9857 16.1259 20.2579 17.2148 20.4212 18.4074C20.53 18.9778 20.5845 19.6 20.5845 20.2222C20.5845 20.8444 20.5845 21.4667 20.53 22.1407C20.53 22.3481 20.4756 22.6074 20.4756 22.8667C20.4212 23.437 20.3667 24.0593 20.2579 24.5259C20.2034 24.837 20.2034 25.0963 20.149 25.4074C20.149 25.6667 20.0946 25.9259 20.0946 26.1852C20.0946 26.4444 20.0946 26.6518 20.0946 26.8593C20.0946 27.0667 20.149 27.2741 20.149 27.4815C20.2034 27.6889 20.2579 27.8444 20.3123 28.0518C20.3667 28.2592 20.4212 28.4148 20.53 28.6222C20.6389 28.8296 20.6934 28.9852 20.8567 29.1407C20.9655 29.2963 21.1288 29.5037 21.2377 29.7111C21.401 29.9185 21.5643 30.1259 21.7821 30.2815C21.9998 30.4889 22.2175 30.6444 22.4353 30.8C22.653 30.9556 22.9252 31.1111 23.1974 31.2667C23.4696 31.4222 23.7417 31.5259 24.0684 31.6296C24.5038 31.7852 25.0482 31.8889 25.647 31.9926C26.2458 32.0963 26.9534 32.1481 27.6067 32.1481C28.2599 32.1481 28.9676 32.0963 29.5664 31.9926C30.1651 31.8889 30.7095 31.7852 31.145 31.6296C31.4716 31.5259 31.7438 31.3704 32.016 31.2667C32.2881 31.1111 32.5603 30.9556 32.7781 30.8C32.9958 30.6444 33.2135 30.437 33.4313 30.2815C33.649 30.0741 33.8123 29.9185 33.9756 29.7111C34.1389 29.5037 34.2478 29.3481 34.3567 29.1407C34.4656 28.9852 34.5744 28.7778 34.6833 28.6222C34.7922 28.4667 34.8466 28.2592 34.901 28.0518C34.9555 27.8444 35.0099 27.6889 35.0644 27.4815C35.1188 27.2741 35.1188 27.0667 35.1188 26.8593C35.1188 26.6518 35.1188 26.3926 35.1188 26.1852C35.1188 25.9259 35.1188 25.6667 35.0644 25.4074C35.0644 25.1481 35.0099 24.837 34.9555 24.5259C34.8466 24.0593 34.7922 23.437 34.7377 22.8667C34.7377 22.6074 34.6833 22.3481 34.6833 22.1407C34.52 20.7926 34.5744 19.6 34.7377 18.4074C34.901 17.2667 35.1732 16.1259 35.4454 14.9852C35.5543 14.5185 35.6631 14 35.772 13.5333C35.8809 13.0148 35.9898 12.5481 36.0986 12.0296L36.1531 11.6148L36.2075 11.2C36.2075 11.0444 36.2619 10.9407 36.2619 10.7852C36.2619 10.6296 36.3164 10.5259 36.3164 10.3704C36.3164 10.2148 36.3164 10.0593 36.3708 9.95555C36.3708 9.8 36.3708 9.64445 36.3708 9.54074C36.3708 9.38519 36.3708 9.22962 36.3708 9.12592C36.3708 8.97036 36.3708 8.81481 36.3708 8.71111C36.3708 8.45185 36.3708 8.19259 36.3164 7.93333C36.3164 7.67407 36.2619 7.46667 36.2075 7.20741C36.1531 7 36.0986 6.79259 36.0442 6.58518C35.9898 6.37777 35.9353 6.22222 35.8264 6.01481C35.772 5.85925 35.6631 5.65185 35.5543 5.49629C35.4454 5.34073 35.3365 5.18518 35.2277 5.02963C35.1188 4.87407 35.0099 4.71852 34.8466 4.56296C34.7377 4.40741 34.5744 4.30371 34.4111 4.14816C34.1389 3.94075 33.9212 3.73333 33.649 3.52593C33.3768 3.31852 33.1047 3.16297 32.8325 3.05926C32.5603 2.90371 32.2881 2.8 32.016 2.69629C31.7438 2.59259 31.4172 2.48889 31.145 2.43703C30.8728 2.38518 30.6006 2.28148 30.3284 2.22963C30.0563 2.17778 29.7297 2.12593 29.403 2.07408C29.1309 2.02223 28.8043 2.02222 28.4776 1.97037C28.2055 1.97037 27.9877 1.91852 27.7155 1.91852V4.0963H28.151ZM28.3688 5.13334C28.3143 5.08148 28.2599 5.02963 28.2055 5.02963C28.151 4.97777 28.0966 4.97778 28.0421 4.92593C27.9877 4.92593 27.9333 4.87408 27.8788 4.87408C27.8244 4.87408 27.77 4.87408 27.7155 4.87408C27.6611 4.87408 27.6067 4.87408 27.5522 4.87408C27.4978 4.87408 27.4434 4.92593 27.3889 4.92593C27.3345 4.92593 27.2801 4.97777 27.2256 5.02963C27.1712 5.08148 27.1168 5.08148 27.0623 5.13334C27.0079 5.18519 26.9534 5.23703 26.9534 5.28889C26.899 5.34074 26.899 5.3926 26.8446 5.44445C26.8446 5.4963 26.7901 5.54815 26.7901 5.6C26.7901 5.65185 26.7901 5.7037 26.7901 5.75555V8.45185C26.7901 8.5037 26.7901 8.55555 26.7901 8.6074C26.7901 8.65925 26.8446 8.71111 26.8446 8.76297C26.8446 8.81482 26.899 8.86666 26.9534 8.91851C27.0079 8.97037 27.0079 9.02223 27.0623 9.07408C27.1168 9.12593 27.1712 9.17777 27.2256 9.17777C27.2801 9.22963 27.3345 9.22963 27.3889 9.28148C27.4434 9.28148 27.4978 9.33334 27.5522 9.33334C27.6067 9.33334 27.6611 9.33334 27.7155 9.33334C27.77 9.33334 27.8244 9.33334 27.8788 9.33334C27.9333 9.33334 27.9877 9.28148 28.0421 9.28148C28.0966 9.28148 28.151 9.22963 28.2055 9.17777C28.2599 9.12592 28.3143 9.12593 28.3688 9.07408C28.4232 9.02223 28.4776 8.97037 28.4776 8.91851C28.5321 8.86666 28.5321 8.81482 28.5865 8.76297C28.5865 8.71111 28.6409 8.65925 28.6409 8.6074C28.6409 8.55555 28.6409 8.5037 28.6409 8.45185V5.75555C28.6409 5.7037 28.6409 5.65185 28.6409 5.6C28.6409 5.54815 28.5865 5.4963 28.5865 5.44445C28.5865 5.3926 28.5321 5.34074 28.4776 5.28889C28.4232 5.23703 28.4232 5.23704 28.3688 5.13334ZM23.9595 32.563C23.6329 32.4593 23.3063 32.3037 22.9796 32.1481C22.653 31.9926 22.3809 31.837 22.1087 31.6296C21.8365 31.4222 21.5643 31.2148 21.3466 31.0074C21.1288 30.8 20.9111 30.5407 20.6933 30.3333C20.53 30.1259 20.3667 29.9185 20.2579 29.7111C20.149 29.5037 19.9857 29.2963 19.9312 29.0889C19.8224 28.8815 19.7679 28.6741 19.6591 28.4667C19.6046 28.2593 19.5502 28 19.4958 27.7926C19.4413 27.5852 19.4413 27.3259 19.3869 27.0667C19.3869 26.8074 19.3869 26.5481 19.3869 26.2889C19.3869 26.0296 19.3869 25.7185 19.4413 25.4592C19.4413 25.1481 19.4958 24.837 19.5502 24.5259L19.8224 22.1407C19.8768 21.5185 19.9312 20.8963 19.8768 20.3259C19.8768 19.7555 19.8224 19.1852 19.7135 18.6148C19.5502 17.5259 19.278 16.437 19.0059 15.2963V15.2444C18.897 14.7778 18.7881 14.3111 18.6792 13.7926C18.6248 13.5333 18.5704 13.2741 18.5159 13.0148C18.4615 12.7555 18.4071 12.4963 18.3526 12.237C18.3526 12.0815 18.2982 11.9259 18.2982 11.8222C18.2982 11.6667 18.2437 11.563 18.2437 11.4074C18.2437 11.2519 18.1893 11.0963 18.1893 10.9407C18.1893 10.7852 18.1349 10.6296 18.1349 10.5259C18.1349 10.3704 18.1349 10.2148 18.0804 10.0593C18.0804 9.90371 18.0804 9.74815 18.0804 9.5926C18.0804 9.43704 18.0804 9.28147 18.0804 9.12592C18.0804 8.97036 18.0804 8.81481 18.0804 8.65926C18.0804 8.34814 18.0804 8.08889 18.1349 7.77778C18.1349 7.51852 18.1893 7.25927 18.2437 7.00001C18.2982 6.74075 18.3526 6.53333 18.4071 6.27407C18.4615 6.11851 18.5159 5.96296 18.5704 5.8074L18.5159 5.91111C18.407 6.11852 18.2982 6.37777 18.1893 6.58518C18.0804 6.84444 17.9716 7.05185 17.9171 7.3111C17.8627 7.57036 17.7538 7.82964 17.6994 8.03704C17.645 8.2963 17.5905 8.55556 17.5905 8.81482C17.5905 9.07408 17.5361 9.33334 17.5361 9.5926C17.5361 10.2148 17.645 10.7333 17.6994 11.3037C17.9716 13.4815 18.2437 15.3481 18.3526 17.4222C18.4071 18.4592 18.4615 19.4963 18.4615 20.637C18.4615 21.7778 18.4071 23.0222 18.2982 24.3704C18.2982 24.7333 18.2438 24.9926 18.1893 25.2518C18.1893 25.3037 18.1349 25.5111 18.1349 25.563C18.1349 25.6667 18.0804 25.7704 18.0804 25.8741V26.0815V26.2889V26.4963V26.7037C18.0804 27.5852 18.2438 28.363 18.4615 29.0889C18.7337 29.8148 19.0603 30.437 19.5502 31.0074C20.0401 31.6296 20.6389 32.1481 21.3466 32.6148C22.0542 33.0815 22.8708 33.4444 23.7417 33.7555C24.0684 33.8592 24.395 33.9629 24.6672 34.0148C24.9938 34.0667 25.3204 34.1704 25.647 34.2222C25.9736 34.2741 26.3002 34.3259 26.6813 34.3259C27.0079 34.3259 27.3889 34.3778 27.7155 34.3778C28.0422 34.3778 28.4232 34.3778 28.7498 34.3259C29.0764 34.3259 29.4575 34.2741 29.7841 34.2222C30.1107 34.1704 30.4373 34.1185 30.7639 34.0148C31.0905 33.9629 31.4172 33.8592 31.6893 33.7555C32.5603 33.4963 33.3768 33.0815 34.0845 32.6148C34.7922 32.1481 35.391 31.6296 35.8809 31.0074C36.3164 30.437 36.6974 29.8148 36.9696 29.0889C37.2418 28.363 37.3506 27.5852 37.3506 26.7037V26.4963V26.2889V26.0815V25.8741C37.3506 25.6667 37.2962 25.4593 37.2418 25.3037C37.1873 25.0444 37.1873 24.837 37.1329 24.5259C37.024 23.1259 36.9696 21.8815 36.9696 20.7407C36.9696 19.6 36.9696 18.5111 37.024 17.4741C37.1329 15.4 37.4051 13.4815 37.6773 11.3037C37.7861 10.7333 37.8406 10.163 37.8406 9.5926C37.8406 9.33334 37.8406 9.07407 37.7861 8.86666C37.7861 8.6074 37.7317 8.4 37.6773 8.14074C37.6228 7.88148 37.5684 7.67407 37.514 7.41481L37.4595 7.20741C37.514 7.41482 37.514 7.57038 37.514 7.77778C37.514 8.03704 37.5684 8.34814 37.5684 8.65926C37.5684 8.81481 37.5684 8.97036 37.5684 9.12592C37.5684 9.28147 37.5684 9.43704 37.5684 9.5926C37.5684 9.74815 37.5684 9.90371 37.5684 10.0593C37.5684 10.2148 37.5684 10.3704 37.514 10.5259C37.514 10.6815 37.4595 10.7852 37.4595 10.9407C37.4595 11.0963 37.4051 11.2519 37.4051 11.4074C37.4051 11.563 37.3506 11.7185 37.3506 11.8222C37.3506 11.9778 37.2962 12.0815 37.2962 12.237C37.2418 12.4963 37.1873 12.7555 37.1329 13.0148C37.0785 13.2741 37.024 13.5333 36.9696 13.7926C36.8607 14.2593 36.7519 14.7259 36.643 15.1926V15.2444C36.3708 16.3852 36.0986 17.4222 35.9353 18.563C35.8809 19.1333 35.8264 19.7037 35.772 20.2741C35.772 20.8444 35.772 21.4667 35.8264 22.0889L36.0986 24.4741C36.1531 24.7852 36.1531 25.0963 36.2075 25.4074C36.2075 25.7185 36.2619 25.9778 36.2619 26.237C36.2619 26.4963 36.2619 26.7555 36.2619 27.0148C36.2619 27.2741 36.2075 27.4815 36.1531 27.7407C36.0986 28 36.0442 28.2074 35.9897 28.4148C35.9353 28.6222 35.8264 28.8296 35.7176 29.037C35.6087 29.2444 35.4998 29.4518 35.391 29.6593C35.2821 29.8667 35.1188 30.0741 34.9555 30.2815C34.7922 30.5407 34.5744 30.7481 34.3022 30.9555C34.0845 31.163 33.8123 31.3704 33.5401 31.5778C33.268 31.7852 32.9414 31.9407 32.6692 32.0963C32.3426 32.2518 32.016 32.4074 31.6893 32.5111C31.145 32.7185 30.5462 32.8741 29.893 32.9778C29.2397 33.0815 28.5321 33.1333 27.8244 33.1333C26.4635 33.1852 25.0482 32.9778 23.9595 32.563ZM44.1551 27.4296L41.7599 30.6963L42.9031 31.4741L45.2982 28.2074L44.1551 27.4296ZM3.3284 3.78519L4.41711 2.28149L4.36267 1.76297L2.89292 1.4L1.96751 2.64444L2.83848 3.83704L3.3284 3.78519ZM45.6793 29.1926L44.1551 31.2667C45.0261 31.7333 46.0059 32.3555 46.9313 32.7704C47.0402 32.8222 47.149 32.8222 47.2579 32.8741C47.3668 32.8741 47.4757 32.8741 47.639 32.8222C47.7478 32.7704 47.8567 32.7185 47.9656 32.6667C48.0744 32.6148 48.1289 32.5111 48.2378 32.4074C48.2922 32.3037 48.3466 32.2 48.4011 32.0963C48.4555 31.9926 48.4555 31.8889 48.4555 31.7333C48.4555 31.6296 48.4011 31.5259 48.3466 31.4222C48.2922 31.3185 48.2378 31.2148 48.1289 31.163C47.3668 30.437 46.4414 29.8148 45.6793 29.1926ZM5.6147 2.12592L3.60057 4.87408L6.05017 8.03704L9.53405 3.31852L5.6147 2.12592ZM10.3506 3.68148C10.4595 3.83703 10.5683 3.9926 10.6772 4.14816C10.8405 4.35556 11.0038 4.56296 11.2216 4.77037C11.4393 4.97777 11.657 5.23704 11.8748 5.44445C12.0925 5.65186 12.2558 5.8074 12.4736 6.01481L9.69737 9.8C9.47962 9.6963 9.20745 9.54074 8.93527 9.43703C8.66309 9.33333 8.33648 9.17778 8.0643 9.07408C7.79212 8.97038 7.51995 8.86667 7.3022 8.81482C7.1389 8.76297 6.92115 8.71111 6.75785 8.65926L10.3506 3.68148ZM45.4071 9.07408L43.1208 5.96297L42.6309 6.27407L44.9172 9.38518L45.4071 9.07408ZM53.6269 1.71111L51.2317 3.31852C51.2861 3.47408 51.3406 3.57778 51.3406 3.73333C51.395 3.94074 51.395 4.0963 51.3406 4.3037C51.2862 4.51111 51.2317 4.71853 51.0684 4.92593C50.9595 5.08149 50.7962 5.28889 50.5785 5.3926C50.3608 5.54815 50.143 5.6 49.9253 5.65186C49.7075 5.70371 49.4353 5.70371 49.2176 5.65186C48.9999 5.6 48.7821 5.54815 48.5644 5.3926C48.4011 5.28889 48.1833 5.13334 48.0745 4.92593C47.9111 4.71853 47.8567 4.51111 47.8023 4.3037C47.7478 4.0963 47.7478 3.83704 47.8023 3.62964C47.8567 3.42223 47.9111 3.21482 48.0745 3.00741C48.1833 2.8 48.3466 2.64445 48.5644 2.54074C48.7821 2.38519 48.9999 2.33334 49.2176 2.28149C49.4353 2.22963 49.7075 2.22963 49.9253 2.28149C50.143 2.33334 50.3063 2.38519 50.4696 2.48889C50.5785 2.54074 50.7418 2.64445 50.8507 2.74815L53.2458 1.14074L47.8023 1.6074C47.5845 2.02222 47.3668 2.38519 47.0946 2.74815C46.8224 3.16296 46.5503 3.52593 46.2236 3.8889C45.897 4.25186 45.5704 4.56297 45.2438 4.87408C44.9172 5.18519 44.5906 5.44445 44.2095 5.70371L46.0059 8.19259C46.3869 7.93333 46.768 7.72592 47.149 7.57036C47.5845 7.36296 48.02 7.15555 48.4555 7.05185C48.9454 6.89629 49.3809 6.74074 49.8708 6.63704C50.3063 6.53333 50.7962 6.48148 51.2317 6.42963L53.6269 1.71111ZM50.4152 3.62964L50.1974 3.37038C50.143 3.31853 50.0886 3.26666 49.9797 3.21481C49.9253 3.16296 49.8164 3.16297 49.7075 3.11112C49.5987 3.11112 49.4898 3.11112 49.3809 3.11112C49.272 3.11112 49.1632 3.16296 49.0543 3.26667C48.9454 3.31852 48.891 3.42222 48.8365 3.52593C48.7821 3.62963 48.7277 3.73334 48.7277 3.83704C48.7277 3.94074 48.7277 4.04445 48.7277 4.14816C48.7277 4.25186 48.7821 4.35555 48.891 4.45925C48.9454 4.56296 49.0543 4.61482 49.1632 4.66667C49.272 4.71853 49.3809 4.77037 49.4898 4.77037C49.5987 4.77037 49.7075 4.77037 49.8164 4.77037C49.9253 4.77037 50.0341 4.71852 50.143 4.61482C50.2519 4.56297 50.3063 4.45926 50.3607 4.35556C50.4152 4.25186 50.4696 4.14815 50.4696 4.04445C50.4696 3.94074 50.4696 3.88889 50.4696 3.78519C50.4696 3.78519 50.4696 3.73334 50.4152 3.62964Z" fill="#F2994A"/>
</svg>
