<svg width="40" height="46" viewBox="0 0 40 46" fill="none" xmlns="http://www.w3.org/2000/svg">
<path d="M37.4684 16.1559H36.3839V10.9229C36.3839 10.8902 36.3787 10.8574 36.3744 10.8243C36.3727 10.6165 36.3066 10.4124 36.1643 10.2507L27.4559 0.302915C27.4533 0.300373 27.4508 0.299471 27.449 0.296683C27.3971 0.238707 27.3365 0.19049 27.2726 0.148751C27.2536 0.136041 27.2345 0.125381 27.2147 0.114393C27.1593 0.0841339 27.1005 0.0590413 27.0399 0.0409189C27.0235 0.0363268 27.0088 0.0296027 26.9924 0.0253386C26.9266 0.00975821 26.8583 0 26.7891 0H5.38719C4.40989 0 3.61595 0.794843 3.61595 1.77132V16.1555H2.53164C1.13359 16.1555 0 17.2886 0 18.6871V31.8521C0 33.2497 1.13359 34.3835 2.53164 34.3835H3.61603V43.3954C3.61603 44.3718 4.40998 45.1667 5.38727 45.1667H34.6127C35.5891 45.1667 36.384 44.3718 36.384 43.3954V34.3835H37.4685C38.8662 34.3835 40 33.2497 40 31.8521V18.6876C39.9999 17.2891 38.8661 16.1559 37.4684 16.1559ZM5.38719 1.77165H25.9035V10.8339C25.9035 11.3232 26.3004 11.7195 26.7891 11.7195H34.6126V16.1565H5.38719V1.77165ZM27.1307 25.3404C27.1307 27.8723 26.2088 29.6181 24.9314 30.6979C23.5398 31.8555 21.4201 32.4047 18.8308 32.4047C17.281 32.4047 16.1824 32.3065 15.4359 32.2088V19.2184C16.5346 19.0421 17.9679 18.944 19.4789 18.944C21.9891 18.944 23.6182 19.3956 24.8942 20.3565C26.2672 21.3771 27.1307 23.0054 27.1307 25.3404ZM4.03416 32.2676V19.2184C4.95594 19.0622 6.25166 18.944 8.07653 18.944C9.92083 18.944 11.2358 19.2972 12.1185 20.0041C12.9624 20.6709 13.5301 21.7699 13.5301 23.0651C13.5301 24.3606 13.0996 25.4593 12.3141 26.2045C11.2939 27.1662 9.78315 27.5982 8.01666 27.5982C7.62486 27.5982 7.27045 27.5783 6.99697 27.5389V32.268H4.03416V32.2676ZM34.6127 42.9159H5.38719V34.3835H34.6126V42.9159H34.6127ZM37.1791 21.4949H32.0959V24.5167H36.8449V26.9501H32.0959V32.2677H29.0952V19.0421H37.1791V21.4949Z" fill="#323E57"/>
</svg>
