<svg width="27" height="26" viewBox="0 0 27 26" fill="none" xmlns="http://www.w3.org/2000/svg">
<g clip-path="url(#clip0)">
<path d="M25.2105 7.19706L18.7994 0.535298C18.7081 0.440537 18.5822 0.386963 18.4507 0.386963H8.89541C7.82605 0.386963 6.95604 1.25663 6.95604 2.32554V9.09789H3.08365C2.28359 9.09789 1.63269 9.74859 1.63269 10.5485V17.8101C1.63269 18.6099 2.28359 19.2606 3.08365 19.2606H6.95604V23.6166C6.95604 24.6837 7.82605 25.5518 8.89541 25.5518H23.4064C24.4758 25.5518 25.3458 24.6842 25.3458 23.6177V7.53266C25.3458 7.40752 25.2973 7.28725 25.2105 7.19706ZM18.5706 1.69342L23.8336 7.16211H18.5706V1.69342ZM3.08365 18.2928C2.81726 18.2928 2.6006 18.0762 2.6006 17.8101V10.5485C2.6006 10.2823 2.81731 10.0658 3.08365 10.0658H16.1518C16.4182 10.0658 16.6348 10.2823 16.6348 10.5485V17.8101C16.6348 18.0762 16.4181 18.2928 16.1518 18.2928H3.08365ZM24.3779 23.6177C24.3779 24.1505 23.942 24.584 23.4064 24.584H8.89541C8.35972 24.584 7.92391 24.1501 7.92391 23.6167V19.2606H16.1518C16.9519 19.2606 17.6028 18.6099 17.6028 17.8101V10.5485C17.6028 9.74859 16.9519 9.09789 16.1518 9.09789H7.92391V2.32554C7.92391 1.79025 8.35972 1.35483 8.89541 1.35483H17.6027V7.64605C17.6027 7.91332 17.8194 8.12998 18.0866 8.12998H24.3779V23.6177Z" fill="#323E57"/>
<path d="M7.41821 12.6693C7.25754 12.4604 7.05809 12.3248 6.81991 12.2624C6.66489 12.2208 6.33219 12.2 5.82176 12.2H4.47485V16.357H5.31419V14.7889H5.86148C6.24146 14.7889 6.53164 14.769 6.73202 14.7293C6.87948 14.6972 7.02457 14.6315 7.1673 14.5322C7.31003 14.433 7.4277 14.2964 7.52034 14.1225C7.61299 13.9486 7.65929 13.734 7.65929 13.4789C7.65924 13.148 7.57888 12.8782 7.41821 12.6693ZM6.69939 13.8135C6.63608 13.9061 6.54865 13.9741 6.43707 14.0176C6.3255 14.0611 6.10438 14.0829 5.77355 14.0829H5.31419V12.9033H5.71968C6.02215 12.9033 6.22347 12.9127 6.32364 12.9316C6.45973 12.9562 6.57224 13.0176 6.66105 13.1159C6.74992 13.2142 6.79435 13.339 6.79435 13.4902C6.7944 13.6131 6.76269 13.7208 6.69939 13.8135Z" fill="#323E57"/>
<path d="M11.6943 13.3357C11.6036 13.0701 11.4712 12.8456 11.2973 12.6622C11.1234 12.4788 10.9145 12.3513 10.6707 12.2794C10.4892 12.2265 10.2255 12.2 9.87953 12.2H8.34546V16.357H9.9249C10.2349 16.357 10.4826 16.3277 10.6678 16.2691C10.9155 16.1897 11.1121 16.0791 11.2576 15.9373C11.4504 15.7501 11.5988 15.5054 11.7028 15.2029C11.7879 14.9552 11.8304 14.6603 11.8304 14.3182C11.8304 13.9288 11.785 13.6013 11.6943 13.3357ZM10.8776 15.0427C10.8209 15.2289 10.7477 15.3627 10.6579 15.4439C10.5681 15.5252 10.4551 15.5829 10.319 15.6169C10.2151 15.6434 10.0459 15.6566 9.81146 15.6566H9.1848V12.9033H9.56193C9.90406 12.9033 10.1338 12.9165 10.251 12.943C10.4078 12.977 10.5374 13.0422 10.6394 13.1386C10.7415 13.2351 10.8209 13.3693 10.8776 13.5413C10.9343 13.7133 10.9627 13.96 10.9627 14.2814C10.9627 14.6027 10.9343 14.8565 10.8776 15.0427Z" fill="#323E57"/>
<path d="M15.3976 12.9033V12.2H12.5478V16.357H13.3871V14.5904H15.1225V13.8872H13.3871V12.9033H15.3976Z" fill="#323E57"/>
</g>
<defs>
<clipPath id="clip0">
<rect width="25.1649" height="25.1649" fill="white" transform="translate(0.906738 0.386963)"/>
</clipPath>
</defs>
</svg>
