<svg width="52" height="40" viewBox="0 0 52 40" fill="none" xmlns="http://www.w3.org/2000/svg">
<g filter="url(#filter0_d)">
<path d="M26.0501 16.8706C26.084 16.8706 26.1179 16.8706 26.1587 16.8706C26.1722 16.8706 26.1858 16.8706 26.1994 16.8706C26.2197 16.8706 26.2469 16.8706 26.2672 16.8706C28.2554 16.8385 29.8637 16.1761 31.0512 14.9094C33.6637 12.1186 33.2294 7.33445 33.1819 6.87789C33.0123 3.45053 31.3022 1.8108 29.8908 1.04559C28.839 0.473293 27.6108 0.164637 26.2401 0.138916H26.1926C26.1858 0.138916 26.1722 0.138916 26.1654 0.138916H26.1247C25.3715 0.138916 23.8922 0.254662 22.474 1.01987C21.049 1.78508 19.3118 3.42481 19.1422 6.87789C19.0947 7.33445 18.6604 12.1186 21.2729 14.9094C22.4536 16.1761 24.0619 16.8385 26.0501 16.8706ZM20.954 7.03865C20.954 7.01936 20.9608 7.00007 20.9608 6.98721C21.1847 2.37667 24.6386 1.88153 26.1179 1.88153H26.1451C26.1587 1.88153 26.179 1.88153 26.1994 1.88153C28.0315 1.92012 31.1462 2.62745 31.3565 6.98721C31.3565 7.0065 31.3565 7.02579 31.3633 7.03865C31.3701 7.08366 31.8451 11.4563 29.6872 13.7583C28.8322 14.6714 27.6922 15.1216 26.1926 15.1344C26.179 15.1344 26.1722 15.1344 26.1587 15.1344C26.1451 15.1344 26.1383 15.1344 26.1247 15.1344C24.6319 15.1216 23.4851 14.6714 22.6369 13.7583C20.4858 11.4691 20.9472 7.07723 20.954 7.03865Z" fill="#FEF3F3"/>
<path d="M40.1033 24.8056C40.1033 24.7991 40.1033 24.7927 40.1033 24.7863C40.1033 24.7348 40.0965 24.6834 40.0965 24.6255C40.0558 23.3523 39.9675 20.3751 37.0225 19.4234C37.0022 19.417 36.975 19.4105 36.9547 19.4041C33.8943 18.6646 31.3497 16.9927 31.3225 16.9734C30.9086 16.6969 30.3386 16.7934 30.0468 17.1856C29.755 17.5779 29.8568 18.118 30.2707 18.3945C30.3861 18.4717 33.0868 20.2529 36.4661 21.076C38.0472 21.6097 38.2236 23.2109 38.2711 24.677C38.2711 24.7348 38.2711 24.7863 38.2779 24.8377C38.2847 25.4165 38.244 26.3103 38.1354 26.8247C37.0361 27.4163 32.7272 29.4611 26.1722 29.4611C19.6443 29.4611 15.3082 27.4099 14.2021 26.8183C14.0936 26.3038 14.0461 25.41 14.0596 24.8313C14.0596 24.7799 14.0664 24.7284 14.0664 24.6705C14.1139 23.2044 14.2903 21.6033 15.8714 21.0696C19.2507 20.2465 21.9514 18.4588 22.0668 18.3881C22.4807 18.1116 22.5825 17.5715 22.2907 17.1792C21.9989 16.787 21.4289 16.6905 21.015 16.967C20.9879 16.9863 18.4568 18.6582 15.3828 19.3977C15.3557 19.4041 15.3353 19.4105 15.315 19.417C12.37 20.3751 12.2818 23.3523 12.2411 24.6191C12.2411 24.677 12.2411 24.7284 12.2343 24.7799C12.2343 24.7863 12.2343 24.7927 12.2343 24.7991C12.2275 25.1335 12.2207 26.8504 12.5803 27.7121C12.6482 27.8793 12.7703 28.0207 12.9332 28.1172C13.1368 28.2458 18.0157 31.1909 26.1789 31.1909C34.3422 31.1909 39.2211 28.2394 39.4247 28.1172C39.5808 28.0207 39.7097 27.8793 39.7775 27.7121C40.1168 26.8568 40.11 25.1399 40.1033 24.8056Z" fill="#FEF3F3"/>
<path d="M47.8218 9.80814C48.017 9.61288 48.017 9.2963 47.8218 9.10104L44.6398 5.91906C44.4445 5.72379 44.1279 5.72379 43.9327 5.91906C43.7374 6.11432 43.7374 6.4309 43.9327 6.62616L46.7611 9.45459L43.9327 12.283C43.7374 12.4783 43.7374 12.7949 43.9327 12.9901C44.1279 13.1854 44.4445 13.1854 44.6398 12.9901L47.8218 9.80814ZM34.361 9.95459H47.4682V8.95459H34.361V9.95459Z" fill="white"/>
<path d="M5.11874 9.10104C4.92348 9.2963 4.92348 9.61288 5.11874 9.80814L8.30072 12.9901C8.49598 13.1854 8.81256 13.1854 9.00783 12.9901C9.20309 12.7949 9.20309 12.4783 9.00783 12.283L6.1794 9.45459L9.00783 6.62616C9.20309 6.4309 9.20309 6.11432 9.00783 5.91906C8.81256 5.72379 8.49598 5.72379 8.30072 5.91906L5.11874 9.10104ZM18.2061 8.95459L5.47229 8.95459V9.95459L18.2061 9.95459V8.95459Z" fill="white"/>
</g>
<defs>
<filter id="filter0_d" x="0.97229" y="0.138916" width="50.9959" height="39.052" filterUnits="userSpaceOnUse" color-interpolation-filters="sRGB">
<feFlood flood-opacity="0" result="BackgroundImageFix"/>
<feColorMatrix in="SourceAlpha" type="matrix" values="0 0 0 0 0 0 0 0 0 0 0 0 0 0 0 0 0 0 127 0"/>
<feOffset dy="4"/>
<feGaussianBlur stdDeviation="2"/>
<feColorMatrix type="matrix" values="0 0 0 0 0 0 0 0 0 0 0 0 0 0 0 0 0 0 0.25 0"/>
<feBlend mode="normal" in2="BackgroundImageFix" result="effect1_dropShadow"/>
<feBlend mode="normal" in="SourceGraphic" in2="effect1_dropShadow" result="shape"/>
</filter>
</defs>
</svg>
