<svg width="29" height="30" viewBox="0 0 29 30" fill="none" xmlns="http://www.w3.org/2000/svg">
<g clip-path="url(#clip0)">
<path d="M27.3017 11.2361C27.112 11.1228 26.8767 11.1175 26.6822 11.2222L22.6226 13.4072V11.5347C22.6226 11.188 22.3415 10.9069 21.9948 10.9069H20.9739C22.2471 9.87423 23.0626 8.298 23.0626 6.53462C23.0627 3.43143 20.538 0.906738 17.4347 0.906738C14.7859 0.906738 12.559 2.74626 11.9635 5.21476C11.1845 4.27475 10.0086 3.67489 8.6952 3.67489C6.35508 3.67489 4.45134 5.57869 4.45134 7.91875C4.45134 9.08326 4.92299 10.1394 5.68507 10.9071H5.11185C4.76512 10.9071 4.48403 11.1882 4.48403 11.5349V14.3847H2.89467C2.54793 14.3847 2.26685 14.6658 2.26685 15.0126V17.4814C2.26685 17.8282 2.54793 18.1093 2.89467 18.1093H4.48397V20.9591C4.48397 21.3058 4.76506 21.5869 5.1118 21.5869H12.5181L9.11522 28.1143C8.95492 28.4217 9.07424 28.8009 9.38169 28.9612C9.47442 29.0095 9.57363 29.0324 9.67135 29.0324C9.89784 29.0324 10.1166 28.9094 10.2285 28.6947L13.5532 22.3172L16.8779 28.6947C16.9899 28.9095 17.2087 29.0324 17.4352 29.0324C17.5329 29.0324 17.6322 29.0095 17.7248 28.9612C18.0323 28.8009 18.1516 28.4217 17.9912 28.1143L14.5884 21.5869H21.9948C22.3415 21.5869 22.6226 21.3058 22.6226 20.9591V19.0866L26.6822 21.2716C26.7752 21.3217 26.8774 21.3466 26.9797 21.3466C27.0912 21.3466 27.2026 21.3169 27.3017 21.2578C27.4914 21.1444 27.6075 20.9398 27.6075 20.7188V11.775C27.6075 11.554 27.4914 11.3494 27.3017 11.2361ZM4.48403 16.8535H3.52249V15.6402H4.48403V16.8535ZM17.4347 2.16233C19.8455 2.16233 21.807 4.12375 21.807 6.53467C21.807 8.9456 19.8456 10.907 17.4347 10.907C15.0238 10.907 13.0624 8.94555 13.0624 6.53467C13.0624 4.1238 15.0239 2.16233 17.4347 2.16233ZM12.6406 9.47916C12.9759 10.0232 13.4012 10.506 13.8956 10.907H11.7053C12.1068 10.5026 12.4268 10.0176 12.6406 9.47916ZM8.6952 4.93043C10.3429 4.93043 11.6835 6.27094 11.6835 7.9187C11.6835 9.56645 10.343 10.907 8.6952 10.907C7.0475 10.907 5.70693 9.5665 5.70693 7.9187C5.70699 6.27094 7.0475 4.93043 8.6952 4.93043ZM21.367 14.4581V18.0354V20.3311H13.5646C13.5634 20.3311 13.5623 20.3311 13.5612 20.3311H13.5446C13.5439 20.3311 13.5432 20.3311 13.5424 20.3311H5.73962V17.4812V15.0123V12.1625H21.367V14.4581ZM26.3519 19.6677L22.6226 17.6604V14.8331L26.3519 12.8258V19.6677Z" fill="#323E57"/>
<path d="M15.4093 13.9881H8.5834C8.25397 13.9881 7.987 14.2551 7.987 14.5845V17.9089C7.987 18.2383 8.25403 18.5053 8.5834 18.5053H15.4093C15.7387 18.5053 16.0057 18.2383 16.0057 17.9089V14.5845C16.0057 14.2551 15.7387 13.9881 15.4093 13.9881ZM14.8128 17.3125H9.1798V15.1809H14.8129V17.3125H14.8128Z" fill="#323E57"/>
<path d="M18.702 15.8403C19.0488 15.8403 19.3299 15.5592 19.3299 15.2124C19.3299 14.8657 19.0488 14.5846 18.702 14.5846C18.3553 14.5846 18.0742 14.8657 18.0742 15.2124C18.0742 15.5592 18.3553 15.8403 18.702 15.8403Z" fill="#323E57"/>
<path d="M18.702 17.9088C19.0488 17.9088 19.3299 17.6278 19.3299 17.281C19.3299 16.9343 19.0488 16.6532 18.702 16.6532C18.3553 16.6532 18.0742 16.9343 18.0742 17.281C18.0742 17.6278 18.3553 17.9088 18.702 17.9088Z" fill="#323E57"/>
</g>
<defs>
<clipPath id="clip0">
<rect width="28.1254" height="28.1254" fill="white" transform="translate(0.874512 0.906738)"/>
</clipPath>
</defs>
</svg>
