<svg width="20" height="20" viewBox="0 0 20 20" fill="none" xmlns="http://www.w3.org/2000/svg">
<path d="M9.92758 10.7766C9.94829 10.7766 9.969 10.7766 9.99385 10.7766C10.0021 10.7766 10.0104 10.7766 10.0187 10.7766C10.0311 10.7766 10.0477 10.7766 10.0601 10.7766C11.2736 10.7559 12.2552 10.3293 12.98 9.51336C14.5745 7.71588 14.3094 4.6345 14.2804 4.34044C14.1769 2.13295 13.1332 1.07683 12.2718 0.583972C11.6298 0.215366 10.8802 0.0165666 10.0435 0H10.0146C10.0104 0 10.0021 0 9.99799 0H9.97314C9.51342 0 8.61054 0.0745496 7.74493 0.567405C6.87519 1.06026 5.81493 2.11638 5.71138 4.34044C5.68239 4.6345 5.41733 7.71588 7.01186 9.51336C7.73251 10.3293 8.71408 10.7559 9.92758 10.7766ZM6.8172 4.44398C6.8172 4.43156 6.82135 4.41913 6.82135 4.41085C6.95802 1.44129 9.06612 1.12239 9.969 1.12239H9.98556C9.99385 1.12239 10.0063 1.12239 10.0187 1.12239C11.1369 1.14724 13.038 1.60282 13.1663 4.41085C13.1663 4.42328 13.1663 4.4357 13.1705 4.44398C13.1746 4.47298 13.4645 7.28929 12.1475 8.772C11.6257 9.36012 10.9299 9.65003 10.0146 9.65831C10.0063 9.65831 10.0021 9.65831 9.99385 9.65831C9.98556 9.65831 9.98142 9.65831 9.97314 9.65831C9.06198 9.65003 8.36204 9.36012 7.84433 8.772C6.53143 7.29758 6.81306 4.46883 6.8172 4.44398Z" fill="#FEF3F3"/>
<path d="M18.5049 15.8873C18.5049 15.8832 18.5049 15.8791 18.5049 15.8749C18.5049 15.8418 18.5007 15.8086 18.5007 15.7714C18.4759 14.9513 18.422 13.0337 16.6246 12.4208C16.6121 12.4166 16.5956 12.4125 16.5832 12.4084C14.7153 11.9321 13.1622 10.8552 13.1456 10.8428C12.893 10.6647 12.5451 10.7268 12.367 10.9795C12.1889 11.2321 12.251 11.58 12.5036 11.7581C12.574 11.8078 14.2224 12.955 16.285 13.4852C17.25 13.8289 17.3576 14.8602 17.3866 15.8045C17.3866 15.8418 17.3866 15.8749 17.3908 15.908C17.3949 16.2808 17.3701 16.8565 17.3038 17.1878C16.6329 17.5688 14.0029 18.8859 10.0021 18.8859C6.01782 18.8859 3.37131 17.5647 2.69622 17.1837C2.62996 16.8523 2.60096 16.2766 2.60925 15.9039C2.60925 15.8708 2.61339 15.8376 2.61339 15.8004C2.64238 14.8561 2.75006 13.8248 3.71507 13.481C5.77761 12.9509 7.42598 11.7995 7.49639 11.754C7.74903 11.5759 7.81115 11.228 7.63306 10.9753C7.45497 10.7227 7.10707 10.6606 6.85443 10.8387C6.83787 10.8511 5.29303 11.9279 3.41687 12.4042C3.4003 12.4084 3.38788 12.4125 3.37545 12.4166C1.57798 13.0337 1.52414 14.9513 1.49929 15.7672C1.49929 15.8045 1.49929 15.8376 1.49515 15.8708C1.49515 15.8749 1.49515 15.8791 1.49515 15.8832C1.491 16.0986 1.48686 17.2044 1.70637 17.7594C1.74779 17.867 1.82234 17.9582 1.92174 18.0203C2.04598 18.1031 5.02383 20 10.0062 20C14.9886 20 17.9665 18.099 18.0907 18.0203C18.186 17.9582 18.2647 17.867 18.3061 17.7594C18.5132 17.2085 18.509 16.1027 18.5049 15.8873Z" fill="#FEF3F3"/>
</svg>
