<svg width="26" height="27" viewBox="0 0 26 27" fill="none" xmlns="http://www.w3.org/2000/svg">
<path d="M16.9627 14.2363H9.09867C8.66457 14.2363 8.31227 14.5886 8.31227 15.0227C8.31227 15.4568 8.66457 15.8091 9.09867 15.8091H16.9627C17.3968 15.8091 17.7491 15.4568 17.7491 15.0227C17.7491 14.5886 17.3968 14.2363 16.9627 14.2363ZM18.5355 9.51786H7.52586C7.09177 9.51786 6.73946 9.87017 6.73946 10.3043C6.73946 10.7384 7.09177 11.0907 7.52586 11.0907H18.5355C18.9696 11.0907 19.3219 10.7384 19.3219 10.3043C19.3219 9.87017 18.9696 9.51786 18.5355 9.51786ZM13.0307 0.867432C6.08205 0.867432 0.448242 5.79658 0.448242 11.8771C0.448242 15.3522 2.29235 18.4459 5.16666 20.4638V26.0323L10.6785 22.6877C11.4414 22.8136 12.2262 22.8867 13.0307 22.8867C19.9801 22.8867 25.6131 17.9575 25.6131 11.8771C25.6131 5.79658 19.9801 0.867432 13.0307 0.867432ZM13.0307 21.3139C12.1122 21.3139 11.2251 21.2069 10.3726 21.0253L6.67022 23.2508L6.71976 19.6035C3.88168 17.8962 2.02105 15.0746 2.02105 11.8771C2.02105 6.66559 6.9502 2.44024 13.0307 2.44024C19.1112 2.44024 24.0403 6.66559 24.0403 11.8771C24.0403 17.0885 19.1112 21.3139 13.0307 21.3139Z" fill="#323E57"/>
</svg>
