<svg width="30" height="29" viewBox="0 0 30 29" fill="none" xmlns="http://www.w3.org/2000/svg">
<path fill-rule="evenodd" clip-rule="evenodd" d="M18.3252 17.8285C21.0384 16.7442 22.803 14.1273 22.7553 11.2445C22.7553 7.28258 19.2737 4.05573 14.9973 4.05573C10.7209 4.05573 7.23941 7.27737 7.23941 11.2445C7.19702 14.1273 8.95633 16.7442 11.6748 17.8285C11.713 17.849 11.7451 17.8792 11.7678 17.9161L12.1402 18.5204C12.1408 18.5213 12.1411 18.5224 12.1411 18.5236C12.1411 18.5257 12.1399 18.5277 12.1381 18.5288C11.4091 18.9467 11.1614 19.8678 11.5847 20.5862C11.6373 20.6793 11.7055 20.7672 11.779 20.8449C11.7801 20.8462 11.7808 20.8458 11.7808 20.8475C11.7808 20.8492 11.7801 20.8527 11.779 20.854C11.2086 21.4744 11.2515 22.4322 11.8815 22.9998C12.1676 23.2553 12.5438 23.396 12.9307 23.396H17.0693C17.9225 23.4012 18.6166 22.7235 18.6219 21.8842C18.6219 21.5045 18.4795 21.1404 18.221 20.8592C18.2198 20.858 18.2192 20.8583 18.2192 20.8566C18.2192 20.8549 18.2199 20.8514 18.221 20.8501C18.7914 20.2349 18.7485 19.2824 18.1238 18.7199C18.0452 18.6477 17.9561 18.5857 17.8619 18.5288C17.86 18.5277 17.8589 18.5277 17.8589 18.5255C17.8589 18.5244 17.8592 18.5213 17.8598 18.5204L18.2322 17.9161C18.2549 17.8792 18.287 17.849 18.3252 17.8285ZM20.7151 27.4361L29.5117 26.9774C29.7978 26.9617 30.0151 26.7219 29.9992 26.4404C29.9833 26.1589 29.7395 25.9452 29.4534 25.9608L20.6568 26.4196C20.3707 26.4352 20.1534 26.675 20.1693 26.9565C20.1852 27.238 20.429 27.4517 20.7151 27.4361ZM9.83069 26.9565C9.84659 26.675 9.62932 26.4352 9.34317 26.4196L0.546612 25.966C0.260459 25.9504 0.0166991 26.1693 0.000801672 26.4456C-0.0150957 26.7271 0.207468 26.9669 0.488322 26.9826L9.28488 27.4361C9.57103 27.4517 9.81479 27.238 9.83069 26.9565ZM29.9992 23.9069C29.9992 24.1832 29.7713 24.4125 29.4852 24.4178C23.4601 24.4855 18.9664 25.7367 17.5462 27.1025C17.2124 27.4205 17.4402 27.9783 17.9066 27.9783H29.4799C29.766 27.9783 29.9992 28.2076 29.9992 28.4891C29.9992 28.7706 29.766 29 29.4799 29H0.520117C0.233963 29 0.000801672 28.7706 0.000801672 28.4891C0.000801672 28.2076 0.233963 27.9783 0.520117 27.9783H12.0934C12.5597 27.9783 12.7876 27.4257 12.4538 27.1025C11.0336 25.7367 6.53993 24.4855 0.514817 24.4178C0.233963 24.4125 0.000801672 24.1884 0.000801672 23.9069C0.000801672 23.6254 0.233963 23.396 0.525416 23.396C6.81548 23.4742 13.2963 24.9286 13.9163 27.5821C13.9693 27.8114 14.1866 27.973 14.425 27.973H15.5749C15.8134 27.973 16.0307 27.8114 16.0837 27.5821C16.7037 24.9338 23.1898 23.4742 29.4746 23.396C29.7607 23.3908 29.9992 23.6202 29.9992 23.9069ZM15.0026 3.0444C15.2888 3.0444 15.522 2.77332 15.522 2.43448V0.609923C15.522 0.27629 15.2888 0 15.0026 0C14.7165 0 14.4833 0.271077 14.4833 0.609923V2.43448C14.4833 2.76811 14.7165 3.0444 15.0026 3.0444ZM25.8606 18.8138C25.7334 19.064 25.4207 19.1683 25.1664 19.0431L22.9884 17.9745C22.7341 17.8494 22.6281 17.5418 22.7553 17.2916C22.8825 17.0413 23.1951 16.9371 23.4495 17.0622L25.6274 18.1309C25.8871 18.2612 25.9877 18.5635 25.8606 18.8138ZM4.83361 19.0431C4.57925 19.1683 4.2666 19.0692 4.13942 18.8138C4.01224 18.5635 4.11293 18.256 4.37258 18.1309L6.55053 17.0622C6.80489 16.9371 7.11753 17.0361 7.24471 17.2916C7.37189 17.5418 7.27121 17.8494 7.01155 17.9745L4.83361 19.0431ZM25.3465 11.6928H27.4132C27.6994 11.6928 27.9325 11.4634 27.9325 11.1819C27.9325 10.9004 27.6994 10.671 27.4132 10.671H25.3465C25.0604 10.671 24.8272 10.9004 24.8272 11.1819C24.8272 11.4634 25.0604 11.6928 25.3465 11.6928ZM2.58678 11.6928H4.65344C4.93959 11.6928 5.17275 11.4634 5.17275 11.1819C5.17275 10.9004 4.93959 10.671 4.65344 10.671H2.58678C2.30062 10.671 2.06746 10.9004 2.06746 11.1819C2.07276 11.4634 2.30062 11.6928 2.58678 11.6928ZM23.2216 6.19306C22.9513 6.28168 22.6599 6.13572 22.5698 5.86985C22.4797 5.60399 22.6281 5.31728 22.8983 5.22865L25.2088 4.47277C25.479 4.38415 25.7705 4.53011 25.8606 4.79597C25.9506 5.06184 25.8023 5.34855 25.532 5.43717L23.2216 6.19306ZM7.23941 6.09401C7.11224 6.34424 6.79959 6.4485 6.54523 6.32339L4.36729 5.25472C4.11293 5.12961 4.00694 4.82204 4.13412 4.57181C4.2613 4.32159 4.57395 4.21733 4.82831 4.34244L7.00625 5.41111C7.26591 5.53622 7.37189 5.84379 7.23941 6.09401ZM17.0693 22.3743H12.9519C12.6763 22.3743 12.4326 22.171 12.4167 21.8947C12.4008 21.5975 12.6392 21.3525 12.9307 21.3525H17.0481C17.3237 21.3525 17.5674 21.5558 17.5833 21.8321C17.6045 22.1292 17.3661 22.3743 17.0693 22.3743ZM17.0693 20.3412H12.9519C12.6763 20.3412 12.4326 20.1379 12.4167 19.8616C12.4008 19.5644 12.6392 19.3194 12.9307 19.3194H17.0481C17.3237 19.3194 17.5674 19.5227 17.5833 19.799C17.6045 20.0962 17.3661 20.3412 17.0693 20.3412ZM17.8589 16.9214L17.6522 17.0309C17.5727 17.0726 17.5038 17.1352 17.4561 17.2134L16.9001 18.1136C16.8274 18.2312 16.6989 18.3029 16.5606 18.3029C16.5606 18.3029 16.5606 18.3029 16.5606 18.3029C16.5603 18.3029 16.5553 18.3028 16.5553 18.2977V16.146C16.5553 15.0547 16.9934 14.009 17.7714 13.2437L18.9857 12.0491C18.9869 12.0479 18.9876 12.0463 18.9876 12.0447C18.9876 12.043 18.9869 12.0414 18.9857 12.0402L18.2635 11.3297C18.2623 11.3285 18.2607 11.3279 18.259 11.3279C18.2573 11.3279 18.2556 11.3285 18.2544 11.3297L15.6703 13.8718C15.5749 13.9657 15.5167 14.096 15.5167 14.2315V18.2967C15.5167 18.2973 15.5167 18.298 15.5165 18.2987C15.5162 18.3002 15.5152 18.3029 15.5114 18.3029H14.4836C14.4834 18.3029 14.4832 18.3029 14.4831 18.3029C14.4821 18.3028 14.478 18.3022 14.478 18.2977V14.2315C14.478 14.096 14.425 13.9657 14.3244 13.8718L11.7403 11.3297C11.7391 11.3285 11.7374 11.3279 11.7357 11.3279C11.734 11.3279 11.7324 11.3285 11.7312 11.3297L11.009 12.0402C11.0078 12.0414 11.0071 12.043 11.0071 12.0447C11.0071 12.0463 11.0078 12.0479 11.009 12.0491L12.2232 13.2437C13.0012 14.009 13.4394 15.0547 13.4394 16.146V18.2974C13.4394 18.2976 13.4394 18.2978 13.4394 18.2979C13.4393 18.299 13.4387 18.3029 13.4341 18.3029C13.2958 18.3029 13.1673 18.2312 13.0946 18.1135L12.5385 17.2134C12.4909 17.1352 12.422 17.0726 12.3425 17.0309L12.1358 16.9214C12.1199 16.911 12.104 16.9058 12.0828 16.8954C9.7459 15.9675 8.22505 13.7207 8.26745 11.2445C8.26745 7.84037 11.2827 5.07748 14.992 5.07748C18.7014 5.07748 21.7166 7.84559 21.7166 11.2445C21.7535 13.7094 20.2582 15.9428 17.9477 16.8768C17.9172 16.8892 17.8864 16.9034 17.8589 16.9214Z" fill="white"/>
</svg>
