<svg width="57" height="54" viewBox="0 0 57 54" fill="none" xmlns="http://www.w3.org/2000/svg">
<path d="M4.95152 15.4475C2.30199 20.3996 1.32016 26.2126 2.55854 32.0906" stroke="#F2994A" stroke-miterlimit="10" stroke-linecap="round"/>
<path d="M40.3836 4.15971C35.2997 1.77118 29.3829 0.909728 23.4019 2.06399C16.6077 3.37503 10.9438 7.05269 7.15723 12.0191" stroke="#F2994A" stroke-miterlimit="10" stroke-linecap="round"/>
<path d="M54.7713 22.0136C53.3661 15.3435 49.3598 9.8107 43.9668 6.18848" stroke="#F2994A" stroke-miterlimit="10" stroke-linecap="round"/>
<path d="M55.3118 27.5649C55.3484 25.7372 55.1792 23.8773 54.7861 22.011" stroke="#F2994A" stroke-miterlimit="10" stroke-linecap="round"/>
<path d="M2.57324 32.0881C2.65047 32.4541 2.73526 32.8166 2.82781 33.1757" stroke="#F2994A" stroke-miterlimit="10" stroke-linecap="round"/>
<path d="M21.7896 51.6817C27.756 45.1819 30.5966 36.1862 28.6719 27.0508" stroke="#F2994A" stroke-miterlimit="10" stroke-linecap="round"/>
<path d="M24.1226 41.9751C22.818 45.1752 20.8499 48.0962 18.3467 50.5527" stroke="#F2994A" stroke-miterlimit="10" stroke-linecap="round"/>
<path d="M25.5182 52.3685C31.3003 45.2865 33.9377 35.9218 31.936 26.421L31.9463 26.4178C31.5809 24.6834 29.8161 23.561 28.0041 23.9108C26.1923 24.2605 25.0198 25.9497 25.385 27.6843L25.4087 27.6804C26.1543 31.2202 26.0954 34.7367 25.3522 38.0562" stroke="#F2994A" stroke-miterlimit="10" stroke-linecap="round"/>
<path d="M22.3981 29.7458C23.442 37.1185 20.564 44.2397 15.2007 49.0425" stroke="#F2994A" stroke-miterlimit="10" stroke-linecap="round"/>
<path d="M35.9291 32.6588C35.9225 30.3937 35.6849 28.0963 35.1995 25.7914L35.2068 25.7887C34.4786 22.3307 30.9595 20.0925 27.3466 20.7899C24.6479 21.3107 22.6602 23.3221 22.1313 25.7481" stroke="#F2994A" stroke-miterlimit="10" stroke-linecap="round"/>
<path d="M29.5161 52.5309C32.8487 47.8694 35.0106 42.4458 35.6951 36.7004" stroke="#F2994A" stroke-miterlimit="10" stroke-linecap="round"/>
<path d="M29.4477 17.5068C28.5463 17.4395 27.6198 17.489 26.6893 17.6687C21.2754 18.7136 17.7716 23.7608 18.8633 28.943L18.882 28.94C20.3584 35.949 17.6295 42.8349 12.3579 47.2047" stroke="#F2994A" stroke-miterlimit="10" stroke-linecap="round"/>
<path d="M33.7623 52.069C38.5606 44.2397 40.4849 34.7586 38.4629 25.1612L38.4677 25.1593C37.866 22.304 35.9949 20.0037 33.5303 18.6885" stroke="#F2994A" stroke-miterlimit="10" stroke-linecap="round"/>
<path d="M14.8243 38.48C13.7838 41.0443 12.0623 43.3229 9.82959 45.0735" stroke="#F2994A" stroke-miterlimit="10" stroke-linecap="round"/>
<path d="M42.0174 39.4454C42.8457 34.6322 42.7936 29.597 41.7266 24.5315L41.7286 24.5302C40.2736 17.6245 33.2464 13.1554 26.0318 14.5478C18.8169 15.9404 14.1476 22.6667 15.6025 29.5726L15.618 29.5696C15.9635 31.2098 16.0328 32.842 15.8563 34.4217" stroke="#F2994A" stroke-miterlimit="10" stroke-linecap="round"/>
<path d="M38.2202 50.847C39.4279 48.474 40.403 45.9853 41.1225 43.4133" stroke="#F2994A" stroke-miterlimit="10" stroke-linecap="round"/>
<path d="M42.1333 17.6707C43.5032 19.4703 44.4992 21.5752 44.9894 23.9011L44.9904 23.9018C46.8006 32.4943 45.8986 41.0069 42.852 48.6303" stroke="#F2994A" stroke-miterlimit="10" stroke-linecap="round"/>
<path d="M21.7134 12.564C22.8598 12.0611 24.0845 11.6757 25.3742 11.4269C30.4712 10.4433 35.4934 11.8007 39.2245 14.7255" stroke="#F2994A" stroke-miterlimit="10" stroke-linecap="round"/>
<path d="M7.62256 42.6822C11.3847 39.7894 13.3738 35.0396 12.3538 30.1997L12.3412 30.2023C11.0742 24.1887 13.5235 18.2841 18.1759 14.668" stroke="#F2994A" stroke-miterlimit="10" stroke-linecap="round"/>
<path d="M8.69911 27.8088C8.74191 28.809 8.8671 29.819 9.08046 30.8316L9.09061 30.8291C9.83739 34.3738 8.4348 37.855 5.74268 40.0386" stroke="#F2994A" stroke-miterlimit="10" stroke-linecap="round"/>
<path d="M48.7062 25.7477C48.5784 24.9236 48.4277 24.0983 48.254 23.2723L48.25 23.2721C46.069 12.9187 35.5334 6.21866 24.7167 8.306C16.4041 9.91042 10.3451 16.2376 8.97559 23.7804" stroke="#F2994A" stroke-miterlimit="10" stroke-linecap="round"/>
<path d="M47.5703 45.008C48.9289 40.1305 49.4938 34.9944 49.1488 29.7622" stroke="#F2994A" stroke-miterlimit="10" stroke-linecap="round"/>
<path d="M31.7881 4.94001C29.2819 4.61597 26.6779 4.67979 24.0596 5.18519C11.4415 7.6202 3.27541 19.3838 5.81965 31.4609L5.82741 31.459C6.26907 33.5545 5.5836 35.6163 4.17285 37.0731" stroke="#F2994A" stroke-miterlimit="10" stroke-linecap="round"/>
<path d="M52.1722 39.0332C52.8646 33.7096 52.6865 28.1905 51.5176 22.6421L51.511 22.6425C49.7808 14.4295 43.5435 8.18752 35.7617 5.79956" stroke="#F2994A" stroke-miterlimit="10" stroke-linecap="round"/>
</svg>
