<svg width="45" height="32" viewBox="0 0 45 32" fill="none" xmlns="http://www.w3.org/2000/svg">
<g clip-path="url(#clip0)">
<path d="M22.2524 17.01C22.2853 17.01 22.3183 17.01 22.3579 17.01C22.371 17.01 22.3842 17.01 22.3974 17.01C22.4172 17.01 22.4436 17.01 22.4633 17.01C24.3949 16.9779 25.9573 16.3155 27.1109 15.0488C29.649 12.258 29.2271 7.47384 29.1809 7.01729C29.0161 3.58993 27.3549 1.9502 25.9836 1.18499C24.9618 0.612697 23.7686 0.304042 22.437 0.27832H22.3908C22.3842 0.27832 22.371 0.27832 22.3645 0.27832H22.3249C21.5931 0.27832 20.156 0.394066 18.7782 1.15927C17.3938 1.92448 15.7062 3.56421 15.5414 7.01729C15.4952 7.47384 15.0733 12.258 17.6114 15.0488C18.7584 16.3155 20.3208 16.9779 22.2524 17.01ZM17.3015 7.17805C17.3015 7.15876 17.3081 7.13947 17.3081 7.12661C17.5257 2.51607 20.8812 2.02094 22.3183 2.02094H22.3447C22.3579 2.02094 22.3776 2.02094 22.3974 2.02094C24.1773 2.05952 27.2032 2.76685 27.4076 7.12661C27.4076 7.1459 27.4076 7.16519 27.4142 7.17805C27.4208 7.22306 27.8822 11.5957 25.7859 13.8977C24.9552 14.8108 23.8477 15.261 22.3908 15.2738C22.3776 15.2738 22.371 15.2738 22.3579 15.2738C22.3447 15.2738 22.3381 15.2738 22.3249 15.2738C20.8746 15.261 19.7605 14.8108 18.9364 13.8977C16.8467 11.6085 17.2949 7.21663 17.3015 7.17805Z" fill="#FEF3F3"/>
<path d="M35.9052 24.945C35.9052 24.9385 35.9052 24.9321 35.9052 24.9257C35.9052 24.8742 35.8986 24.8228 35.8986 24.7649C35.859 23.4917 35.7733 20.5145 32.9122 19.5628C32.8925 19.5564 32.8661 19.5499 32.8463 19.5435C29.8732 18.804 27.401 17.1321 27.3747 17.1128C26.9725 16.8363 26.4188 16.9328 26.1353 17.325C25.8518 17.7173 25.9507 18.2574 26.3528 18.5339C26.4649 18.6111 29.0887 20.3923 32.3717 21.2154C33.9077 21.7491 34.0791 23.3502 34.1252 24.8164C34.1252 24.8742 34.1252 24.9257 34.1318 24.9771C34.1384 25.5558 34.0988 26.4497 33.9934 26.9641C32.9254 27.5557 28.7393 29.6005 22.3711 29.6005C16.0292 29.6005 11.8167 27.5492 10.7422 26.9577C10.6367 26.4432 10.5906 25.5494 10.6037 24.9707C10.6037 24.9192 10.6103 24.8678 10.6103 24.8099C10.6565 23.3438 10.8279 21.7427 12.3639 21.209C15.6469 20.3859 18.2706 18.5982 18.3827 18.5275C18.7848 18.251 18.8837 17.7109 18.6003 17.3186C18.3168 16.9264 17.763 16.8299 17.3609 17.1064C17.3345 17.1257 14.8756 18.7976 11.8893 19.5371C11.8629 19.5435 11.8431 19.5499 11.8233 19.5564C8.96225 20.5145 8.87655 23.4917 8.837 24.7585C8.837 24.8164 8.837 24.8678 8.83041 24.9192C8.83041 24.9257 8.83041 24.9321 8.83041 24.9385C8.82382 25.2729 8.81722 26.9898 9.16662 27.8515C9.23254 28.0187 9.3512 28.1601 9.50942 28.2566C9.70719 28.3852 14.4471 31.3303 22.3777 31.3303C30.3083 31.3303 35.0481 28.3788 35.2459 28.2566C35.3975 28.1601 35.5228 28.0187 35.5887 27.8515C35.9183 26.9962 35.9117 25.2793 35.9052 24.945Z" fill="#FEF3F3"/>
</g>
<path d="M30.8258 9.24044C30.6305 9.4357 30.6305 9.75229 30.8258 9.94755L34.0078 13.1295C34.2031 13.3248 34.5196 13.3248 34.7149 13.1295C34.9102 12.9343 34.9102 12.6177 34.7149 12.4224L31.8865 9.59399L34.7149 6.76557C34.9102 6.5703 34.9102 6.25372 34.7149 6.05846C34.5196 5.8632 34.2031 5.8632 34.0078 6.05846L30.8258 9.24044ZM44.2866 9.09399L31.1794 9.09399V10.094L44.2866 10.094V9.09399Z" fill="white"/>
<path d="M13.1708 9.94755C13.3661 9.75229 13.3661 9.4357 13.1708 9.24044L9.98883 6.05846C9.79357 5.8632 9.47699 5.8632 9.28172 6.05846C9.08646 6.25372 9.08646 6.5703 9.28172 6.76557L12.1102 9.59399L9.28172 12.4224C9.08646 12.6177 9.08646 12.9343 9.28172 13.1295C9.47699 13.3248 9.79357 13.3248 9.98883 13.1295L13.1708 9.94755ZM0.0834961 10.094H12.8173V9.09399H0.0834961V10.094Z" fill="white"/>
<defs>
<clipPath id="clip0">
<rect width="31.8344" height="31.052" fill="white" transform="translate(6.45044 0.27832)"/>
</clipPath>
</defs>
</svg>
