<svg width="28" height="23" viewBox="0 0 28 23" fill="none" xmlns="http://www.w3.org/2000/svg">
<path d="M24.9729 2.40906C23.5777 1.08655 21.7306 0.363719 19.7592 0.363719C17.7877 0.363719 15.935 1.0919 14.5397 2.41442L13.811 3.10512L13.0711 2.40371C11.6758 1.0812 9.81738 0.347656 7.84597 0.347656C5.88021 0.347656 4.02742 1.07584 2.63783 2.393C1.24259 3.71551 0.474363 5.47173 0.480011 7.34038C0.480011 9.20903 1.25389 10.9599 2.64913 12.2824L13.2575 22.3378C13.4043 22.477 13.602 22.552 13.7941 22.552C13.9861 22.552 14.1839 22.4824 14.3307 22.3431L24.9616 12.3038C26.3569 10.9813 27.1251 9.22509 27.1251 7.35644C27.1308 5.48779 26.3682 3.73158 24.9729 2.40906ZM23.8884 11.2811L13.7941 20.8118L3.72239 11.2651C2.61523 10.2156 2.00517 8.82352 2.00517 7.34038C2.00517 5.85724 2.60959 4.46512 3.71674 3.42103C4.81824 2.37694 6.28691 1.79867 7.84597 1.79867C9.41067 1.79867 10.885 2.37694 11.9921 3.42638L13.2688 4.63645C13.5681 4.92023 14.0483 4.92023 14.3477 4.63645L15.613 3.43709C16.7201 2.38765 18.1945 1.80938 19.7535 1.80938C21.3126 1.80938 22.7812 2.38765 23.8884 3.43174C24.9955 4.48118 25.6 5.8733 25.6 7.35644C25.6056 8.83958 24.9955 10.2317 23.8884 11.2811Z" fill="#323E57"/>
</svg>
