<svg width="53" height="53" viewBox="0 0 53 53" fill="none" xmlns="http://www.w3.org/2000/svg">
<g filter="url(#filter0_b)">
<circle cx="26.1302" cy="26.8697" r="26.1302" fill="white" fill-opacity="0.1"/>
</g>
<g clip-path="url(#clip0)">
<path d="M30.6879 15.5466H20.7015C17.4513 15.5466 14.8071 18.2965 14.8071 21.6767V32.0628C14.8071 35.4429 17.4513 38.1928 20.7015 38.1928H30.6881C33.9381 38.1928 36.5823 35.4429 36.5823 32.0628V21.6767C36.5823 18.2965 33.9381 15.5466 30.6879 15.5466V15.5466ZM35.3057 32.0628C35.3057 34.7108 33.2342 36.8652 30.6879 36.8652H20.7015C18.1552 36.8652 16.0837 34.7108 16.0837 32.0628V21.6767C16.0837 19.0286 18.1552 16.8742 20.7015 16.8742H30.6881C33.2342 16.8742 35.3057 19.0286 35.3057 21.6767V32.0628Z" fill="white"/>
<path d="M25.6947 20.6776C22.4116 20.6776 19.7407 23.4553 19.7407 26.8697C19.7407 30.2842 22.4116 33.0619 25.6947 33.0619C28.9778 33.0619 31.6487 30.2842 31.6487 26.8697C31.6487 23.4553 28.9778 20.6776 25.6947 20.6776V20.6776ZM25.6947 31.7343C23.1157 31.7343 21.0173 29.5521 21.0173 26.8697C21.0173 24.1876 23.1157 22.0052 25.6947 22.0052C28.2739 22.0052 30.3721 24.1876 30.3721 26.8697C30.3721 29.5521 28.2739 31.7343 25.6947 31.7343V31.7343Z" fill="white"/>
<path d="M31.7911 18.4785C30.8209 18.4785 30.0317 19.2994 30.0317 20.3082C30.0317 21.3172 30.8209 22.1381 31.7911 22.1381C32.7613 22.1381 33.5506 21.3172 33.5506 20.3082C33.5506 19.2992 32.7613 18.4785 31.7911 18.4785Z" fill="white"/>
</g>
<defs>
<filter id="filter0_b" x="-2" y="-1.2605" width="56.2605" height="56.2605" filterUnits="userSpaceOnUse" color-interpolation-filters="sRGB">
<feFlood flood-opacity="0" result="BackgroundImageFix"/>
<feGaussianBlur in="BackgroundImage" stdDeviation="1"/>
<feComposite in2="SourceAlpha" operator="in" result="effect1_backgroundBlur"/>
<feBlend mode="normal" in="SourceGraphic" in2="effect1_backgroundBlur" result="shape"/>
</filter>
<clipPath id="clip0">
<rect width="21.7752" height="22.6462" fill="white" transform="translate(14.8071 15.5466)"/>
</clipPath>
</defs>
</svg>
