<svg width="30" height="20" viewBox="0 0 30 20" fill="none" xmlns="http://www.w3.org/2000/svg">
<path d="M28.0792 0H1.20655C0.540184 0 0 0.573524 0 1.28102V18.719C0 19.4265 0.540184 20 1.20655 20H28.0792C28.7455 20 29.2857 19.4265 29.2857 18.719V1.28102C29.2857 0.573524 28.7455 0 28.0792 0ZM1.20655 1.00604H28.0792C28.1926 1.00662 28.2924 1.08543 28.3255 1.20054L14.6429 10.275L0.960187 1.20054C0.993352 1.08543 1.09316 1.00662 1.20655 1.00604ZM0.947553 2.34742L10.7895 8.87324L0.947553 17.163V2.34742ZM28.3382 18.7123C28.3382 18.8642 28.2222 18.9873 28.0792 18.9873H1.20655C1.06355 18.9873 0.947553 18.8641 0.947553 18.7123V18.444L11.6423 9.47015L14.3902 11.2944C14.5445 11.3978 14.7412 11.3978 14.8955 11.2944L17.6434 9.47015L28.3382 18.444V18.7123ZM28.3382 17.163L18.471 8.90007L28.3382 2.40778V17.163Z" fill="white"/>
</svg>
