<svg width="27" height="27" viewBox="0 0 27 27" fill="none" xmlns="http://www.w3.org/2000/svg">
<path d="M10.4457 20.5249H4.27602C3.93864 20.5249 3.66516 20.7984 3.66516 21.1357C3.66516 21.4731 3.93864 21.7466 4.27602 21.7466H10.4457C10.7831 21.7466 11.0566 21.4731 11.0566 21.1357C11.0566 20.7984 10.7831 20.5249 10.4457 20.5249Z" fill="white"/>
<path d="M19.6697 20.5249H13.5C13.1626 20.5249 12.8891 20.7984 12.8891 21.1357C12.8891 21.4731 13.1626 21.7466 13.5 21.7466H19.6697C20.007 21.7466 20.2805 21.4731 20.2805 21.1357C20.2805 20.7984 20.007 20.5249 19.6697 20.5249Z" fill="white"/>
<path d="M19.6697 5.25339H4.27602C3.93864 5.25339 3.66516 5.52687 3.66516 5.86425C3.66516 6.20163 3.93864 6.47511 4.27602 6.47511H19.6697C20.007 6.47511 20.2805 6.20163 20.2805 5.86425C20.2805 5.52687 20.007 5.25339 19.6697 5.25339Z" fill="white"/>
<path d="M19.6697 8.30769H13.5C13.1626 8.30769 12.8891 8.58118 12.8891 8.91855C12.8891 9.25593 13.1626 9.52941 13.5 9.52941H19.6697C20.007 9.52941 20.2805 9.25593 20.2805 8.91855C20.2805 8.58118 20.007 8.30769 19.6697 8.30769Z" fill="white"/>
<path d="M19.6697 11.362H13.5C13.1626 11.362 12.8891 11.6355 12.8891 11.9729C12.8891 12.3102 13.1626 12.5837 13.5 12.5837H19.6697C20.007 12.5837 20.2805 12.3102 20.2805 11.9729C20.2805 11.6355 20.007 11.362 19.6697 11.362Z" fill="white"/>
<path d="M19.6697 14.4163H13.5C13.1626 14.4163 12.8891 14.6898 12.8891 15.0272C12.8891 15.3645 13.1626 15.638 13.5 15.638H19.6697C20.007 15.638 20.2805 15.3645 20.2805 15.0272C20.2805 14.6898 20.007 14.4163 19.6697 14.4163Z" fill="white"/>
<path d="M19.6697 17.4706H13.5C13.1626 17.4706 12.8891 17.7441 12.8891 18.0814C12.8891 18.4188 13.1626 18.6923 13.5 18.6923H19.6697C20.007 18.6923 20.2805 18.4188 20.2805 18.0814C20.2805 17.7441 20.007 17.4706 19.6697 17.4706Z" fill="white"/>
<path d="M10.4457 17.4706H4.27602C3.93864 17.4706 3.66516 17.7441 3.66516 18.0814C3.66516 18.4188 3.93864 18.6923 4.27602 18.6923H10.4457C10.7831 18.6923 11.0566 18.4188 11.0566 18.0814C11.0566 17.7441 10.7831 17.4706 10.4457 17.4706Z" fill="white"/>
<path d="M10.4457 8.30769H4.27602C3.93864 8.30769 3.66516 8.58118 3.66516 8.91855V15.0882C3.66516 15.4256 3.93864 15.6991 4.27602 15.6991H10.4457C10.7831 15.6991 11.0566 15.4256 11.0566 15.0882V8.91855C11.0566 8.58118 10.7831 8.30769 10.4457 8.30769ZM9.83484 14.4774H4.88688V9.52941H9.83484V14.4774Z" fill="white"/>
<path d="M25.7783 4.64253H23.9457V2.80995C23.9457 2.1363 23.3976 1.58823 22.724 1.58823H1.22172C0.548063 1.58823 0 2.1363 0 2.80995V22.3575C0 24.0416 1.37016 25.4118 3.0543 25.4118H23.9457C25.6298 25.4118 27 24.0416 27 22.3575V5.86425C27 5.1906 26.4519 4.64253 25.7783 4.64253ZM25.7783 22.3575C25.7783 23.368 24.9562 24.19 23.9457 24.19H3.0543C2.04381 24.19 1.22172 23.368 1.22172 22.3575V2.80995H22.724V21.4412C22.724 22.2832 23.4091 22.9683 24.2511 22.9683C24.5884 22.9683 24.862 22.6948 24.862 22.3575C24.862 22.0201 24.5884 21.7466 24.2511 21.7466C24.0827 21.7466 23.9457 21.6096 23.9457 21.4412V5.86425H25.7783V22.3575Z" fill="white"/>
</svg>
