<svg width="53" height="53" viewBox="0 0 53 53" fill="none" xmlns="http://www.w3.org/2000/svg">
<g filter="url(#filter0_b)">
<circle cx="26.7679" cy="26.1302" r="26.1302" fill="white" fill-opacity="0.1"/>
</g>
<g clip-path="url(#clip0)">
<path d="M26.7679 13.6332C19.8772 13.6332 14.271 19.2393 14.271 26.1302C14.271 29.3184 15.4717 32.3542 17.6518 34.6784C18.0309 35.0825 18.6656 35.1029 19.0699 34.7238C19.474 34.3447 19.4943 33.7098 19.1152 33.3057C17.2854 31.3548 16.2775 28.8065 16.2775 26.1302C16.2775 20.3458 20.9836 15.6397 26.7679 15.6397C32.5524 15.6397 37.2586 20.3458 37.2586 26.1302C37.2586 31.9147 32.5524 36.6208 26.7679 36.6208C25.7424 36.6208 24.7372 36.4748 23.7688 36.1861L24.795 32.1752C25.4298 32.3301 26.0849 32.4089 26.7536 32.4089C30.9684 32.4089 34.3975 29.2447 34.3975 25.3555C34.3975 21.4661 30.9684 18.3018 26.7536 18.3018C22.5388 18.3018 19.1097 21.4661 19.1097 25.3555C19.1097 26.757 19.5538 28.1112 20.3942 29.2718C20.7191 29.7206 21.3465 29.8211 21.7952 29.496C22.244 29.1711 22.3443 28.5439 22.0194 28.0951C21.4285 27.2789 21.1163 26.3317 21.1163 25.3555C21.1163 22.5725 23.6452 20.3083 26.7536 20.3083C29.862 20.3083 32.391 22.5725 32.391 25.3555C32.391 28.1383 29.8622 30.4023 26.7536 30.4023C26.2541 30.4023 25.7652 30.3451 25.2923 30.2315L26.6968 24.7417C26.834 24.2049 26.5102 23.6584 25.9735 23.5211C25.4367 23.3837 24.8902 23.7075 24.7528 24.2444L21.596 36.5837C21.4705 37.0741 21.7301 37.5812 22.2012 37.7662C23.656 38.3376 25.1927 38.6273 26.7679 38.6273C33.659 38.6273 39.2651 33.0211 39.2651 26.1302C39.2651 19.2393 33.659 13.6332 26.7679 13.6332Z" fill="white"/>
</g>
<defs>
<filter id="filter0_b" x="-1.3623" y="-2" width="56.2605" height="56.2605" filterUnits="userSpaceOnUse" color-interpolation-filters="sRGB">
<feFlood flood-opacity="0" result="BackgroundImageFix"/>
<feGaussianBlur in="BackgroundImage" stdDeviation="1"/>
<feComposite in2="SourceAlpha" operator="in" result="effect1_backgroundBlur"/>
<feBlend mode="normal" in="SourceGraphic" in2="effect1_backgroundBlur" result="shape"/>
</filter>
<clipPath id="clip0">
<rect width="24.9941" height="24.9941" fill="white" transform="translate(14.271 13.6332)"/>
</clipPath>
</defs>
</svg>
