<svg width="30" height="28" viewBox="0 0 30 28" fill="none" xmlns="http://www.w3.org/2000/svg">
<path fill-rule="evenodd" clip-rule="evenodd" d="M11.039 22.8309C10.6944 22.8309 10.3599 22.9026 10.0608 23.0254C9.74658 23.1585 9.46275 23.3478 9.2296 23.5884C8.7633 24.0592 8.47947 24.7041 8.47947 25.4155C8.47947 25.7635 8.55043 26.1013 8.67207 26.4032C8.80385 26.7205 8.99138 27.0071 9.2296 27.2426C9.46782 27.4831 9.74658 27.6725 10.0608 27.8055C10.3649 27.9335 10.6944 28 11.039 28C11.3837 28 11.7182 27.9284 12.0172 27.8055C12.3315 27.6725 12.6153 27.4831 12.8485 27.2426C13.0867 27.002 13.2742 26.7205 13.406 26.4032C13.5327 26.0961 13.5986 25.7635 13.5986 25.4155V25.3848C13.5935 25.047 13.5276 24.7245 13.406 24.4328C13.2742 24.1155 13.0867 23.8289 12.8485 23.5935C12.6102 23.353 12.3315 23.1636 12.0172 23.0305C11.7182 22.9026 11.3887 22.8309 11.039 22.8309ZM29.6807 5.35844C29.6148 5.27655 29.5388 5.2049 29.4627 5.13837C29.3817 5.07183 29.2955 5.02065 29.1992 4.97459C29.108 4.92853 29.0117 4.89783 28.9103 4.87224C28.8089 4.85176 28.7076 4.83641 28.6011 4.83641H28.5656H7.85659C6.45797 4.83641 5.25238 3.85244 4.97212 2.48218C4.95185 2.36959 4.9113 2.26211 4.86569 2.16487C4.82007 2.06251 4.75925 1.96527 4.68829 1.87827C4.61733 1.79126 4.53624 1.71449 4.45008 1.64284C4.36391 1.57631 4.26761 1.52001 4.16118 1.47395C3.82666 1.32553 3.4668 1.17712 3.09681 1.02358C2.34668 0.716505 1.57121 0.38896 0.907248 0.0511789C0.826153 0.0153537 0.745058 0 0.658895 0C0.572732 0 0.486569 0.0153537 0.410542 0.0460611C0.329448 0.0767684 0.25849 0.122829 0.197669 0.184244C0.137413 0.240018 0.0920809 0.310861 0.0567445 0.391797C0.056089 0.393299 0.0557527 0.394923 0.0557527 0.396562C0.0557527 0.398297 0.0553746 0.400009 0.0546536 0.401588C0.0198553 0.477769 0 0.563818 0 0.644855C0 0.731859 0.0152053 0.818863 0.0456158 0.895632C0.0760264 0.977518 0.121642 1.04917 0.182463 1.11058C0.294213 1.23368 0.46618 1.27402 0.622694 1.33009C1.16101 1.52297 2.04748 1.94107 2.7775 2.2877C3.13229 2.45659 3.44653 2.60501 3.66954 2.69713C3.67895 2.7003 3.68597 2.70824 3.68795 2.71797L7.27826 20.318C7.30867 20.4767 7.36949 20.6251 7.45058 20.7633C7.53168 20.9015 7.63811 21.0243 7.76482 21.1267C7.88647 21.229 8.02838 21.3058 8.18044 21.3621C8.32742 21.4133 8.48454 21.444 8.64673 21.444H8.68221H26.3558H26.3913C26.4774 21.444 26.5636 21.4286 26.6396 21.3928C26.7207 21.3621 26.7917 21.3109 26.8525 21.2495C26.9133 21.1881 26.9589 21.1164 26.9944 21.0345C27.0248 20.9578 27.0451 20.8708 27.0451 20.7838C27.0451 20.6968 27.0299 20.6098 26.9944 20.533C26.964 20.4511 26.9133 20.3795 26.8525 20.318C26.7917 20.2566 26.7207 20.2106 26.6396 20.1747C26.5636 20.144 26.4774 20.1236 26.3913 20.1236H8.97618C8.74303 20.1236 8.54029 19.9547 8.48961 19.7244C8.28505 18.7313 9.04394 17.8052 10.0578 17.8052H26.5281C26.6903 17.8052 26.8474 17.7744 26.9944 17.7233C27.1465 17.667 27.2833 17.5902 27.41 17.4878C27.5317 17.3855 27.6381 17.2627 27.7243 17.1245C27.8054 16.9914 27.8662 16.843 27.8966 16.6792L29.9696 6.52532C29.9899 6.42296 30 6.31548 30 6.21312C30 6.11077 29.9848 6.00329 29.9594 5.90605C29.9341 5.80369 29.8986 5.70645 29.853 5.61433C29.8023 5.52733 29.7466 5.44032 29.6807 5.35844ZM26.3051 16.5001C21.8681 16.5734 17.4985 16.5391 13.0961 16.5137C10.0316 16.4961 7.39007 14.3387 6.77648 11.3361C6.23183 8.66295 8.27464 6.16195 11.0027 6.16195H13.2894H28.3223C28.5707 6.1773 28.6721 6.41784 28.6214 6.62256L28.3426 7.99415C27.7598 10.8141 27.2377 13.4089 26.6599 16.234C26.6346 16.3875 26.5737 16.5154 26.3051 16.5001ZM21.9463 12.6105C22.0324 12.6105 22.1186 12.6258 22.1946 12.6617C22.2757 12.6975 22.3467 12.7436 22.4075 12.805C22.4683 12.8664 22.5139 12.938 22.5494 13.0199C22.5798 13.0967 22.6001 13.1837 22.6001 13.2707C22.6001 13.3577 22.5849 13.4447 22.5494 13.5215C22.5139 13.6034 22.4683 13.675 22.4075 13.7364C22.3467 13.7978 22.2757 13.8439 22.1946 13.8797C22.1186 13.9104 22.0324 13.9309 21.9463 13.9309H12.4835C12.3974 13.9309 12.3112 13.9156 12.2352 13.8797C12.1541 13.849 12.0831 13.7978 12.0223 13.7364C11.9615 13.675 11.9159 13.6034 11.8804 13.5215C11.85 13.4447 11.8297 13.3577 11.8297 13.2707C11.8297 13.1837 11.8449 13.0967 11.8804 13.0199C11.9108 12.938 11.9615 12.8664 12.0223 12.805C12.0831 12.7436 12.1541 12.6975 12.2352 12.6617C12.3112 12.631 12.3974 12.6105 12.4835 12.6105H21.9463ZM22.5241 8.72601C22.6102 8.72601 22.6964 8.74136 22.7724 8.77719C22.8535 8.8079 22.9245 8.85908 22.9853 8.92049C23.0461 8.9819 23.0917 9.05356 23.1272 9.13544C23.1576 9.21221 23.1779 9.29921 23.1779 9.38622C23.1779 9.47322 23.1627 9.56023 23.1272 9.637C23.0968 9.71888 23.0461 9.79053 22.9853 9.85195C22.9245 9.91336 22.8535 9.95942 22.7724 9.99525C22.6964 10.026 22.6102 10.0464 22.5241 10.0464H11.9057C11.8196 10.0464 11.7334 10.0311 11.6574 9.99525C11.5763 9.96454 11.5053 9.91336 11.4445 9.85195C11.3837 9.79053 11.3381 9.71888 11.3026 9.637C11.2722 9.56023 11.2519 9.47322 11.2519 9.38622C11.2519 9.29921 11.2671 9.21221 11.3026 9.13544C11.333 9.05356 11.3837 8.9819 11.4445 8.92049C11.5053 8.85908 11.5763 8.81301 11.6574 8.77719C11.7334 8.74648 11.8196 8.72601 11.9057 8.72601H22.5241ZM22.9042 22.8309C22.5596 22.8309 22.225 22.9026 21.926 23.0254C21.6118 23.1585 21.3279 23.3478 21.0948 23.5884C20.6285 24.0592 20.3447 24.7041 20.3447 25.4155C20.3447 25.7635 20.4156 26.1013 20.5373 26.4032C20.669 26.7205 20.8566 27.0071 21.0948 27.2426C21.5611 27.7134 22.1997 28 22.9042 28C23.2489 28 23.5834 27.9284 23.8824 27.8055C24.1967 27.6725 24.4805 27.4831 24.7136 27.2426C24.9518 27.002 25.1394 26.7205 25.2712 26.4032C25.3979 26.0961 25.4638 25.7635 25.4638 25.4155V25.3796C25.4587 25.0419 25.3928 24.7194 25.2712 24.4226C25.1394 24.1053 24.9518 23.8187 24.7136 23.5833C24.4754 23.3427 24.1967 23.1534 23.8824 23.0203C23.5783 22.9026 23.2489 22.8309 22.9042 22.8309ZM22.9042 26.6949C22.7319 26.6949 22.5697 26.6591 22.4227 26.5977C22.2707 26.5312 22.1287 26.439 22.0122 26.3213C21.8956 26.2036 21.8044 26.0654 21.7385 25.9068C21.6776 25.7584 21.6422 25.5946 21.6422 25.4206C21.6422 25.2466 21.6776 25.0828 21.7385 24.9344C21.8044 24.7808 21.8956 24.6375 22.0122 24.5198C22.1287 24.4021 22.2656 24.31 22.4227 24.2435C22.5697 24.1821 22.7319 24.1462 22.9042 24.1462C23.0765 24.1462 23.2387 24.1821 23.3857 24.2435C23.5378 24.31 23.6797 24.4021 23.7962 24.5198C23.9128 24.6375 24.0041 24.7757 24.0699 24.9344C24.1308 25.0828 24.1662 25.2466 24.1662 25.4206C24.1662 25.5946 24.1308 25.7584 24.0699 25.9068C24.0041 26.0603 23.9128 26.2036 23.7962 26.3213C23.6797 26.439 23.5428 26.5312 23.3857 26.5977C23.2337 26.6591 23.0715 26.6949 22.9042 26.6949ZM11.039 26.6949C10.8667 26.6949 10.7045 26.6591 10.5575 26.5977C10.4055 26.5312 10.2636 26.439 10.147 26.3213C10.0304 26.2036 9.93918 26.0654 9.87329 25.9068C9.81247 25.7584 9.77699 25.5946 9.77699 25.4206C9.77699 25.2466 9.81247 25.0828 9.87329 24.9344C9.93918 24.7808 10.0304 24.6375 10.147 24.5198C10.2636 24.4021 10.4004 24.31 10.5575 24.2435C10.7045 24.1821 10.8667 24.1462 11.039 24.1462C11.2114 24.1462 11.3735 24.1821 11.5205 24.2435C11.6726 24.31 11.8145 24.4021 11.9311 24.5198C12.0476 24.6375 12.1389 24.7757 12.2048 24.9344C12.2656 25.0828 12.3011 25.2466 12.3011 25.4206C12.3011 25.5946 12.2656 25.7584 12.2048 25.9068C12.1389 26.0603 12.0476 26.2036 11.9311 26.3213C11.8145 26.439 11.6776 26.5312 11.5205 26.5977C11.3735 26.6591 11.2114 26.6949 11.039 26.6949Z" fill="white"/>
</svg>
