<svg width="53" height="53" viewBox="0 0 53 53" fill="none" xmlns="http://www.w3.org/2000/svg">
<g filter="url(#filter0_b)">
<circle cx="26.1302" cy="26.8697" r="26.1302" fill="white" fill-opacity="0.1"/>
</g>
<g clip-path="url(#clip0)">
<path d="M28.378 26.307L24.5561 24.3387C24.3363 24.2255 24.0766 24.2298 23.8612 24.3499C23.6457 24.4702 23.5171 24.6826 23.5171 24.9184V28.8212C23.5171 29.0559 23.6449 29.268 23.8589 29.3884C23.9707 29.4512 24.0947 29.4828 24.2189 29.4828C24.3326 29.4828 24.4467 29.4563 24.5516 29.4031L28.3736 27.4687C28.6005 27.3538 28.7421 27.1318 28.7432 26.8892C28.7441 26.6466 28.6042 26.4236 28.378 26.307Z" fill="white"/>
<path d="M39.0029 21.9597L39.0017 21.9478C38.9796 21.7374 38.7593 19.8667 37.8498 18.9151C36.7986 17.7959 35.6068 17.66 35.0337 17.5948C34.9862 17.5894 34.9428 17.5844 34.9039 17.5792L34.8583 17.5745C31.4038 17.3233 26.1868 17.289 26.1346 17.2888L26.13 17.2886L26.1254 17.2888C26.0732 17.289 20.8562 17.3233 17.3707 17.5745L17.3246 17.5792C17.2875 17.5842 17.2467 17.5888 17.2022 17.594C16.6356 17.6594 15.4566 17.7955 14.4024 18.9552C13.5362 19.8966 13.2858 21.7273 13.2601 21.933L13.2571 21.9597C13.2493 22.0472 13.0649 24.1307 13.0649 26.2224V28.1777C13.0649 30.2694 13.2493 32.3528 13.2571 32.4406L13.2585 32.4537C13.2806 32.6607 13.5007 34.4971 14.406 35.4491C15.3944 36.5308 16.6442 36.6739 17.3164 36.7509C17.4227 36.763 17.5142 36.7734 17.5766 36.7844L17.637 36.7927C19.6316 36.9825 25.8852 37.076 26.1503 37.0798L26.1583 37.08L26.1663 37.0798C26.2185 37.0796 31.4353 37.0453 34.8898 36.7941L34.9354 36.7894C34.9791 36.7836 35.0281 36.7784 35.0819 36.7728C35.6453 36.713 36.8179 36.5888 37.8576 35.4449C38.7238 34.5033 38.9744 32.6726 38.9999 32.4671L39.0029 32.4404C39.0107 32.3526 39.1953 30.2694 39.1953 28.1777V26.2224C39.1951 24.1307 39.0107 22.0474 39.0029 21.9597V21.9597ZM37.6638 28.1777C37.6638 30.1137 37.4948 32.1074 37.4788 32.2904C37.4138 32.7946 37.1497 33.9529 36.7276 34.4116C36.0769 35.1275 35.4085 35.1985 34.9205 35.2501C34.8614 35.2563 34.8068 35.2623 34.7574 35.2685C31.4162 35.5101 26.3961 35.5472 26.1649 35.5486C25.9055 35.5448 19.7434 35.4505 17.8096 35.2708C17.7106 35.2547 17.6035 35.2423 17.4907 35.2296C16.9183 35.164 16.1348 35.0743 15.5324 34.4116L15.5182 34.3965C15.1036 33.9645 14.847 32.8813 14.7818 32.2964C14.7696 32.1581 14.5962 30.1408 14.5962 28.1777V26.2224C14.5962 24.2886 14.7649 22.297 14.7812 22.1102C14.8588 21.5164 15.1279 20.4283 15.5324 19.9885C16.203 19.2509 16.9101 19.1691 17.3778 19.1151C17.4225 19.1099 17.4642 19.1051 17.5026 19.1001C20.8925 18.8573 25.9486 18.8212 26.13 18.8198C26.3114 18.821 31.3657 18.8573 34.7255 19.1001C34.7668 19.1053 34.8118 19.1105 34.8603 19.1161C35.3413 19.1709 36.0684 19.2538 36.7356 19.9656L36.7418 19.9721C37.1564 20.4041 37.413 21.5062 37.4782 22.1029C37.4898 22.2334 37.6638 24.2551 37.6638 26.2224V28.1777Z" fill="white"/>
</g>
<defs>
<filter id="filter0_b" x="-2" y="-1.2605" width="56.2605" height="56.2605" filterUnits="userSpaceOnUse" color-interpolation-filters="sRGB">
<feFlood flood-opacity="0" result="BackgroundImageFix"/>
<feGaussianBlur in="BackgroundImage" stdDeviation="1"/>
<feComposite in2="SourceAlpha" operator="in" result="effect1_backgroundBlur"/>
<feBlend mode="normal" in="SourceGraphic" in2="effect1_backgroundBlur" result="shape"/>
</filter>
<clipPath id="clip0">
<rect width="26.1302" height="26.1302" fill="white" transform="translate(13.0649 13.8046)"/>
</clipPath>
</defs>
</svg>
